G75*
%MOIN*%
%OFA0B0*%
%FSLAX25Y25*%
%IPPOS*%
%LPD*%
%AMOC8*
5,1,8,0,0,1.08239X$1,22.5*
%
%ADD10C,0.14580*%
%ADD11OC8,0.07400*%
%ADD12C,0.00039*%
%ADD13R,0.09068X0.06312*%
D10*
X0045764Y0015390D03*
X0034346Y0033894D03*
X0057575Y0033894D03*
D11*
X0061000Y0071000D03*
X0051000Y0071000D03*
D12*
X0090858Y0075593D02*
X0090964Y0075199D01*
X0091137Y0074829D01*
X0091371Y0074494D01*
X0091659Y0074206D01*
X0091994Y0073971D01*
X0092364Y0073799D01*
X0092759Y0073693D01*
X0093165Y0073657D01*
X0093572Y0073693D01*
X0093967Y0073799D01*
X0094337Y0073971D01*
X0094671Y0074206D01*
X0094960Y0074494D01*
X0095194Y0074829D01*
X0095367Y0075199D01*
X0095472Y0075593D01*
X0095508Y0076000D01*
X0095472Y0076407D01*
X0095367Y0076801D01*
X0095194Y0077171D01*
X0094960Y0077506D01*
X0094671Y0077794D01*
X0094337Y0078029D01*
X0093967Y0078201D01*
X0093572Y0078307D01*
X0093165Y0078343D01*
X0092759Y0078307D01*
X0092364Y0078201D01*
X0091994Y0078029D01*
X0091659Y0077794D01*
X0091371Y0077506D01*
X0091137Y0077171D01*
X0090964Y0076801D01*
X0090858Y0076407D01*
X0090823Y0076000D01*
X0090858Y0075593D01*
X0090859Y0075590D02*
X0095472Y0075590D01*
X0095475Y0075628D02*
X0090855Y0075628D01*
X0090852Y0075666D02*
X0095479Y0075666D01*
X0095482Y0075704D02*
X0090849Y0075704D01*
X0090845Y0075742D02*
X0095485Y0075742D01*
X0095489Y0075780D02*
X0090842Y0075780D01*
X0090839Y0075817D02*
X0095492Y0075817D01*
X0095495Y0075855D02*
X0090835Y0075855D01*
X0090832Y0075893D02*
X0095499Y0075893D01*
X0095502Y0075931D02*
X0090829Y0075931D01*
X0090826Y0075969D02*
X0095505Y0075969D01*
X0095507Y0076007D02*
X0090823Y0076007D01*
X0090827Y0076045D02*
X0095504Y0076045D01*
X0095501Y0076083D02*
X0090830Y0076083D01*
X0090833Y0076121D02*
X0095497Y0076121D01*
X0095494Y0076158D02*
X0090837Y0076158D01*
X0090840Y0076196D02*
X0095491Y0076196D01*
X0095487Y0076234D02*
X0090843Y0076234D01*
X0090847Y0076272D02*
X0095484Y0076272D01*
X0095481Y0076310D02*
X0090850Y0076310D01*
X0090853Y0076348D02*
X0095478Y0076348D01*
X0095474Y0076386D02*
X0090856Y0076386D01*
X0090863Y0076424D02*
X0095468Y0076424D01*
X0095458Y0076461D02*
X0090873Y0076461D01*
X0090883Y0076499D02*
X0095448Y0076499D01*
X0095437Y0076537D02*
X0090893Y0076537D01*
X0090903Y0076575D02*
X0095427Y0076575D01*
X0095417Y0076613D02*
X0090914Y0076613D01*
X0090924Y0076651D02*
X0095407Y0076651D01*
X0095397Y0076689D02*
X0090934Y0076689D01*
X0090944Y0076727D02*
X0095387Y0076727D01*
X0095376Y0076765D02*
X0090954Y0076765D01*
X0090965Y0076802D02*
X0095366Y0076802D01*
X0095348Y0076840D02*
X0090982Y0076840D01*
X0091000Y0076878D02*
X0095331Y0076878D01*
X0095313Y0076916D02*
X0091018Y0076916D01*
X0091035Y0076954D02*
X0095295Y0076954D01*
X0095278Y0076992D02*
X0091053Y0076992D01*
X0091071Y0077030D02*
X0095260Y0077030D01*
X0095242Y0077068D02*
X0091088Y0077068D01*
X0091106Y0077105D02*
X0095225Y0077105D01*
X0095207Y0077143D02*
X0091124Y0077143D01*
X0091144Y0077181D02*
X0095187Y0077181D01*
X0095161Y0077219D02*
X0091170Y0077219D01*
X0091197Y0077257D02*
X0095134Y0077257D01*
X0095108Y0077295D02*
X0091223Y0077295D01*
X0091250Y0077333D02*
X0095081Y0077333D01*
X0095055Y0077371D02*
X0091276Y0077371D01*
X0091303Y0077409D02*
X0095028Y0077409D01*
X0095002Y0077446D02*
X0091329Y0077446D01*
X0091356Y0077484D02*
X0094975Y0077484D01*
X0094944Y0077522D02*
X0091387Y0077522D01*
X0091425Y0077560D02*
X0094906Y0077560D01*
X0094868Y0077598D02*
X0091463Y0077598D01*
X0091501Y0077636D02*
X0094830Y0077636D01*
X0094792Y0077674D02*
X0091539Y0077674D01*
X0091577Y0077712D02*
X0094754Y0077712D01*
X0094716Y0077749D02*
X0091614Y0077749D01*
X0091652Y0077787D02*
X0094678Y0077787D01*
X0094627Y0077825D02*
X0091703Y0077825D01*
X0091757Y0077863D02*
X0094573Y0077863D01*
X0094519Y0077901D02*
X0091812Y0077901D01*
X0091866Y0077939D02*
X0094465Y0077939D01*
X0094411Y0077977D02*
X0091920Y0077977D01*
X0091974Y0078015D02*
X0094357Y0078015D01*
X0094286Y0078052D02*
X0092045Y0078052D01*
X0092126Y0078090D02*
X0094204Y0078090D01*
X0094123Y0078128D02*
X0092208Y0078128D01*
X0092289Y0078166D02*
X0094042Y0078166D01*
X0093956Y0078204D02*
X0092375Y0078204D01*
X0092516Y0078242D02*
X0093815Y0078242D01*
X0093674Y0078280D02*
X0092657Y0078280D01*
X0092880Y0078318D02*
X0093451Y0078318D01*
X0095461Y0075552D02*
X0090869Y0075552D01*
X0090879Y0075514D02*
X0095451Y0075514D01*
X0095441Y0075477D02*
X0090890Y0075477D01*
X0090900Y0075439D02*
X0095431Y0075439D01*
X0095421Y0075401D02*
X0090910Y0075401D01*
X0090920Y0075363D02*
X0095411Y0075363D01*
X0095400Y0075325D02*
X0090930Y0075325D01*
X0090940Y0075287D02*
X0095390Y0075287D01*
X0095380Y0075249D02*
X0090951Y0075249D01*
X0090961Y0075211D02*
X0095370Y0075211D01*
X0095355Y0075173D02*
X0090976Y0075173D01*
X0090994Y0075136D02*
X0095337Y0075136D01*
X0095319Y0075098D02*
X0091011Y0075098D01*
X0091029Y0075060D02*
X0095302Y0075060D01*
X0095284Y0075022D02*
X0091047Y0075022D01*
X0091064Y0074984D02*
X0095266Y0074984D01*
X0095249Y0074946D02*
X0091082Y0074946D01*
X0091100Y0074908D02*
X0095231Y0074908D01*
X0095214Y0074870D02*
X0091117Y0074870D01*
X0091135Y0074833D02*
X0095196Y0074833D01*
X0095170Y0074795D02*
X0091160Y0074795D01*
X0091187Y0074757D02*
X0095144Y0074757D01*
X0095117Y0074719D02*
X0091213Y0074719D01*
X0091240Y0074681D02*
X0095091Y0074681D01*
X0095064Y0074643D02*
X0091267Y0074643D01*
X0091293Y0074605D02*
X0095038Y0074605D01*
X0095011Y0074567D02*
X0091320Y0074567D01*
X0091346Y0074530D02*
X0094985Y0074530D01*
X0094957Y0074492D02*
X0091373Y0074492D01*
X0091411Y0074454D02*
X0094920Y0074454D01*
X0094882Y0074416D02*
X0091449Y0074416D01*
X0091487Y0074378D02*
X0094844Y0074378D01*
X0094806Y0074340D02*
X0091525Y0074340D01*
X0091563Y0074302D02*
X0094768Y0074302D01*
X0094730Y0074264D02*
X0091601Y0074264D01*
X0091638Y0074226D02*
X0094692Y0074226D01*
X0094647Y0074189D02*
X0091684Y0074189D01*
X0091738Y0074151D02*
X0094593Y0074151D01*
X0094539Y0074113D02*
X0091792Y0074113D01*
X0091846Y0074075D02*
X0094485Y0074075D01*
X0094431Y0074037D02*
X0091900Y0074037D01*
X0091954Y0073999D02*
X0094376Y0073999D01*
X0094315Y0073961D02*
X0092015Y0073961D01*
X0092097Y0073923D02*
X0094234Y0073923D01*
X0094153Y0073886D02*
X0092178Y0073886D01*
X0092259Y0073848D02*
X0094071Y0073848D01*
X0093990Y0073810D02*
X0092341Y0073810D01*
X0092464Y0073772D02*
X0093866Y0073772D01*
X0093725Y0073734D02*
X0092606Y0073734D01*
X0092747Y0073696D02*
X0093584Y0073696D01*
X0093174Y0073658D02*
X0093157Y0073658D01*
X0136492Y0076000D02*
X0136528Y0075593D01*
X0136633Y0075199D01*
X0136806Y0074829D01*
X0137040Y0074494D01*
X0137329Y0074206D01*
X0137663Y0073971D01*
X0138033Y0073799D01*
X0138428Y0073693D01*
X0138835Y0073657D01*
X0139241Y0073693D01*
X0139636Y0073799D01*
X0140006Y0073971D01*
X0140341Y0074206D01*
X0140629Y0074494D01*
X0140863Y0074829D01*
X0141036Y0075199D01*
X0141142Y0075593D01*
X0141177Y0076000D01*
X0141142Y0076407D01*
X0141036Y0076801D01*
X0140863Y0077171D01*
X0140629Y0077506D01*
X0140341Y0077794D01*
X0140006Y0078029D01*
X0139636Y0078201D01*
X0139241Y0078307D01*
X0138835Y0078343D01*
X0138428Y0078307D01*
X0138033Y0078201D01*
X0137663Y0078029D01*
X0137329Y0077794D01*
X0137040Y0077506D01*
X0136806Y0077171D01*
X0136633Y0076801D01*
X0136528Y0076407D01*
X0136492Y0076000D01*
X0136493Y0076007D02*
X0141177Y0076007D01*
X0141173Y0076045D02*
X0136496Y0076045D01*
X0136499Y0076083D02*
X0141170Y0076083D01*
X0141167Y0076121D02*
X0136503Y0076121D01*
X0136506Y0076158D02*
X0141163Y0076158D01*
X0141160Y0076196D02*
X0136509Y0076196D01*
X0136513Y0076234D02*
X0141157Y0076234D01*
X0141153Y0076272D02*
X0136516Y0076272D01*
X0136519Y0076310D02*
X0141150Y0076310D01*
X0141147Y0076348D02*
X0136522Y0076348D01*
X0136526Y0076386D02*
X0141144Y0076386D01*
X0141137Y0076424D02*
X0136532Y0076424D01*
X0136542Y0076461D02*
X0141127Y0076461D01*
X0141117Y0076499D02*
X0136552Y0076499D01*
X0136563Y0076537D02*
X0141107Y0076537D01*
X0141097Y0076575D02*
X0136573Y0076575D01*
X0136583Y0076613D02*
X0141086Y0076613D01*
X0141076Y0076651D02*
X0136593Y0076651D01*
X0136603Y0076689D02*
X0141066Y0076689D01*
X0141056Y0076727D02*
X0136613Y0076727D01*
X0136624Y0076765D02*
X0141046Y0076765D01*
X0141035Y0076802D02*
X0136634Y0076802D01*
X0136652Y0076840D02*
X0141018Y0076840D01*
X0141000Y0076878D02*
X0136669Y0076878D01*
X0136687Y0076916D02*
X0140982Y0076916D01*
X0140965Y0076954D02*
X0136705Y0076954D01*
X0136722Y0076992D02*
X0140947Y0076992D01*
X0140929Y0077030D02*
X0136740Y0077030D01*
X0136758Y0077068D02*
X0140912Y0077068D01*
X0140894Y0077105D02*
X0136775Y0077105D01*
X0136793Y0077143D02*
X0140876Y0077143D01*
X0140856Y0077181D02*
X0136813Y0077181D01*
X0136839Y0077219D02*
X0140830Y0077219D01*
X0140803Y0077257D02*
X0136866Y0077257D01*
X0136892Y0077295D02*
X0140777Y0077295D01*
X0140750Y0077333D02*
X0136919Y0077333D01*
X0136945Y0077371D02*
X0140724Y0077371D01*
X0140697Y0077409D02*
X0136972Y0077409D01*
X0136998Y0077446D02*
X0140671Y0077446D01*
X0140644Y0077484D02*
X0137025Y0077484D01*
X0137056Y0077522D02*
X0140613Y0077522D01*
X0140575Y0077560D02*
X0137094Y0077560D01*
X0137132Y0077598D02*
X0140537Y0077598D01*
X0140499Y0077636D02*
X0137170Y0077636D01*
X0137208Y0077674D02*
X0140461Y0077674D01*
X0140423Y0077712D02*
X0137246Y0077712D01*
X0137284Y0077749D02*
X0140386Y0077749D01*
X0140348Y0077787D02*
X0137322Y0077787D01*
X0137373Y0077825D02*
X0140297Y0077825D01*
X0140243Y0077863D02*
X0137427Y0077863D01*
X0137481Y0077901D02*
X0140188Y0077901D01*
X0140134Y0077939D02*
X0137535Y0077939D01*
X0137589Y0077977D02*
X0140080Y0077977D01*
X0140026Y0078015D02*
X0137643Y0078015D01*
X0137714Y0078052D02*
X0139955Y0078052D01*
X0139874Y0078090D02*
X0137796Y0078090D01*
X0137877Y0078128D02*
X0139792Y0078128D01*
X0139711Y0078166D02*
X0137958Y0078166D01*
X0138044Y0078204D02*
X0139625Y0078204D01*
X0139484Y0078242D02*
X0138185Y0078242D01*
X0138326Y0078280D02*
X0139343Y0078280D01*
X0139120Y0078318D02*
X0138549Y0078318D01*
X0136495Y0075969D02*
X0141174Y0075969D01*
X0141171Y0075931D02*
X0136498Y0075931D01*
X0136501Y0075893D02*
X0141168Y0075893D01*
X0141165Y0075855D02*
X0136505Y0075855D01*
X0136508Y0075817D02*
X0141161Y0075817D01*
X0141158Y0075780D02*
X0136511Y0075780D01*
X0136515Y0075742D02*
X0141155Y0075742D01*
X0141151Y0075704D02*
X0136518Y0075704D01*
X0136521Y0075666D02*
X0141148Y0075666D01*
X0141145Y0075628D02*
X0136525Y0075628D01*
X0136528Y0075590D02*
X0141141Y0075590D01*
X0141131Y0075552D02*
X0136539Y0075552D01*
X0136549Y0075514D02*
X0141121Y0075514D01*
X0141110Y0075477D02*
X0136559Y0075477D01*
X0136569Y0075439D02*
X0141100Y0075439D01*
X0141090Y0075401D02*
X0136579Y0075401D01*
X0136589Y0075363D02*
X0141080Y0075363D01*
X0141070Y0075325D02*
X0136600Y0075325D01*
X0136610Y0075287D02*
X0141060Y0075287D01*
X0141049Y0075249D02*
X0136620Y0075249D01*
X0136630Y0075211D02*
X0141039Y0075211D01*
X0141024Y0075173D02*
X0136645Y0075173D01*
X0136663Y0075136D02*
X0141006Y0075136D01*
X0140989Y0075098D02*
X0136681Y0075098D01*
X0136698Y0075060D02*
X0140971Y0075060D01*
X0140953Y0075022D02*
X0136716Y0075022D01*
X0136734Y0074984D02*
X0140936Y0074984D01*
X0140918Y0074946D02*
X0136751Y0074946D01*
X0136769Y0074908D02*
X0140900Y0074908D01*
X0140883Y0074870D02*
X0136786Y0074870D01*
X0136804Y0074833D02*
X0140865Y0074833D01*
X0140840Y0074795D02*
X0136830Y0074795D01*
X0136856Y0074757D02*
X0140813Y0074757D01*
X0140787Y0074719D02*
X0136883Y0074719D01*
X0136909Y0074681D02*
X0140760Y0074681D01*
X0140733Y0074643D02*
X0136936Y0074643D01*
X0136962Y0074605D02*
X0140707Y0074605D01*
X0140680Y0074567D02*
X0136989Y0074567D01*
X0137015Y0074530D02*
X0140654Y0074530D01*
X0140627Y0074492D02*
X0137043Y0074492D01*
X0137080Y0074454D02*
X0140589Y0074454D01*
X0140551Y0074416D02*
X0137118Y0074416D01*
X0137156Y0074378D02*
X0140513Y0074378D01*
X0140475Y0074340D02*
X0137194Y0074340D01*
X0137232Y0074302D02*
X0140437Y0074302D01*
X0140399Y0074264D02*
X0137270Y0074264D01*
X0137308Y0074226D02*
X0140362Y0074226D01*
X0140316Y0074189D02*
X0137353Y0074189D01*
X0137407Y0074151D02*
X0140262Y0074151D01*
X0140208Y0074113D02*
X0137461Y0074113D01*
X0137515Y0074075D02*
X0140154Y0074075D01*
X0140100Y0074037D02*
X0137569Y0074037D01*
X0137623Y0073999D02*
X0140046Y0073999D01*
X0139985Y0073961D02*
X0137685Y0073961D01*
X0137766Y0073923D02*
X0139903Y0073923D01*
X0139822Y0073886D02*
X0137847Y0073886D01*
X0137929Y0073848D02*
X0139741Y0073848D01*
X0139659Y0073810D02*
X0138010Y0073810D01*
X0138134Y0073772D02*
X0139536Y0073772D01*
X0139394Y0073734D02*
X0138275Y0073734D01*
X0138416Y0073696D02*
X0139253Y0073696D01*
X0138843Y0073658D02*
X0138826Y0073658D01*
D13*
X0130685Y0039858D03*
X0130685Y0022142D03*
X0091315Y0022142D03*
X0091315Y0039858D03*
M02*
