G75*
%MOIN*%
%OFA0B0*%
%FSLAX25Y25*%
%IPPOS*%
%LPD*%
%AMOC8*
5,1,8,0,0,1.08239X$1,22.5*
%
%ADD10C,0.01000*%
%ADD11C,0.00500*%
%ADD12C,0.00800*%
%ADD13C,0.00100*%
%ADD14C,0.00600*%
%ADD15C,0.00000*%
%ADD16C,0.00472*%
D10*
X0001500Y0001500D02*
X0001500Y0141461D01*
X0195201Y0141461D01*
X0195201Y0001500D01*
X0001500Y0001500D01*
D11*
X0056815Y0021815D02*
X0056815Y0061185D01*
X0096185Y0061185D01*
X0096185Y0021815D01*
X0056815Y0021815D01*
X0066657Y0090890D02*
X0009177Y0090890D01*
X0009116Y0090791D02*
X0009184Y0126295D01*
X0009177Y0126323D02*
X0066657Y0126323D01*
X0066657Y0090890D01*
X0149250Y0113850D02*
X0152253Y0113850D01*
X0153854Y0113850D02*
X0156856Y0113850D01*
X0158458Y0113850D02*
X0160710Y0113850D01*
X0161460Y0114601D01*
X0161460Y0117603D01*
X0160710Y0118354D01*
X0158458Y0118354D01*
X0158458Y0113850D01*
X0155355Y0116102D02*
X0153854Y0116102D01*
X0153854Y0118354D02*
X0153854Y0113850D01*
X0153854Y0118354D02*
X0156856Y0118354D01*
X0163062Y0116853D02*
X0164563Y0118354D01*
X0164563Y0113850D01*
X0163062Y0113850D02*
X0166064Y0113850D01*
X0149250Y0113850D02*
X0149250Y0118354D01*
X0162510Y0051683D02*
X0162510Y0046045D01*
X0163214Y0046750D02*
X0163919Y0047455D01*
X0163919Y0048159D01*
X0163214Y0048864D01*
X0161805Y0048864D01*
X0161100Y0049569D01*
X0161100Y0050273D01*
X0161805Y0050978D01*
X0163214Y0050978D01*
X0163919Y0050273D01*
X0165450Y0049569D02*
X0166860Y0050978D01*
X0166860Y0046750D01*
X0168269Y0046750D02*
X0165450Y0046750D01*
X0163214Y0046750D02*
X0161805Y0046750D01*
X0161100Y0047455D01*
X0159569Y0047455D02*
X0159569Y0050978D01*
X0156750Y0050978D02*
X0156750Y0047455D01*
X0157455Y0046750D01*
X0158864Y0046750D01*
X0159569Y0047455D01*
D12*
X0146500Y0104000D02*
X0146500Y0119000D01*
D13*
X0146829Y0119309D02*
X0146109Y0118769D01*
X0146110Y0118770D02*
X0145929Y0119003D01*
X0145743Y0119231D01*
X0145551Y0119455D01*
X0145354Y0119674D01*
X0145152Y0119888D01*
X0144944Y0120097D01*
X0144731Y0120300D01*
X0144514Y0120499D01*
X0144291Y0120692D01*
X0144064Y0120880D01*
X0143833Y0121062D01*
X0143597Y0121239D01*
X0143356Y0121409D01*
X0143112Y0121574D01*
X0142864Y0121732D01*
X0142612Y0121885D01*
X0142356Y0122031D01*
X0142097Y0122171D01*
X0141834Y0122305D01*
X0141569Y0122432D01*
X0141300Y0122553D01*
X0141028Y0122667D01*
X0140754Y0122774D01*
X0140477Y0122875D01*
X0140198Y0122969D01*
X0139916Y0123056D01*
X0139633Y0123136D01*
X0139347Y0123209D01*
X0139060Y0123275D01*
X0138771Y0123334D01*
X0138481Y0123386D01*
X0138190Y0123431D01*
X0137898Y0123469D01*
X0137605Y0123499D01*
X0137311Y0123523D01*
X0137017Y0123539D01*
X0136723Y0123548D01*
X0136428Y0123550D01*
X0136133Y0123544D01*
X0135839Y0123532D01*
X0135545Y0123512D01*
X0135252Y0123485D01*
X0134959Y0123451D01*
X0134667Y0123410D01*
X0134377Y0123361D01*
X0134087Y0123306D01*
X0133800Y0123244D01*
X0133513Y0123174D01*
X0133229Y0123097D01*
X0132946Y0123014D01*
X0132666Y0122924D01*
X0132388Y0122827D01*
X0132112Y0122723D01*
X0131839Y0122612D01*
X0131569Y0122495D01*
X0131301Y0122371D01*
X0131037Y0122241D01*
X0130776Y0122104D01*
X0130519Y0121961D01*
X0130265Y0121811D01*
X0130014Y0121656D01*
X0129768Y0121494D01*
X0129526Y0121327D01*
X0129288Y0121153D01*
X0129054Y0120974D01*
X0128824Y0120789D01*
X0128600Y0120599D01*
X0128379Y0120403D01*
X0128164Y0120202D01*
X0127954Y0119995D01*
X0127749Y0119784D01*
X0127549Y0119567D01*
X0127354Y0119346D01*
X0127165Y0119120D01*
X0126982Y0118890D01*
X0126804Y0118655D01*
X0126632Y0118415D01*
X0126466Y0118172D01*
X0126306Y0117925D01*
X0126152Y0117674D01*
X0126004Y0117419D01*
X0125862Y0117160D01*
X0125727Y0116899D01*
X0125598Y0116634D01*
X0125476Y0116366D01*
X0125360Y0116095D01*
X0125251Y0115821D01*
X0125149Y0115545D01*
X0125054Y0115266D01*
X0124965Y0114985D01*
X0124883Y0114702D01*
X0124808Y0114417D01*
X0124741Y0114130D01*
X0124680Y0113842D01*
X0124626Y0113552D01*
X0124579Y0113261D01*
X0124540Y0112969D01*
X0124508Y0112677D01*
X0124482Y0112383D01*
X0124464Y0112089D01*
X0124454Y0111795D01*
X0124450Y0111500D01*
X0124454Y0111205D01*
X0124464Y0110911D01*
X0124482Y0110617D01*
X0124508Y0110323D01*
X0124540Y0110031D01*
X0124579Y0109739D01*
X0124626Y0109448D01*
X0124680Y0109158D01*
X0124741Y0108870D01*
X0124808Y0108583D01*
X0124883Y0108298D01*
X0124965Y0108015D01*
X0125054Y0107734D01*
X0125149Y0107455D01*
X0125251Y0107179D01*
X0125360Y0106905D01*
X0125476Y0106634D01*
X0125598Y0106366D01*
X0125727Y0106101D01*
X0125862Y0105840D01*
X0126004Y0105581D01*
X0126152Y0105326D01*
X0126306Y0105075D01*
X0126466Y0104828D01*
X0126632Y0104585D01*
X0126804Y0104345D01*
X0126982Y0104110D01*
X0127165Y0103880D01*
X0127354Y0103654D01*
X0127549Y0103433D01*
X0127749Y0103216D01*
X0127954Y0103005D01*
X0128164Y0102798D01*
X0128379Y0102597D01*
X0128600Y0102401D01*
X0128824Y0102211D01*
X0129054Y0102026D01*
X0129288Y0101847D01*
X0129526Y0101673D01*
X0129768Y0101506D01*
X0130014Y0101344D01*
X0130265Y0101189D01*
X0130519Y0101039D01*
X0130776Y0100896D01*
X0131037Y0100759D01*
X0131301Y0100629D01*
X0131569Y0100505D01*
X0131839Y0100388D01*
X0132112Y0100277D01*
X0132388Y0100173D01*
X0132666Y0100076D01*
X0132946Y0099986D01*
X0133229Y0099903D01*
X0133513Y0099826D01*
X0133800Y0099756D01*
X0134087Y0099694D01*
X0134377Y0099639D01*
X0134667Y0099590D01*
X0134959Y0099549D01*
X0135252Y0099515D01*
X0135545Y0099488D01*
X0135839Y0099468D01*
X0136133Y0099456D01*
X0136428Y0099450D01*
X0136723Y0099452D01*
X0137017Y0099461D01*
X0137311Y0099477D01*
X0137605Y0099501D01*
X0137898Y0099531D01*
X0138190Y0099569D01*
X0138481Y0099614D01*
X0138771Y0099666D01*
X0139060Y0099725D01*
X0139347Y0099791D01*
X0139633Y0099864D01*
X0139916Y0099944D01*
X0140198Y0100031D01*
X0140477Y0100125D01*
X0140754Y0100226D01*
X0141028Y0100333D01*
X0141300Y0100447D01*
X0141569Y0100568D01*
X0141834Y0100695D01*
X0142097Y0100829D01*
X0142356Y0100969D01*
X0142612Y0101115D01*
X0142864Y0101268D01*
X0143112Y0101426D01*
X0143356Y0101591D01*
X0143597Y0101761D01*
X0143833Y0101938D01*
X0144064Y0102120D01*
X0144291Y0102308D01*
X0144514Y0102501D01*
X0144731Y0102700D01*
X0144944Y0102903D01*
X0145152Y0103112D01*
X0145354Y0103326D01*
X0145551Y0103545D01*
X0145743Y0103769D01*
X0145929Y0103997D01*
X0146110Y0104230D01*
X0146829Y0103691D01*
X0146830Y0103690D01*
X0146636Y0103440D01*
X0146436Y0103194D01*
X0146230Y0102954D01*
X0146018Y0102719D01*
X0145800Y0102489D01*
X0145577Y0102264D01*
X0145349Y0102045D01*
X0145115Y0101831D01*
X0144876Y0101623D01*
X0144632Y0101421D01*
X0144383Y0101226D01*
X0144129Y0101036D01*
X0143871Y0100853D01*
X0143609Y0100676D01*
X0143342Y0100505D01*
X0143071Y0100341D01*
X0142796Y0100184D01*
X0142518Y0100033D01*
X0142235Y0099889D01*
X0141950Y0099753D01*
X0141661Y0099623D01*
X0141369Y0099500D01*
X0141074Y0099385D01*
X0140777Y0099277D01*
X0140476Y0099176D01*
X0140174Y0099082D01*
X0139869Y0098996D01*
X0139562Y0098917D01*
X0139254Y0098846D01*
X0138944Y0098783D01*
X0138632Y0098727D01*
X0138319Y0098678D01*
X0138005Y0098638D01*
X0137690Y0098605D01*
X0137374Y0098580D01*
X0137058Y0098562D01*
X0136742Y0098552D01*
X0136425Y0098550D01*
X0136108Y0098556D01*
X0135792Y0098569D01*
X0135476Y0098591D01*
X0135161Y0098619D01*
X0134846Y0098656D01*
X0134533Y0098700D01*
X0134220Y0098752D01*
X0133909Y0098812D01*
X0133600Y0098879D01*
X0133292Y0098954D01*
X0132986Y0099036D01*
X0132683Y0099125D01*
X0132381Y0099222D01*
X0132082Y0099327D01*
X0131786Y0099439D01*
X0131492Y0099557D01*
X0131202Y0099683D01*
X0130915Y0099816D01*
X0130630Y0099957D01*
X0130350Y0100104D01*
X0130073Y0100257D01*
X0129800Y0100418D01*
X0129531Y0100585D01*
X0129266Y0100759D01*
X0129006Y0100939D01*
X0128750Y0101125D01*
X0128499Y0101318D01*
X0128252Y0101516D01*
X0128010Y0101721D01*
X0127774Y0101931D01*
X0127542Y0102148D01*
X0127317Y0102370D01*
X0127096Y0102597D01*
X0126881Y0102829D01*
X0126672Y0103067D01*
X0126469Y0103310D01*
X0126271Y0103558D01*
X0126080Y0103810D01*
X0125895Y0104067D01*
X0125717Y0104329D01*
X0125545Y0104595D01*
X0125379Y0104864D01*
X0125220Y0105138D01*
X0125068Y0105416D01*
X0124923Y0105697D01*
X0124784Y0105982D01*
X0124653Y0106270D01*
X0124529Y0106562D01*
X0124411Y0106856D01*
X0124301Y0107153D01*
X0124199Y0107452D01*
X0124104Y0107754D01*
X0124016Y0108058D01*
X0123935Y0108365D01*
X0123862Y0108673D01*
X0123797Y0108983D01*
X0123739Y0109294D01*
X0123689Y0109607D01*
X0123647Y0109921D01*
X0123612Y0110235D01*
X0123585Y0110551D01*
X0123565Y0110867D01*
X0123554Y0111183D01*
X0123550Y0111500D01*
X0123554Y0111817D01*
X0123565Y0112133D01*
X0123585Y0112449D01*
X0123612Y0112765D01*
X0123647Y0113079D01*
X0123689Y0113393D01*
X0123739Y0113706D01*
X0123797Y0114017D01*
X0123862Y0114327D01*
X0123935Y0114635D01*
X0124016Y0114942D01*
X0124104Y0115246D01*
X0124199Y0115548D01*
X0124301Y0115847D01*
X0124411Y0116144D01*
X0124529Y0116438D01*
X0124653Y0116730D01*
X0124784Y0117018D01*
X0124923Y0117303D01*
X0125068Y0117584D01*
X0125220Y0117862D01*
X0125379Y0118136D01*
X0125545Y0118405D01*
X0125717Y0118671D01*
X0125895Y0118933D01*
X0126080Y0119190D01*
X0126271Y0119442D01*
X0126469Y0119690D01*
X0126672Y0119933D01*
X0126881Y0120171D01*
X0127096Y0120403D01*
X0127317Y0120630D01*
X0127542Y0120852D01*
X0127774Y0121069D01*
X0128010Y0121279D01*
X0128252Y0121484D01*
X0128499Y0121682D01*
X0128750Y0121875D01*
X0129006Y0122061D01*
X0129266Y0122241D01*
X0129531Y0122415D01*
X0129800Y0122582D01*
X0130073Y0122743D01*
X0130350Y0122896D01*
X0130630Y0123043D01*
X0130915Y0123184D01*
X0131202Y0123317D01*
X0131492Y0123443D01*
X0131786Y0123561D01*
X0132082Y0123673D01*
X0132381Y0123778D01*
X0132683Y0123875D01*
X0132986Y0123964D01*
X0133292Y0124046D01*
X0133600Y0124121D01*
X0133909Y0124188D01*
X0134220Y0124248D01*
X0134533Y0124300D01*
X0134846Y0124344D01*
X0135161Y0124381D01*
X0135476Y0124409D01*
X0135792Y0124431D01*
X0136108Y0124444D01*
X0136425Y0124450D01*
X0136742Y0124448D01*
X0137058Y0124438D01*
X0137374Y0124420D01*
X0137690Y0124395D01*
X0138005Y0124362D01*
X0138319Y0124322D01*
X0138632Y0124273D01*
X0138944Y0124217D01*
X0139254Y0124154D01*
X0139562Y0124083D01*
X0139869Y0124004D01*
X0140174Y0123918D01*
X0140476Y0123824D01*
X0140777Y0123723D01*
X0141074Y0123615D01*
X0141369Y0123500D01*
X0141661Y0123377D01*
X0141950Y0123247D01*
X0142235Y0123111D01*
X0142518Y0122967D01*
X0142796Y0122816D01*
X0143071Y0122659D01*
X0143342Y0122495D01*
X0143609Y0122324D01*
X0143871Y0122147D01*
X0144129Y0121964D01*
X0144383Y0121774D01*
X0144632Y0121579D01*
X0144876Y0121377D01*
X0145115Y0121169D01*
X0145349Y0120955D01*
X0145577Y0120736D01*
X0145800Y0120511D01*
X0146018Y0120281D01*
X0146230Y0120046D01*
X0146436Y0119806D01*
X0146636Y0119560D01*
X0146830Y0119310D01*
X0146755Y0119254D01*
X0146562Y0119502D01*
X0146363Y0119746D01*
X0146159Y0119984D01*
X0145949Y0120218D01*
X0145733Y0120446D01*
X0145511Y0120669D01*
X0145284Y0120887D01*
X0145052Y0121099D01*
X0144815Y0121305D01*
X0144573Y0121506D01*
X0144325Y0121700D01*
X0144074Y0121888D01*
X0143817Y0122070D01*
X0143557Y0122246D01*
X0143292Y0122415D01*
X0143023Y0122578D01*
X0142750Y0122734D01*
X0142474Y0122884D01*
X0142194Y0123026D01*
X0141910Y0123162D01*
X0141623Y0123291D01*
X0141333Y0123413D01*
X0141041Y0123527D01*
X0140745Y0123635D01*
X0140447Y0123735D01*
X0140147Y0123828D01*
X0139844Y0123913D01*
X0139540Y0123991D01*
X0139234Y0124062D01*
X0138926Y0124125D01*
X0138616Y0124181D01*
X0138306Y0124229D01*
X0137994Y0124269D01*
X0137681Y0124302D01*
X0137368Y0124327D01*
X0137054Y0124344D01*
X0136740Y0124354D01*
X0136425Y0124356D01*
X0136111Y0124350D01*
X0135797Y0124337D01*
X0135483Y0124316D01*
X0135170Y0124287D01*
X0134858Y0124251D01*
X0134547Y0124207D01*
X0134237Y0124155D01*
X0133928Y0124096D01*
X0133621Y0124029D01*
X0133315Y0123955D01*
X0133012Y0123874D01*
X0132710Y0123785D01*
X0132411Y0123688D01*
X0132114Y0123585D01*
X0131820Y0123474D01*
X0131529Y0123356D01*
X0131240Y0123231D01*
X0130955Y0123099D01*
X0130673Y0122960D01*
X0130395Y0122814D01*
X0130120Y0122661D01*
X0129849Y0122502D01*
X0129582Y0122336D01*
X0129319Y0122163D01*
X0129060Y0121985D01*
X0128806Y0121800D01*
X0128557Y0121608D01*
X0128312Y0121411D01*
X0128072Y0121208D01*
X0127837Y0120999D01*
X0127607Y0120784D01*
X0127383Y0120564D01*
X0127164Y0120339D01*
X0126951Y0120108D01*
X0126743Y0119872D01*
X0126541Y0119630D01*
X0126346Y0119385D01*
X0126156Y0119134D01*
X0125972Y0118879D01*
X0125795Y0118619D01*
X0125624Y0118355D01*
X0125460Y0118087D01*
X0125302Y0117815D01*
X0125151Y0117540D01*
X0125007Y0117260D01*
X0124869Y0116978D01*
X0124739Y0116692D01*
X0124615Y0116403D01*
X0124499Y0116110D01*
X0124390Y0115816D01*
X0124288Y0115518D01*
X0124194Y0115219D01*
X0124106Y0114916D01*
X0124026Y0114612D01*
X0123954Y0114307D01*
X0123889Y0113999D01*
X0123832Y0113690D01*
X0123782Y0113379D01*
X0123740Y0113068D01*
X0123705Y0112755D01*
X0123679Y0112442D01*
X0123659Y0112128D01*
X0123648Y0111814D01*
X0123644Y0111500D01*
X0123648Y0111186D01*
X0123659Y0110872D01*
X0123679Y0110558D01*
X0123705Y0110245D01*
X0123740Y0109932D01*
X0123782Y0109621D01*
X0123832Y0109310D01*
X0123889Y0109001D01*
X0123954Y0108693D01*
X0124026Y0108388D01*
X0124106Y0108084D01*
X0124194Y0107781D01*
X0124288Y0107482D01*
X0124390Y0107184D01*
X0124499Y0106890D01*
X0124615Y0106597D01*
X0124739Y0106308D01*
X0124869Y0106022D01*
X0125007Y0105740D01*
X0125151Y0105460D01*
X0125302Y0105185D01*
X0125460Y0104913D01*
X0125624Y0104645D01*
X0125795Y0104381D01*
X0125972Y0104121D01*
X0126156Y0103866D01*
X0126346Y0103615D01*
X0126541Y0103370D01*
X0126743Y0103128D01*
X0126951Y0102892D01*
X0127164Y0102661D01*
X0127383Y0102436D01*
X0127607Y0102216D01*
X0127837Y0102001D01*
X0128072Y0101792D01*
X0128312Y0101589D01*
X0128557Y0101392D01*
X0128806Y0101200D01*
X0129060Y0101015D01*
X0129319Y0100837D01*
X0129582Y0100664D01*
X0129849Y0100498D01*
X0130120Y0100339D01*
X0130395Y0100186D01*
X0130673Y0100040D01*
X0130955Y0099901D01*
X0131240Y0099769D01*
X0131529Y0099644D01*
X0131820Y0099526D01*
X0132114Y0099415D01*
X0132411Y0099312D01*
X0132710Y0099215D01*
X0133012Y0099126D01*
X0133315Y0099045D01*
X0133621Y0098971D01*
X0133928Y0098904D01*
X0134237Y0098845D01*
X0134547Y0098793D01*
X0134858Y0098749D01*
X0135170Y0098713D01*
X0135483Y0098684D01*
X0135797Y0098663D01*
X0136111Y0098650D01*
X0136425Y0098644D01*
X0136740Y0098646D01*
X0137054Y0098656D01*
X0137368Y0098673D01*
X0137681Y0098698D01*
X0137994Y0098731D01*
X0138306Y0098771D01*
X0138616Y0098819D01*
X0138926Y0098875D01*
X0139234Y0098938D01*
X0139540Y0099009D01*
X0139844Y0099087D01*
X0140147Y0099172D01*
X0140447Y0099265D01*
X0140745Y0099365D01*
X0141041Y0099473D01*
X0141333Y0099587D01*
X0141623Y0099709D01*
X0141910Y0099838D01*
X0142194Y0099974D01*
X0142474Y0100116D01*
X0142750Y0100266D01*
X0143023Y0100422D01*
X0143292Y0100585D01*
X0143557Y0100754D01*
X0143817Y0100930D01*
X0144074Y0101112D01*
X0144325Y0101300D01*
X0144573Y0101494D01*
X0144815Y0101695D01*
X0145052Y0101901D01*
X0145284Y0102113D01*
X0145511Y0102331D01*
X0145733Y0102554D01*
X0145949Y0102782D01*
X0146159Y0103016D01*
X0146363Y0103254D01*
X0146562Y0103498D01*
X0146755Y0103746D01*
X0146680Y0103803D01*
X0146488Y0103556D01*
X0146291Y0103314D01*
X0146088Y0103077D01*
X0145879Y0102846D01*
X0145665Y0102619D01*
X0145445Y0102397D01*
X0145220Y0102181D01*
X0144989Y0101971D01*
X0144754Y0101766D01*
X0144513Y0101567D01*
X0144268Y0101374D01*
X0144018Y0101188D01*
X0143764Y0101007D01*
X0143505Y0100832D01*
X0143242Y0100664D01*
X0142975Y0100503D01*
X0142704Y0100348D01*
X0142430Y0100199D01*
X0142152Y0100058D01*
X0141870Y0099923D01*
X0141586Y0099795D01*
X0141298Y0099674D01*
X0141007Y0099560D01*
X0140714Y0099454D01*
X0140418Y0099354D01*
X0140120Y0099262D01*
X0139820Y0099177D01*
X0139517Y0099100D01*
X0139213Y0099030D01*
X0138908Y0098967D01*
X0138601Y0098912D01*
X0138292Y0098864D01*
X0137983Y0098824D01*
X0137672Y0098792D01*
X0137361Y0098767D01*
X0137050Y0098750D01*
X0136738Y0098740D01*
X0136426Y0098738D01*
X0136114Y0098744D01*
X0135802Y0098757D01*
X0135491Y0098778D01*
X0135180Y0098806D01*
X0134870Y0098843D01*
X0134561Y0098886D01*
X0134253Y0098937D01*
X0133946Y0098996D01*
X0133642Y0099062D01*
X0133338Y0099136D01*
X0133037Y0099217D01*
X0132738Y0099305D01*
X0132441Y0099401D01*
X0132146Y0099504D01*
X0131854Y0099614D01*
X0131565Y0099731D01*
X0131278Y0099855D01*
X0130995Y0099986D01*
X0130715Y0100124D01*
X0130439Y0100269D01*
X0130166Y0100421D01*
X0129897Y0100579D01*
X0129632Y0100744D01*
X0129371Y0100915D01*
X0129115Y0101092D01*
X0128862Y0101276D01*
X0128615Y0101466D01*
X0128372Y0101661D01*
X0128133Y0101863D01*
X0127900Y0102071D01*
X0127672Y0102284D01*
X0127450Y0102502D01*
X0127232Y0102726D01*
X0127021Y0102955D01*
X0126815Y0103190D01*
X0126614Y0103429D01*
X0126420Y0103673D01*
X0126232Y0103922D01*
X0126049Y0104175D01*
X0125873Y0104433D01*
X0125704Y0104695D01*
X0125541Y0104961D01*
X0125384Y0105231D01*
X0125234Y0105505D01*
X0125091Y0105782D01*
X0124954Y0106062D01*
X0124825Y0106346D01*
X0124702Y0106633D01*
X0124587Y0106923D01*
X0124479Y0107216D01*
X0124377Y0107511D01*
X0124283Y0107809D01*
X0124197Y0108109D01*
X0124118Y0108410D01*
X0124046Y0108714D01*
X0123981Y0109019D01*
X0123924Y0109326D01*
X0123875Y0109634D01*
X0123833Y0109944D01*
X0123799Y0110254D01*
X0123772Y0110565D01*
X0123753Y0110876D01*
X0123742Y0111188D01*
X0123738Y0111500D01*
X0123742Y0111812D01*
X0123753Y0112124D01*
X0123772Y0112435D01*
X0123799Y0112746D01*
X0123833Y0113056D01*
X0123875Y0113366D01*
X0123924Y0113674D01*
X0123981Y0113981D01*
X0124046Y0114286D01*
X0124118Y0114590D01*
X0124197Y0114891D01*
X0124283Y0115191D01*
X0124377Y0115489D01*
X0124479Y0115784D01*
X0124587Y0116077D01*
X0124702Y0116367D01*
X0124825Y0116654D01*
X0124954Y0116938D01*
X0125091Y0117218D01*
X0125234Y0117495D01*
X0125384Y0117769D01*
X0125541Y0118039D01*
X0125704Y0118305D01*
X0125873Y0118567D01*
X0126049Y0118825D01*
X0126232Y0119078D01*
X0126420Y0119327D01*
X0126614Y0119571D01*
X0126815Y0119810D01*
X0127021Y0120045D01*
X0127232Y0120274D01*
X0127450Y0120498D01*
X0127672Y0120716D01*
X0127900Y0120929D01*
X0128133Y0121137D01*
X0128372Y0121339D01*
X0128615Y0121534D01*
X0128862Y0121724D01*
X0129115Y0121908D01*
X0129371Y0122085D01*
X0129632Y0122256D01*
X0129897Y0122421D01*
X0130166Y0122579D01*
X0130439Y0122731D01*
X0130715Y0122876D01*
X0130995Y0123014D01*
X0131278Y0123145D01*
X0131565Y0123269D01*
X0131854Y0123386D01*
X0132146Y0123496D01*
X0132441Y0123599D01*
X0132738Y0123695D01*
X0133037Y0123783D01*
X0133338Y0123864D01*
X0133642Y0123938D01*
X0133946Y0124004D01*
X0134253Y0124063D01*
X0134561Y0124114D01*
X0134870Y0124157D01*
X0135180Y0124194D01*
X0135491Y0124222D01*
X0135802Y0124243D01*
X0136114Y0124256D01*
X0136426Y0124262D01*
X0136738Y0124260D01*
X0137050Y0124250D01*
X0137361Y0124233D01*
X0137672Y0124208D01*
X0137983Y0124176D01*
X0138292Y0124136D01*
X0138601Y0124088D01*
X0138908Y0124033D01*
X0139213Y0123970D01*
X0139517Y0123900D01*
X0139820Y0123823D01*
X0140120Y0123738D01*
X0140418Y0123646D01*
X0140714Y0123546D01*
X0141007Y0123440D01*
X0141298Y0123326D01*
X0141586Y0123205D01*
X0141870Y0123077D01*
X0142152Y0122942D01*
X0142430Y0122801D01*
X0142704Y0122652D01*
X0142975Y0122497D01*
X0143242Y0122336D01*
X0143505Y0122168D01*
X0143764Y0121993D01*
X0144018Y0121812D01*
X0144268Y0121626D01*
X0144513Y0121433D01*
X0144754Y0121234D01*
X0144989Y0121029D01*
X0145220Y0120819D01*
X0145445Y0120603D01*
X0145665Y0120381D01*
X0145879Y0120154D01*
X0146088Y0119923D01*
X0146291Y0119686D01*
X0146488Y0119444D01*
X0146680Y0119197D01*
X0146604Y0119141D01*
X0146414Y0119386D01*
X0146219Y0119626D01*
X0146017Y0119861D01*
X0145810Y0120091D01*
X0145597Y0120316D01*
X0145379Y0120536D01*
X0145155Y0120750D01*
X0144926Y0120959D01*
X0144693Y0121162D01*
X0144454Y0121360D01*
X0144211Y0121551D01*
X0143962Y0121737D01*
X0143710Y0121916D01*
X0143453Y0122089D01*
X0143192Y0122256D01*
X0142927Y0122417D01*
X0142658Y0122570D01*
X0142386Y0122718D01*
X0142110Y0122858D01*
X0141830Y0122992D01*
X0141548Y0123119D01*
X0141262Y0123239D01*
X0140974Y0123352D01*
X0140683Y0123458D01*
X0140389Y0123556D01*
X0140093Y0123648D01*
X0139795Y0123732D01*
X0139495Y0123809D01*
X0139193Y0123878D01*
X0138890Y0123941D01*
X0138585Y0123995D01*
X0138279Y0124043D01*
X0137971Y0124082D01*
X0137663Y0124114D01*
X0137355Y0124139D01*
X0137045Y0124156D01*
X0136736Y0124166D01*
X0136426Y0124168D01*
X0136116Y0124162D01*
X0135807Y0124149D01*
X0135498Y0124128D01*
X0135189Y0124100D01*
X0134882Y0124064D01*
X0134575Y0124021D01*
X0134269Y0123970D01*
X0133965Y0123912D01*
X0133662Y0123846D01*
X0133361Y0123773D01*
X0133062Y0123693D01*
X0132765Y0123605D01*
X0132470Y0123510D01*
X0132178Y0123408D01*
X0131888Y0123299D01*
X0131601Y0123182D01*
X0131317Y0123059D01*
X0131036Y0122929D01*
X0130758Y0122792D01*
X0130484Y0122648D01*
X0130213Y0122498D01*
X0129946Y0122341D01*
X0129683Y0122177D01*
X0129424Y0122007D01*
X0129169Y0121831D01*
X0128918Y0121649D01*
X0128673Y0121460D01*
X0128431Y0121266D01*
X0128195Y0121066D01*
X0127964Y0120860D01*
X0127737Y0120648D01*
X0127516Y0120431D01*
X0127301Y0120209D01*
X0127090Y0119982D01*
X0126886Y0119749D01*
X0126687Y0119511D01*
X0126494Y0119269D01*
X0126307Y0119022D01*
X0126126Y0118771D01*
X0125952Y0118515D01*
X0125783Y0118255D01*
X0125621Y0117991D01*
X0125466Y0117723D01*
X0125317Y0117451D01*
X0125175Y0117176D01*
X0125039Y0116897D01*
X0124911Y0116616D01*
X0124789Y0116331D01*
X0124675Y0116043D01*
X0124567Y0115752D01*
X0124467Y0115459D01*
X0124373Y0115164D01*
X0124287Y0114866D01*
X0124209Y0114567D01*
X0124138Y0114265D01*
X0124074Y0113962D01*
X0124017Y0113658D01*
X0123968Y0113352D01*
X0123927Y0113045D01*
X0123893Y0112737D01*
X0123866Y0112428D01*
X0123847Y0112119D01*
X0123836Y0111810D01*
X0123832Y0111500D01*
X0123836Y0111190D01*
X0123847Y0110881D01*
X0123866Y0110572D01*
X0123893Y0110263D01*
X0123927Y0109955D01*
X0123968Y0109648D01*
X0124017Y0109342D01*
X0124074Y0109038D01*
X0124138Y0108735D01*
X0124209Y0108433D01*
X0124287Y0108134D01*
X0124373Y0107836D01*
X0124467Y0107541D01*
X0124567Y0107248D01*
X0124675Y0106957D01*
X0124789Y0106669D01*
X0124911Y0106384D01*
X0125039Y0106103D01*
X0125175Y0105824D01*
X0125317Y0105549D01*
X0125466Y0105277D01*
X0125621Y0105009D01*
X0125783Y0104745D01*
X0125952Y0104485D01*
X0126126Y0104229D01*
X0126307Y0103978D01*
X0126494Y0103731D01*
X0126687Y0103489D01*
X0126886Y0103251D01*
X0127090Y0103018D01*
X0127301Y0102791D01*
X0127516Y0102569D01*
X0127737Y0102352D01*
X0127964Y0102140D01*
X0128195Y0101934D01*
X0128431Y0101734D01*
X0128673Y0101540D01*
X0128918Y0101351D01*
X0129169Y0101169D01*
X0129424Y0100993D01*
X0129683Y0100823D01*
X0129946Y0100659D01*
X0130213Y0100502D01*
X0130484Y0100352D01*
X0130758Y0100208D01*
X0131036Y0100071D01*
X0131317Y0099941D01*
X0131601Y0099818D01*
X0131888Y0099701D01*
X0132178Y0099592D01*
X0132470Y0099490D01*
X0132765Y0099395D01*
X0133062Y0099307D01*
X0133361Y0099227D01*
X0133662Y0099154D01*
X0133965Y0099088D01*
X0134269Y0099030D01*
X0134575Y0098979D01*
X0134882Y0098936D01*
X0135189Y0098900D01*
X0135498Y0098872D01*
X0135807Y0098851D01*
X0136116Y0098838D01*
X0136426Y0098832D01*
X0136736Y0098834D01*
X0137045Y0098844D01*
X0137355Y0098861D01*
X0137663Y0098886D01*
X0137971Y0098918D01*
X0138279Y0098957D01*
X0138585Y0099005D01*
X0138890Y0099059D01*
X0139193Y0099122D01*
X0139495Y0099191D01*
X0139795Y0099268D01*
X0140093Y0099352D01*
X0140389Y0099444D01*
X0140683Y0099542D01*
X0140974Y0099648D01*
X0141262Y0099761D01*
X0141548Y0099881D01*
X0141830Y0100008D01*
X0142110Y0100142D01*
X0142386Y0100282D01*
X0142658Y0100430D01*
X0142927Y0100583D01*
X0143192Y0100744D01*
X0143453Y0100911D01*
X0143710Y0101084D01*
X0143962Y0101263D01*
X0144211Y0101449D01*
X0144454Y0101640D01*
X0144693Y0101838D01*
X0144926Y0102041D01*
X0145155Y0102250D01*
X0145379Y0102464D01*
X0145597Y0102684D01*
X0145810Y0102909D01*
X0146017Y0103139D01*
X0146219Y0103374D01*
X0146414Y0103614D01*
X0146604Y0103859D01*
X0146529Y0103916D01*
X0146341Y0103673D01*
X0146146Y0103434D01*
X0145946Y0103201D01*
X0145741Y0102973D01*
X0145529Y0102749D01*
X0145313Y0102531D01*
X0145091Y0102318D01*
X0144864Y0102111D01*
X0144632Y0101909D01*
X0144395Y0101713D01*
X0144153Y0101523D01*
X0143907Y0101339D01*
X0143656Y0101161D01*
X0143401Y0100989D01*
X0143142Y0100824D01*
X0142879Y0100664D01*
X0142612Y0100512D01*
X0142342Y0100365D01*
X0142068Y0100226D01*
X0141791Y0100093D01*
X0141510Y0099967D01*
X0141227Y0099848D01*
X0140940Y0099736D01*
X0140651Y0099631D01*
X0140360Y0099533D01*
X0140066Y0099442D01*
X0139770Y0099359D01*
X0139473Y0099282D01*
X0139173Y0099213D01*
X0138872Y0099152D01*
X0138569Y0099097D01*
X0138265Y0099051D01*
X0137960Y0099011D01*
X0137655Y0098979D01*
X0137348Y0098955D01*
X0137041Y0098938D01*
X0136734Y0098928D01*
X0136426Y0098926D01*
X0136119Y0098932D01*
X0135812Y0098945D01*
X0135505Y0098965D01*
X0135199Y0098994D01*
X0134893Y0099029D01*
X0134589Y0099072D01*
X0134286Y0099123D01*
X0133984Y0099180D01*
X0133683Y0099246D01*
X0133384Y0099318D01*
X0133088Y0099398D01*
X0132793Y0099485D01*
X0132500Y0099579D01*
X0132210Y0099681D01*
X0131922Y0099789D01*
X0131637Y0099904D01*
X0131355Y0100027D01*
X0131076Y0100156D01*
X0130800Y0100292D01*
X0130528Y0100435D01*
X0130259Y0100584D01*
X0129994Y0100740D01*
X0129733Y0100902D01*
X0129476Y0101071D01*
X0129223Y0101246D01*
X0128975Y0101427D01*
X0128731Y0101614D01*
X0128491Y0101807D01*
X0128257Y0102005D01*
X0128027Y0102210D01*
X0127802Y0102420D01*
X0127583Y0102635D01*
X0127369Y0102856D01*
X0127160Y0103081D01*
X0126957Y0103312D01*
X0126760Y0103548D01*
X0126568Y0103789D01*
X0126383Y0104034D01*
X0126203Y0104283D01*
X0126030Y0104537D01*
X0125863Y0104795D01*
X0125702Y0105057D01*
X0125548Y0105323D01*
X0125400Y0105593D01*
X0125259Y0105866D01*
X0125124Y0106143D01*
X0124997Y0106422D01*
X0124876Y0106705D01*
X0124762Y0106991D01*
X0124656Y0107279D01*
X0124556Y0107570D01*
X0124463Y0107863D01*
X0124378Y0108159D01*
X0124300Y0108456D01*
X0124229Y0108755D01*
X0124166Y0109056D01*
X0124110Y0109358D01*
X0124061Y0109662D01*
X0124020Y0109967D01*
X0123986Y0110272D01*
X0123960Y0110578D01*
X0123941Y0110885D01*
X0123930Y0111193D01*
X0123926Y0111500D01*
X0123930Y0111807D01*
X0123941Y0112115D01*
X0123960Y0112422D01*
X0123986Y0112728D01*
X0124020Y0113033D01*
X0124061Y0113338D01*
X0124110Y0113642D01*
X0124166Y0113944D01*
X0124229Y0114245D01*
X0124300Y0114544D01*
X0124378Y0114841D01*
X0124463Y0115137D01*
X0124556Y0115430D01*
X0124656Y0115721D01*
X0124762Y0116009D01*
X0124876Y0116295D01*
X0124997Y0116578D01*
X0125124Y0116857D01*
X0125259Y0117134D01*
X0125400Y0117407D01*
X0125548Y0117677D01*
X0125702Y0117943D01*
X0125863Y0118205D01*
X0126030Y0118463D01*
X0126203Y0118717D01*
X0126383Y0118966D01*
X0126568Y0119211D01*
X0126760Y0119452D01*
X0126957Y0119688D01*
X0127160Y0119919D01*
X0127369Y0120144D01*
X0127583Y0120365D01*
X0127802Y0120580D01*
X0128027Y0120790D01*
X0128257Y0120995D01*
X0128491Y0121193D01*
X0128731Y0121386D01*
X0128975Y0121573D01*
X0129223Y0121754D01*
X0129476Y0121929D01*
X0129733Y0122098D01*
X0129994Y0122260D01*
X0130259Y0122416D01*
X0130528Y0122565D01*
X0130800Y0122708D01*
X0131076Y0122844D01*
X0131355Y0122973D01*
X0131637Y0123096D01*
X0131922Y0123211D01*
X0132210Y0123319D01*
X0132500Y0123421D01*
X0132793Y0123515D01*
X0133088Y0123602D01*
X0133384Y0123682D01*
X0133683Y0123754D01*
X0133984Y0123820D01*
X0134286Y0123877D01*
X0134589Y0123928D01*
X0134893Y0123971D01*
X0135199Y0124006D01*
X0135505Y0124035D01*
X0135812Y0124055D01*
X0136119Y0124068D01*
X0136426Y0124074D01*
X0136734Y0124072D01*
X0137041Y0124062D01*
X0137348Y0124045D01*
X0137655Y0124021D01*
X0137960Y0123989D01*
X0138265Y0123949D01*
X0138569Y0123903D01*
X0138872Y0123848D01*
X0139173Y0123787D01*
X0139473Y0123718D01*
X0139770Y0123641D01*
X0140066Y0123558D01*
X0140360Y0123467D01*
X0140651Y0123369D01*
X0140940Y0123264D01*
X0141227Y0123152D01*
X0141510Y0123033D01*
X0141791Y0122907D01*
X0142068Y0122774D01*
X0142342Y0122635D01*
X0142612Y0122488D01*
X0142879Y0122336D01*
X0143142Y0122176D01*
X0143401Y0122011D01*
X0143656Y0121839D01*
X0143907Y0121661D01*
X0144153Y0121477D01*
X0144395Y0121287D01*
X0144632Y0121091D01*
X0144864Y0120889D01*
X0145091Y0120682D01*
X0145313Y0120469D01*
X0145529Y0120251D01*
X0145741Y0120027D01*
X0145946Y0119799D01*
X0146146Y0119566D01*
X0146341Y0119327D01*
X0146529Y0119084D01*
X0146454Y0119028D01*
X0146267Y0119269D01*
X0146074Y0119506D01*
X0145875Y0119737D01*
X0145671Y0119964D01*
X0145462Y0120186D01*
X0145247Y0120402D01*
X0145026Y0120613D01*
X0144801Y0120819D01*
X0144571Y0121019D01*
X0144335Y0121214D01*
X0144096Y0121402D01*
X0143851Y0121585D01*
X0143602Y0121762D01*
X0143349Y0121932D01*
X0143092Y0122097D01*
X0142831Y0122255D01*
X0142566Y0122406D01*
X0142298Y0122551D01*
X0142026Y0122690D01*
X0141751Y0122822D01*
X0141472Y0122947D01*
X0141191Y0123065D01*
X0140907Y0123176D01*
X0140620Y0123280D01*
X0140331Y0123378D01*
X0140039Y0123468D01*
X0139746Y0123551D01*
X0139450Y0123626D01*
X0139153Y0123695D01*
X0138854Y0123756D01*
X0138553Y0123810D01*
X0138252Y0123856D01*
X0137949Y0123896D01*
X0137646Y0123927D01*
X0137341Y0123952D01*
X0137037Y0123968D01*
X0136732Y0123978D01*
X0136427Y0123980D01*
X0136122Y0123974D01*
X0135817Y0123961D01*
X0135512Y0123941D01*
X0135208Y0123913D01*
X0134905Y0123878D01*
X0134603Y0123835D01*
X0134302Y0123785D01*
X0134002Y0123728D01*
X0133704Y0123663D01*
X0133408Y0123591D01*
X0133113Y0123512D01*
X0132820Y0123425D01*
X0132530Y0123332D01*
X0132242Y0123231D01*
X0131956Y0123123D01*
X0131673Y0123009D01*
X0131393Y0122887D01*
X0131116Y0122759D01*
X0130843Y0122624D01*
X0130573Y0122483D01*
X0130306Y0122334D01*
X0130043Y0122180D01*
X0129784Y0122019D01*
X0129528Y0121851D01*
X0129277Y0121678D01*
X0129031Y0121498D01*
X0128789Y0121312D01*
X0128551Y0121121D01*
X0128318Y0120924D01*
X0128090Y0120721D01*
X0127867Y0120512D01*
X0127649Y0120299D01*
X0127437Y0120080D01*
X0127230Y0119856D01*
X0127028Y0119626D01*
X0126832Y0119392D01*
X0126642Y0119154D01*
X0126458Y0118910D01*
X0126280Y0118663D01*
X0126108Y0118411D01*
X0125942Y0118154D01*
X0125783Y0117894D01*
X0125629Y0117630D01*
X0125483Y0117363D01*
X0125343Y0117092D01*
X0125209Y0116817D01*
X0125083Y0116540D01*
X0124963Y0116259D01*
X0124850Y0115975D01*
X0124744Y0115689D01*
X0124645Y0115401D01*
X0124553Y0115110D01*
X0124469Y0114816D01*
X0124391Y0114521D01*
X0124321Y0114224D01*
X0124258Y0113926D01*
X0124202Y0113626D01*
X0124154Y0113324D01*
X0124113Y0113022D01*
X0124080Y0112719D01*
X0124054Y0112415D01*
X0124035Y0112110D01*
X0124024Y0111805D01*
X0124020Y0111500D01*
X0124024Y0111195D01*
X0124035Y0110890D01*
X0124054Y0110585D01*
X0124080Y0110281D01*
X0124113Y0109978D01*
X0124154Y0109676D01*
X0124202Y0109374D01*
X0124258Y0109074D01*
X0124321Y0108776D01*
X0124391Y0108479D01*
X0124469Y0108184D01*
X0124553Y0107890D01*
X0124645Y0107599D01*
X0124744Y0107311D01*
X0124850Y0107025D01*
X0124963Y0106741D01*
X0125083Y0106460D01*
X0125209Y0106183D01*
X0125343Y0105908D01*
X0125483Y0105637D01*
X0125629Y0105370D01*
X0125783Y0105106D01*
X0125942Y0104846D01*
X0126108Y0104589D01*
X0126280Y0104337D01*
X0126458Y0104090D01*
X0126642Y0103846D01*
X0126832Y0103608D01*
X0127028Y0103374D01*
X0127230Y0103144D01*
X0127437Y0102920D01*
X0127649Y0102701D01*
X0127867Y0102488D01*
X0128090Y0102279D01*
X0128318Y0102076D01*
X0128551Y0101879D01*
X0128789Y0101688D01*
X0129031Y0101502D01*
X0129277Y0101322D01*
X0129528Y0101149D01*
X0129784Y0100981D01*
X0130043Y0100820D01*
X0130306Y0100666D01*
X0130573Y0100517D01*
X0130843Y0100376D01*
X0131116Y0100241D01*
X0131393Y0100113D01*
X0131673Y0099991D01*
X0131956Y0099877D01*
X0132242Y0099769D01*
X0132530Y0099668D01*
X0132820Y0099575D01*
X0133113Y0099488D01*
X0133408Y0099409D01*
X0133704Y0099337D01*
X0134002Y0099272D01*
X0134302Y0099215D01*
X0134603Y0099165D01*
X0134905Y0099122D01*
X0135208Y0099087D01*
X0135512Y0099059D01*
X0135817Y0099039D01*
X0136122Y0099026D01*
X0136427Y0099020D01*
X0136732Y0099022D01*
X0137037Y0099032D01*
X0137341Y0099048D01*
X0137646Y0099073D01*
X0137949Y0099104D01*
X0138252Y0099144D01*
X0138553Y0099190D01*
X0138854Y0099244D01*
X0139153Y0099305D01*
X0139450Y0099374D01*
X0139746Y0099449D01*
X0140039Y0099532D01*
X0140331Y0099622D01*
X0140620Y0099720D01*
X0140907Y0099824D01*
X0141191Y0099935D01*
X0141472Y0100053D01*
X0141751Y0100178D01*
X0142026Y0100310D01*
X0142298Y0100449D01*
X0142566Y0100594D01*
X0142831Y0100745D01*
X0143092Y0100903D01*
X0143349Y0101068D01*
X0143602Y0101238D01*
X0143851Y0101415D01*
X0144096Y0101598D01*
X0144335Y0101786D01*
X0144571Y0101981D01*
X0144801Y0102181D01*
X0145026Y0102387D01*
X0145247Y0102598D01*
X0145462Y0102814D01*
X0145671Y0103036D01*
X0145875Y0103263D01*
X0146074Y0103494D01*
X0146267Y0103731D01*
X0146454Y0103972D01*
X0146379Y0104028D01*
X0146193Y0103789D01*
X0146002Y0103554D01*
X0145805Y0103325D01*
X0145602Y0103100D01*
X0145394Y0102879D01*
X0145180Y0102665D01*
X0144962Y0102455D01*
X0144738Y0102251D01*
X0144510Y0102052D01*
X0144276Y0101859D01*
X0144038Y0101672D01*
X0143796Y0101491D01*
X0143549Y0101315D01*
X0143298Y0101146D01*
X0143042Y0100983D01*
X0142783Y0100826D01*
X0142520Y0100676D01*
X0142254Y0100532D01*
X0141984Y0100394D01*
X0141711Y0100263D01*
X0141435Y0100139D01*
X0141155Y0100022D01*
X0140873Y0099912D01*
X0140589Y0099808D01*
X0140302Y0099712D01*
X0140012Y0099622D01*
X0139721Y0099540D01*
X0139428Y0099465D01*
X0139132Y0099397D01*
X0138836Y0099336D01*
X0138538Y0099283D01*
X0138238Y0099237D01*
X0137938Y0099198D01*
X0137637Y0099166D01*
X0137335Y0099142D01*
X0137032Y0099125D01*
X0136730Y0099116D01*
X0136427Y0099114D01*
X0136124Y0099120D01*
X0135822Y0099133D01*
X0135519Y0099153D01*
X0135218Y0099181D01*
X0134917Y0099216D01*
X0134617Y0099258D01*
X0134318Y0099308D01*
X0134021Y0099365D01*
X0133725Y0099429D01*
X0133431Y0099500D01*
X0133138Y0099579D01*
X0132848Y0099665D01*
X0132559Y0099758D01*
X0132274Y0099857D01*
X0131990Y0099964D01*
X0131710Y0100078D01*
X0131432Y0100198D01*
X0131157Y0100326D01*
X0130885Y0100460D01*
X0130617Y0100600D01*
X0130352Y0100747D01*
X0130091Y0100901D01*
X0129834Y0101061D01*
X0129581Y0101227D01*
X0129332Y0101399D01*
X0129087Y0101577D01*
X0128846Y0101762D01*
X0128611Y0101952D01*
X0128380Y0102147D01*
X0128153Y0102349D01*
X0127932Y0102555D01*
X0127716Y0102768D01*
X0127505Y0102985D01*
X0127300Y0103207D01*
X0127100Y0103435D01*
X0126905Y0103667D01*
X0126717Y0103904D01*
X0126534Y0104146D01*
X0126357Y0104391D01*
X0126186Y0104642D01*
X0126022Y0104896D01*
X0125863Y0105154D01*
X0125711Y0105416D01*
X0125566Y0105681D01*
X0125427Y0105950D01*
X0125294Y0106223D01*
X0125169Y0106498D01*
X0125050Y0106777D01*
X0124938Y0107058D01*
X0124833Y0107342D01*
X0124734Y0107629D01*
X0124643Y0107918D01*
X0124559Y0108209D01*
X0124482Y0108502D01*
X0124413Y0108796D01*
X0124350Y0109093D01*
X0124295Y0109390D01*
X0124247Y0109689D01*
X0124206Y0109989D01*
X0124173Y0110291D01*
X0124147Y0110592D01*
X0124129Y0110895D01*
X0124118Y0111197D01*
X0124114Y0111500D01*
X0124118Y0111803D01*
X0124129Y0112105D01*
X0124147Y0112408D01*
X0124173Y0112709D01*
X0124206Y0113011D01*
X0124247Y0113311D01*
X0124295Y0113610D01*
X0124350Y0113907D01*
X0124413Y0114204D01*
X0124482Y0114498D01*
X0124559Y0114791D01*
X0124643Y0115082D01*
X0124734Y0115371D01*
X0124833Y0115658D01*
X0124938Y0115942D01*
X0125050Y0116223D01*
X0125169Y0116502D01*
X0125294Y0116777D01*
X0125427Y0117050D01*
X0125566Y0117319D01*
X0125711Y0117584D01*
X0125863Y0117846D01*
X0126022Y0118104D01*
X0126186Y0118358D01*
X0126357Y0118609D01*
X0126534Y0118854D01*
X0126717Y0119096D01*
X0126905Y0119333D01*
X0127100Y0119565D01*
X0127300Y0119793D01*
X0127505Y0120015D01*
X0127716Y0120232D01*
X0127932Y0120445D01*
X0128153Y0120651D01*
X0128380Y0120853D01*
X0128611Y0121048D01*
X0128846Y0121238D01*
X0129087Y0121423D01*
X0129332Y0121601D01*
X0129581Y0121773D01*
X0129834Y0121939D01*
X0130091Y0122099D01*
X0130352Y0122253D01*
X0130617Y0122400D01*
X0130885Y0122540D01*
X0131157Y0122674D01*
X0131432Y0122802D01*
X0131710Y0122922D01*
X0131990Y0123036D01*
X0132274Y0123143D01*
X0132559Y0123242D01*
X0132848Y0123335D01*
X0133138Y0123421D01*
X0133431Y0123500D01*
X0133725Y0123571D01*
X0134021Y0123635D01*
X0134318Y0123692D01*
X0134617Y0123742D01*
X0134917Y0123784D01*
X0135218Y0123819D01*
X0135519Y0123847D01*
X0135822Y0123867D01*
X0136124Y0123880D01*
X0136427Y0123886D01*
X0136730Y0123884D01*
X0137032Y0123875D01*
X0137335Y0123858D01*
X0137637Y0123834D01*
X0137938Y0123802D01*
X0138238Y0123763D01*
X0138538Y0123717D01*
X0138836Y0123664D01*
X0139132Y0123603D01*
X0139428Y0123535D01*
X0139721Y0123460D01*
X0140012Y0123378D01*
X0140302Y0123288D01*
X0140589Y0123192D01*
X0140873Y0123088D01*
X0141155Y0122978D01*
X0141435Y0122861D01*
X0141711Y0122737D01*
X0141984Y0122606D01*
X0142254Y0122468D01*
X0142520Y0122324D01*
X0142783Y0122174D01*
X0143042Y0122017D01*
X0143298Y0121854D01*
X0143549Y0121685D01*
X0143796Y0121509D01*
X0144038Y0121328D01*
X0144276Y0121141D01*
X0144510Y0120948D01*
X0144738Y0120749D01*
X0144962Y0120545D01*
X0145180Y0120335D01*
X0145394Y0120121D01*
X0145602Y0119900D01*
X0145805Y0119675D01*
X0146002Y0119446D01*
X0146193Y0119211D01*
X0146379Y0118972D01*
X0146304Y0118915D01*
X0146119Y0119153D01*
X0145929Y0119385D01*
X0145734Y0119614D01*
X0145533Y0119837D01*
X0145326Y0120055D01*
X0145114Y0120269D01*
X0144897Y0120477D01*
X0144675Y0120679D01*
X0144448Y0120876D01*
X0144217Y0121068D01*
X0143981Y0121254D01*
X0143740Y0121434D01*
X0143495Y0121608D01*
X0143246Y0121776D01*
X0142992Y0121938D01*
X0142735Y0122093D01*
X0142474Y0122242D01*
X0142210Y0122385D01*
X0141942Y0122522D01*
X0141671Y0122651D01*
X0141397Y0122774D01*
X0141120Y0122891D01*
X0140840Y0123000D01*
X0140557Y0123103D01*
X0140273Y0123199D01*
X0139985Y0123287D01*
X0139696Y0123369D01*
X0139405Y0123444D01*
X0139112Y0123511D01*
X0138818Y0123572D01*
X0138522Y0123625D01*
X0138225Y0123670D01*
X0137927Y0123709D01*
X0137628Y0123740D01*
X0137328Y0123764D01*
X0137028Y0123781D01*
X0136728Y0123790D01*
X0136427Y0123792D01*
X0136127Y0123786D01*
X0135826Y0123774D01*
X0135527Y0123753D01*
X0135227Y0123726D01*
X0134929Y0123691D01*
X0134631Y0123649D01*
X0134335Y0123600D01*
X0134040Y0123543D01*
X0133746Y0123479D01*
X0133454Y0123409D01*
X0133164Y0123331D01*
X0132875Y0123245D01*
X0132589Y0123153D01*
X0132305Y0123054D01*
X0132024Y0122948D01*
X0131746Y0122835D01*
X0131470Y0122716D01*
X0131197Y0122589D01*
X0130928Y0122456D01*
X0130662Y0122317D01*
X0130399Y0122171D01*
X0130140Y0122019D01*
X0129884Y0121860D01*
X0129633Y0121695D01*
X0129386Y0121524D01*
X0129143Y0121347D01*
X0128904Y0121164D01*
X0128670Y0120976D01*
X0128441Y0120782D01*
X0128217Y0120582D01*
X0127997Y0120377D01*
X0127783Y0120166D01*
X0127573Y0119950D01*
X0127369Y0119730D01*
X0127171Y0119504D01*
X0126978Y0119273D01*
X0126791Y0119038D01*
X0126609Y0118799D01*
X0126434Y0118555D01*
X0126264Y0118306D01*
X0126101Y0118054D01*
X0125944Y0117798D01*
X0125793Y0117538D01*
X0125649Y0117274D01*
X0125511Y0117007D01*
X0125379Y0116737D01*
X0125255Y0116464D01*
X0125137Y0116187D01*
X0125026Y0115908D01*
X0124921Y0115626D01*
X0124824Y0115342D01*
X0124733Y0115055D01*
X0124650Y0114766D01*
X0124574Y0114476D01*
X0124504Y0114183D01*
X0124442Y0113889D01*
X0124388Y0113594D01*
X0124340Y0113297D01*
X0124300Y0112999D01*
X0124267Y0112700D01*
X0124241Y0112401D01*
X0124223Y0112101D01*
X0124212Y0111801D01*
X0124208Y0111500D01*
X0124212Y0111199D01*
X0124223Y0110899D01*
X0124241Y0110599D01*
X0124267Y0110300D01*
X0124300Y0110001D01*
X0124340Y0109703D01*
X0124388Y0109406D01*
X0124442Y0109111D01*
X0124504Y0108817D01*
X0124574Y0108524D01*
X0124650Y0108234D01*
X0124733Y0107945D01*
X0124824Y0107658D01*
X0124921Y0107374D01*
X0125026Y0107092D01*
X0125137Y0106813D01*
X0125255Y0106536D01*
X0125379Y0106263D01*
X0125511Y0105993D01*
X0125649Y0105726D01*
X0125793Y0105462D01*
X0125944Y0105202D01*
X0126101Y0104946D01*
X0126264Y0104694D01*
X0126434Y0104445D01*
X0126609Y0104201D01*
X0126791Y0103962D01*
X0126978Y0103727D01*
X0127171Y0103496D01*
X0127369Y0103270D01*
X0127573Y0103050D01*
X0127783Y0102834D01*
X0127997Y0102623D01*
X0128217Y0102418D01*
X0128441Y0102218D01*
X0128670Y0102024D01*
X0128904Y0101836D01*
X0129143Y0101653D01*
X0129386Y0101476D01*
X0129633Y0101305D01*
X0129884Y0101140D01*
X0130140Y0100981D01*
X0130399Y0100829D01*
X0130662Y0100683D01*
X0130928Y0100544D01*
X0131197Y0100411D01*
X0131470Y0100284D01*
X0131746Y0100165D01*
X0132024Y0100052D01*
X0132305Y0099946D01*
X0132589Y0099847D01*
X0132875Y0099755D01*
X0133164Y0099669D01*
X0133454Y0099591D01*
X0133746Y0099521D01*
X0134040Y0099457D01*
X0134335Y0099400D01*
X0134631Y0099351D01*
X0134929Y0099309D01*
X0135227Y0099274D01*
X0135527Y0099247D01*
X0135826Y0099226D01*
X0136127Y0099214D01*
X0136427Y0099208D01*
X0136728Y0099210D01*
X0137028Y0099219D01*
X0137328Y0099236D01*
X0137628Y0099260D01*
X0137927Y0099291D01*
X0138225Y0099330D01*
X0138522Y0099375D01*
X0138818Y0099428D01*
X0139112Y0099489D01*
X0139405Y0099556D01*
X0139696Y0099631D01*
X0139985Y0099713D01*
X0140273Y0099801D01*
X0140557Y0099897D01*
X0140840Y0100000D01*
X0141120Y0100109D01*
X0141397Y0100226D01*
X0141671Y0100349D01*
X0141942Y0100478D01*
X0142210Y0100615D01*
X0142474Y0100758D01*
X0142735Y0100907D01*
X0142992Y0101062D01*
X0143246Y0101224D01*
X0143495Y0101392D01*
X0143740Y0101566D01*
X0143981Y0101746D01*
X0144217Y0101932D01*
X0144448Y0102124D01*
X0144675Y0102321D01*
X0144897Y0102523D01*
X0145114Y0102731D01*
X0145326Y0102945D01*
X0145533Y0103163D01*
X0145734Y0103386D01*
X0145929Y0103615D01*
X0146119Y0103847D01*
X0146304Y0104085D01*
X0146228Y0104141D01*
X0146046Y0103906D01*
X0145857Y0103675D01*
X0145663Y0103448D01*
X0145463Y0103226D01*
X0145258Y0103010D01*
X0145048Y0102798D01*
X0144833Y0102592D01*
X0144613Y0102391D01*
X0144387Y0102195D01*
X0144158Y0102005D01*
X0143923Y0101821D01*
X0143684Y0101642D01*
X0143441Y0101469D01*
X0143194Y0101303D01*
X0142942Y0101142D01*
X0142687Y0100988D01*
X0142428Y0100840D01*
X0142166Y0100698D01*
X0141900Y0100563D01*
X0141631Y0100434D01*
X0141359Y0100312D01*
X0141084Y0100196D01*
X0140806Y0100087D01*
X0140526Y0099986D01*
X0140243Y0099891D01*
X0139958Y0099803D01*
X0139671Y0099722D01*
X0139383Y0099647D01*
X0139092Y0099581D01*
X0138800Y0099521D01*
X0138506Y0099468D01*
X0138211Y0099423D01*
X0137916Y0099384D01*
X0137619Y0099353D01*
X0137322Y0099330D01*
X0137024Y0099313D01*
X0136726Y0099304D01*
X0136428Y0099302D01*
X0136129Y0099308D01*
X0135831Y0099320D01*
X0135534Y0099340D01*
X0135237Y0099368D01*
X0134941Y0099402D01*
X0134645Y0099444D01*
X0134351Y0099493D01*
X0134058Y0099549D01*
X0133767Y0099612D01*
X0133477Y0099683D01*
X0133189Y0099760D01*
X0132903Y0099844D01*
X0132619Y0099936D01*
X0132337Y0100034D01*
X0132058Y0100139D01*
X0131782Y0100251D01*
X0131508Y0100370D01*
X0131238Y0100495D01*
X0130970Y0100627D01*
X0130706Y0100766D01*
X0130445Y0100911D01*
X0130188Y0101062D01*
X0129935Y0101219D01*
X0129686Y0101383D01*
X0129440Y0101553D01*
X0129199Y0101728D01*
X0128962Y0101910D01*
X0128730Y0102097D01*
X0128503Y0102289D01*
X0128280Y0102488D01*
X0128062Y0102691D01*
X0127849Y0102900D01*
X0127641Y0103114D01*
X0127439Y0103334D01*
X0127242Y0103557D01*
X0127051Y0103786D01*
X0126865Y0104020D01*
X0126685Y0104257D01*
X0126511Y0104499D01*
X0126343Y0104746D01*
X0126181Y0104996D01*
X0126025Y0105250D01*
X0125875Y0105508D01*
X0125732Y0105770D01*
X0125595Y0106035D01*
X0125464Y0106303D01*
X0125341Y0106574D01*
X0125224Y0106849D01*
X0125113Y0107126D01*
X0125010Y0107406D01*
X0124913Y0107688D01*
X0124823Y0107972D01*
X0124741Y0108259D01*
X0124665Y0108547D01*
X0124596Y0108837D01*
X0124535Y0109129D01*
X0124480Y0109422D01*
X0124433Y0109717D01*
X0124393Y0110012D01*
X0124360Y0110309D01*
X0124335Y0110606D01*
X0124317Y0110904D01*
X0124306Y0111202D01*
X0124302Y0111500D01*
X0124306Y0111798D01*
X0124317Y0112096D01*
X0124335Y0112394D01*
X0124360Y0112691D01*
X0124393Y0112988D01*
X0124433Y0113283D01*
X0124480Y0113578D01*
X0124535Y0113871D01*
X0124596Y0114163D01*
X0124665Y0114453D01*
X0124741Y0114741D01*
X0124823Y0115028D01*
X0124913Y0115312D01*
X0125010Y0115594D01*
X0125113Y0115874D01*
X0125224Y0116151D01*
X0125341Y0116426D01*
X0125464Y0116697D01*
X0125595Y0116965D01*
X0125732Y0117230D01*
X0125875Y0117492D01*
X0126025Y0117750D01*
X0126181Y0118004D01*
X0126343Y0118254D01*
X0126511Y0118501D01*
X0126685Y0118743D01*
X0126865Y0118980D01*
X0127051Y0119214D01*
X0127242Y0119443D01*
X0127439Y0119666D01*
X0127641Y0119886D01*
X0127849Y0120100D01*
X0128062Y0120309D01*
X0128280Y0120512D01*
X0128503Y0120711D01*
X0128730Y0120903D01*
X0128962Y0121090D01*
X0129199Y0121272D01*
X0129440Y0121447D01*
X0129686Y0121617D01*
X0129935Y0121781D01*
X0130188Y0121938D01*
X0130445Y0122089D01*
X0130706Y0122234D01*
X0130970Y0122373D01*
X0131238Y0122505D01*
X0131508Y0122630D01*
X0131782Y0122749D01*
X0132058Y0122861D01*
X0132337Y0122966D01*
X0132619Y0123064D01*
X0132903Y0123156D01*
X0133189Y0123240D01*
X0133477Y0123317D01*
X0133767Y0123388D01*
X0134058Y0123451D01*
X0134351Y0123507D01*
X0134645Y0123556D01*
X0134941Y0123598D01*
X0135237Y0123632D01*
X0135534Y0123660D01*
X0135831Y0123680D01*
X0136129Y0123692D01*
X0136428Y0123698D01*
X0136726Y0123696D01*
X0137024Y0123687D01*
X0137322Y0123670D01*
X0137619Y0123647D01*
X0137916Y0123616D01*
X0138211Y0123577D01*
X0138506Y0123532D01*
X0138800Y0123479D01*
X0139092Y0123419D01*
X0139383Y0123353D01*
X0139671Y0123278D01*
X0139958Y0123197D01*
X0140243Y0123109D01*
X0140526Y0123014D01*
X0140806Y0122913D01*
X0141084Y0122804D01*
X0141359Y0122688D01*
X0141631Y0122566D01*
X0141900Y0122437D01*
X0142166Y0122302D01*
X0142428Y0122160D01*
X0142687Y0122012D01*
X0142942Y0121858D01*
X0143194Y0121697D01*
X0143441Y0121531D01*
X0143684Y0121358D01*
X0143923Y0121179D01*
X0144158Y0120995D01*
X0144387Y0120805D01*
X0144613Y0120609D01*
X0144833Y0120408D01*
X0145048Y0120202D01*
X0145258Y0119990D01*
X0145463Y0119774D01*
X0145663Y0119552D01*
X0145857Y0119325D01*
X0146046Y0119094D01*
X0146228Y0118859D01*
X0146153Y0118802D01*
X0145972Y0119036D01*
X0145785Y0119265D01*
X0145592Y0119490D01*
X0145394Y0119710D01*
X0145191Y0119925D01*
X0144982Y0120135D01*
X0144768Y0120340D01*
X0144550Y0120539D01*
X0144326Y0120733D01*
X0144098Y0120922D01*
X0143866Y0121105D01*
X0143629Y0121282D01*
X0143387Y0121453D01*
X0143142Y0121619D01*
X0142893Y0121778D01*
X0142639Y0121931D01*
X0142383Y0122078D01*
X0142122Y0122219D01*
X0141858Y0122353D01*
X0141591Y0122481D01*
X0141321Y0122602D01*
X0141049Y0122717D01*
X0140773Y0122825D01*
X0140495Y0122926D01*
X0140214Y0123020D01*
X0139932Y0123107D01*
X0139647Y0123188D01*
X0139360Y0123261D01*
X0139072Y0123328D01*
X0138782Y0123387D01*
X0138490Y0123439D01*
X0138198Y0123484D01*
X0137904Y0123522D01*
X0137610Y0123553D01*
X0137315Y0123577D01*
X0137020Y0123593D01*
X0136724Y0123602D01*
X0136428Y0123604D01*
X0136132Y0123598D01*
X0135836Y0123586D01*
X0135541Y0123566D01*
X0135246Y0123539D01*
X0134952Y0123505D01*
X0134659Y0123463D01*
X0134367Y0123415D01*
X0134077Y0123359D01*
X0133788Y0123296D01*
X0133500Y0123226D01*
X0133214Y0123149D01*
X0132930Y0123066D01*
X0132649Y0122975D01*
X0132369Y0122877D01*
X0132092Y0122773D01*
X0131818Y0122662D01*
X0131547Y0122544D01*
X0131278Y0122420D01*
X0131013Y0122289D01*
X0130751Y0122151D01*
X0130492Y0122008D01*
X0130237Y0121858D01*
X0129985Y0121701D01*
X0129738Y0121539D01*
X0129495Y0121371D01*
X0129255Y0121196D01*
X0129020Y0121016D01*
X0128790Y0120831D01*
X0128564Y0120639D01*
X0128343Y0120443D01*
X0128127Y0120241D01*
X0127916Y0120033D01*
X0127710Y0119821D01*
X0127509Y0119603D01*
X0127313Y0119381D01*
X0127123Y0119154D01*
X0126939Y0118923D01*
X0126761Y0118687D01*
X0126588Y0118447D01*
X0126421Y0118202D01*
X0126260Y0117954D01*
X0126105Y0117701D01*
X0125957Y0117445D01*
X0125815Y0117186D01*
X0125679Y0116923D01*
X0125549Y0116657D01*
X0125427Y0116388D01*
X0125310Y0116115D01*
X0125201Y0115840D01*
X0125098Y0115563D01*
X0125002Y0115283D01*
X0124913Y0115001D01*
X0124831Y0114716D01*
X0124756Y0114430D01*
X0124688Y0114142D01*
X0124627Y0113853D01*
X0124573Y0113562D01*
X0124526Y0113269D01*
X0124486Y0112976D01*
X0124454Y0112682D01*
X0124429Y0112387D01*
X0124410Y0112092D01*
X0124400Y0111796D01*
X0124396Y0111500D01*
X0124400Y0111204D01*
X0124410Y0110908D01*
X0124429Y0110613D01*
X0124454Y0110318D01*
X0124486Y0110024D01*
X0124526Y0109731D01*
X0124573Y0109438D01*
X0124627Y0109147D01*
X0124688Y0108858D01*
X0124756Y0108570D01*
X0124831Y0108284D01*
X0124913Y0107999D01*
X0125002Y0107717D01*
X0125098Y0107437D01*
X0125201Y0107160D01*
X0125310Y0106885D01*
X0125427Y0106612D01*
X0125549Y0106343D01*
X0125679Y0106077D01*
X0125815Y0105814D01*
X0125957Y0105555D01*
X0126105Y0105299D01*
X0126260Y0105046D01*
X0126421Y0104798D01*
X0126588Y0104553D01*
X0126761Y0104313D01*
X0126939Y0104077D01*
X0127123Y0103846D01*
X0127313Y0103619D01*
X0127509Y0103397D01*
X0127710Y0103179D01*
X0127916Y0102967D01*
X0128127Y0102759D01*
X0128343Y0102557D01*
X0128564Y0102361D01*
X0128790Y0102169D01*
X0129020Y0101984D01*
X0129255Y0101804D01*
X0129495Y0101629D01*
X0129738Y0101461D01*
X0129985Y0101299D01*
X0130237Y0101142D01*
X0130492Y0100992D01*
X0130751Y0100849D01*
X0131013Y0100711D01*
X0131278Y0100580D01*
X0131547Y0100456D01*
X0131818Y0100338D01*
X0132092Y0100227D01*
X0132369Y0100123D01*
X0132649Y0100025D01*
X0132930Y0099934D01*
X0133214Y0099851D01*
X0133500Y0099774D01*
X0133788Y0099704D01*
X0134077Y0099641D01*
X0134367Y0099585D01*
X0134659Y0099537D01*
X0134952Y0099495D01*
X0135246Y0099461D01*
X0135541Y0099434D01*
X0135836Y0099414D01*
X0136132Y0099402D01*
X0136428Y0099396D01*
X0136724Y0099398D01*
X0137020Y0099407D01*
X0137315Y0099423D01*
X0137610Y0099447D01*
X0137904Y0099478D01*
X0138198Y0099516D01*
X0138490Y0099561D01*
X0138782Y0099613D01*
X0139072Y0099672D01*
X0139360Y0099739D01*
X0139647Y0099812D01*
X0139932Y0099893D01*
X0140214Y0099980D01*
X0140495Y0100074D01*
X0140773Y0100175D01*
X0141049Y0100283D01*
X0141321Y0100398D01*
X0141591Y0100519D01*
X0141858Y0100647D01*
X0142122Y0100781D01*
X0142383Y0100922D01*
X0142639Y0101069D01*
X0142893Y0101222D01*
X0143142Y0101381D01*
X0143387Y0101547D01*
X0143629Y0101718D01*
X0143866Y0101895D01*
X0144098Y0102078D01*
X0144326Y0102267D01*
X0144550Y0102461D01*
X0144768Y0102660D01*
X0144982Y0102865D01*
X0145191Y0103075D01*
X0145394Y0103290D01*
X0145592Y0103510D01*
X0145785Y0103735D01*
X0145972Y0103964D01*
X0146153Y0104198D01*
D14*
X0126500Y0111500D02*
X0126503Y0111745D01*
X0126512Y0111991D01*
X0126527Y0112236D01*
X0126548Y0112480D01*
X0126575Y0112724D01*
X0126608Y0112967D01*
X0126647Y0113210D01*
X0126692Y0113451D01*
X0126743Y0113691D01*
X0126800Y0113930D01*
X0126862Y0114167D01*
X0126931Y0114403D01*
X0127005Y0114637D01*
X0127085Y0114869D01*
X0127170Y0115099D01*
X0127261Y0115327D01*
X0127358Y0115552D01*
X0127460Y0115776D01*
X0127568Y0115996D01*
X0127681Y0116214D01*
X0127799Y0116429D01*
X0127923Y0116641D01*
X0128051Y0116850D01*
X0128185Y0117056D01*
X0128324Y0117258D01*
X0128468Y0117457D01*
X0128617Y0117652D01*
X0128770Y0117844D01*
X0128928Y0118032D01*
X0129090Y0118216D01*
X0129258Y0118395D01*
X0129429Y0118571D01*
X0129605Y0118742D01*
X0129784Y0118910D01*
X0129968Y0119072D01*
X0130156Y0119230D01*
X0130348Y0119383D01*
X0130543Y0119532D01*
X0130742Y0119676D01*
X0130944Y0119815D01*
X0131150Y0119949D01*
X0131359Y0120077D01*
X0131571Y0120201D01*
X0131786Y0120319D01*
X0132004Y0120432D01*
X0132224Y0120540D01*
X0132448Y0120642D01*
X0132673Y0120739D01*
X0132901Y0120830D01*
X0133131Y0120915D01*
X0133363Y0120995D01*
X0133597Y0121069D01*
X0133833Y0121138D01*
X0134070Y0121200D01*
X0134309Y0121257D01*
X0134549Y0121308D01*
X0134790Y0121353D01*
X0135033Y0121392D01*
X0135276Y0121425D01*
X0135520Y0121452D01*
X0135764Y0121473D01*
X0136009Y0121488D01*
X0136255Y0121497D01*
X0136500Y0121500D01*
X0136745Y0121497D01*
X0136991Y0121488D01*
X0137236Y0121473D01*
X0137480Y0121452D01*
X0137724Y0121425D01*
X0137967Y0121392D01*
X0138210Y0121353D01*
X0138451Y0121308D01*
X0138691Y0121257D01*
X0138930Y0121200D01*
X0139167Y0121138D01*
X0139403Y0121069D01*
X0139637Y0120995D01*
X0139869Y0120915D01*
X0140099Y0120830D01*
X0140327Y0120739D01*
X0140552Y0120642D01*
X0140776Y0120540D01*
X0140996Y0120432D01*
X0141214Y0120319D01*
X0141429Y0120201D01*
X0141641Y0120077D01*
X0141850Y0119949D01*
X0142056Y0119815D01*
X0142258Y0119676D01*
X0142457Y0119532D01*
X0142652Y0119383D01*
X0142844Y0119230D01*
X0143032Y0119072D01*
X0143216Y0118910D01*
X0143395Y0118742D01*
X0143571Y0118571D01*
X0143742Y0118395D01*
X0143910Y0118216D01*
X0144072Y0118032D01*
X0144230Y0117844D01*
X0144383Y0117652D01*
X0144532Y0117457D01*
X0144676Y0117258D01*
X0144815Y0117056D01*
X0144949Y0116850D01*
X0145077Y0116641D01*
X0145201Y0116429D01*
X0145319Y0116214D01*
X0145432Y0115996D01*
X0145540Y0115776D01*
X0145642Y0115552D01*
X0145739Y0115327D01*
X0145830Y0115099D01*
X0145915Y0114869D01*
X0145995Y0114637D01*
X0146069Y0114403D01*
X0146138Y0114167D01*
X0146200Y0113930D01*
X0146257Y0113691D01*
X0146308Y0113451D01*
X0146353Y0113210D01*
X0146392Y0112967D01*
X0146425Y0112724D01*
X0146452Y0112480D01*
X0146473Y0112236D01*
X0146488Y0111991D01*
X0146497Y0111745D01*
X0146500Y0111500D01*
X0146497Y0111255D01*
X0146488Y0111009D01*
X0146473Y0110764D01*
X0146452Y0110520D01*
X0146425Y0110276D01*
X0146392Y0110033D01*
X0146353Y0109790D01*
X0146308Y0109549D01*
X0146257Y0109309D01*
X0146200Y0109070D01*
X0146138Y0108833D01*
X0146069Y0108597D01*
X0145995Y0108363D01*
X0145915Y0108131D01*
X0145830Y0107901D01*
X0145739Y0107673D01*
X0145642Y0107448D01*
X0145540Y0107224D01*
X0145432Y0107004D01*
X0145319Y0106786D01*
X0145201Y0106571D01*
X0145077Y0106359D01*
X0144949Y0106150D01*
X0144815Y0105944D01*
X0144676Y0105742D01*
X0144532Y0105543D01*
X0144383Y0105348D01*
X0144230Y0105156D01*
X0144072Y0104968D01*
X0143910Y0104784D01*
X0143742Y0104605D01*
X0143571Y0104429D01*
X0143395Y0104258D01*
X0143216Y0104090D01*
X0143032Y0103928D01*
X0142844Y0103770D01*
X0142652Y0103617D01*
X0142457Y0103468D01*
X0142258Y0103324D01*
X0142056Y0103185D01*
X0141850Y0103051D01*
X0141641Y0102923D01*
X0141429Y0102799D01*
X0141214Y0102681D01*
X0140996Y0102568D01*
X0140776Y0102460D01*
X0140552Y0102358D01*
X0140327Y0102261D01*
X0140099Y0102170D01*
X0139869Y0102085D01*
X0139637Y0102005D01*
X0139403Y0101931D01*
X0139167Y0101862D01*
X0138930Y0101800D01*
X0138691Y0101743D01*
X0138451Y0101692D01*
X0138210Y0101647D01*
X0137967Y0101608D01*
X0137724Y0101575D01*
X0137480Y0101548D01*
X0137236Y0101527D01*
X0136991Y0101512D01*
X0136745Y0101503D01*
X0136500Y0101500D01*
X0136255Y0101503D01*
X0136009Y0101512D01*
X0135764Y0101527D01*
X0135520Y0101548D01*
X0135276Y0101575D01*
X0135033Y0101608D01*
X0134790Y0101647D01*
X0134549Y0101692D01*
X0134309Y0101743D01*
X0134070Y0101800D01*
X0133833Y0101862D01*
X0133597Y0101931D01*
X0133363Y0102005D01*
X0133131Y0102085D01*
X0132901Y0102170D01*
X0132673Y0102261D01*
X0132448Y0102358D01*
X0132224Y0102460D01*
X0132004Y0102568D01*
X0131786Y0102681D01*
X0131571Y0102799D01*
X0131359Y0102923D01*
X0131150Y0103051D01*
X0130944Y0103185D01*
X0130742Y0103324D01*
X0130543Y0103468D01*
X0130348Y0103617D01*
X0130156Y0103770D01*
X0129968Y0103928D01*
X0129784Y0104090D01*
X0129605Y0104258D01*
X0129429Y0104429D01*
X0129258Y0104605D01*
X0129090Y0104784D01*
X0128928Y0104968D01*
X0128770Y0105156D01*
X0128617Y0105348D01*
X0128468Y0105543D01*
X0128324Y0105742D01*
X0128185Y0105944D01*
X0128051Y0106150D01*
X0127923Y0106359D01*
X0127799Y0106571D01*
X0127681Y0106786D01*
X0127568Y0107004D01*
X0127460Y0107224D01*
X0127358Y0107448D01*
X0127261Y0107673D01*
X0127170Y0107901D01*
X0127085Y0108131D01*
X0127005Y0108363D01*
X0126931Y0108597D01*
X0126862Y0108833D01*
X0126800Y0109070D01*
X0126743Y0109309D01*
X0126692Y0109549D01*
X0126647Y0109790D01*
X0126608Y0110033D01*
X0126575Y0110276D01*
X0126548Y0110520D01*
X0126527Y0110764D01*
X0126512Y0111009D01*
X0126503Y0111255D01*
X0126500Y0111500D01*
D15*
X0073744Y0059217D02*
X0073746Y0059322D01*
X0073752Y0059427D01*
X0073762Y0059531D01*
X0073776Y0059635D01*
X0073794Y0059739D01*
X0073816Y0059841D01*
X0073841Y0059943D01*
X0073871Y0060044D01*
X0073904Y0060143D01*
X0073941Y0060241D01*
X0073982Y0060338D01*
X0074027Y0060433D01*
X0074075Y0060526D01*
X0074126Y0060618D01*
X0074182Y0060707D01*
X0074240Y0060794D01*
X0074302Y0060879D01*
X0074366Y0060962D01*
X0074434Y0061042D01*
X0074505Y0061119D01*
X0074579Y0061193D01*
X0074656Y0061265D01*
X0074735Y0061334D01*
X0074817Y0061399D01*
X0074901Y0061462D01*
X0074988Y0061521D01*
X0075077Y0061577D01*
X0075168Y0061630D01*
X0075261Y0061679D01*
X0075355Y0061724D01*
X0075451Y0061766D01*
X0075549Y0061804D01*
X0075648Y0061838D01*
X0075749Y0061869D01*
X0075850Y0061895D01*
X0075953Y0061918D01*
X0076056Y0061937D01*
X0076160Y0061952D01*
X0076264Y0061963D01*
X0076369Y0061970D01*
X0076474Y0061973D01*
X0076579Y0061972D01*
X0076684Y0061967D01*
X0076788Y0061958D01*
X0076892Y0061945D01*
X0076996Y0061928D01*
X0077099Y0061907D01*
X0077201Y0061882D01*
X0077302Y0061854D01*
X0077401Y0061821D01*
X0077500Y0061785D01*
X0077597Y0061745D01*
X0077692Y0061702D01*
X0077786Y0061654D01*
X0077878Y0061604D01*
X0077968Y0061550D01*
X0078056Y0061492D01*
X0078141Y0061431D01*
X0078224Y0061367D01*
X0078305Y0061300D01*
X0078383Y0061230D01*
X0078458Y0061156D01*
X0078530Y0061081D01*
X0078600Y0061002D01*
X0078666Y0060921D01*
X0078730Y0060837D01*
X0078790Y0060751D01*
X0078846Y0060663D01*
X0078900Y0060572D01*
X0078950Y0060480D01*
X0078996Y0060386D01*
X0079039Y0060290D01*
X0079078Y0060192D01*
X0079113Y0060094D01*
X0079144Y0059993D01*
X0079172Y0059892D01*
X0079196Y0059790D01*
X0079216Y0059687D01*
X0079232Y0059583D01*
X0079244Y0059479D01*
X0079252Y0059374D01*
X0079256Y0059269D01*
X0079256Y0059165D01*
X0079252Y0059060D01*
X0079244Y0058955D01*
X0079232Y0058851D01*
X0079216Y0058747D01*
X0079196Y0058644D01*
X0079172Y0058542D01*
X0079144Y0058441D01*
X0079113Y0058340D01*
X0079078Y0058242D01*
X0079039Y0058144D01*
X0078996Y0058048D01*
X0078950Y0057954D01*
X0078900Y0057862D01*
X0078846Y0057771D01*
X0078790Y0057683D01*
X0078730Y0057597D01*
X0078666Y0057513D01*
X0078600Y0057432D01*
X0078530Y0057353D01*
X0078458Y0057278D01*
X0078383Y0057204D01*
X0078305Y0057134D01*
X0078224Y0057067D01*
X0078141Y0057003D01*
X0078056Y0056942D01*
X0077968Y0056884D01*
X0077878Y0056830D01*
X0077786Y0056780D01*
X0077692Y0056732D01*
X0077597Y0056689D01*
X0077500Y0056649D01*
X0077401Y0056613D01*
X0077302Y0056580D01*
X0077201Y0056552D01*
X0077099Y0056527D01*
X0076996Y0056506D01*
X0076892Y0056489D01*
X0076788Y0056476D01*
X0076684Y0056467D01*
X0076579Y0056462D01*
X0076474Y0056461D01*
X0076369Y0056464D01*
X0076264Y0056471D01*
X0076160Y0056482D01*
X0076056Y0056497D01*
X0075953Y0056516D01*
X0075850Y0056539D01*
X0075749Y0056565D01*
X0075648Y0056596D01*
X0075549Y0056630D01*
X0075451Y0056668D01*
X0075355Y0056710D01*
X0075261Y0056755D01*
X0075168Y0056804D01*
X0075077Y0056857D01*
X0074988Y0056913D01*
X0074901Y0056972D01*
X0074817Y0057035D01*
X0074735Y0057100D01*
X0074656Y0057169D01*
X0074579Y0057241D01*
X0074505Y0057315D01*
X0074434Y0057392D01*
X0074366Y0057472D01*
X0074302Y0057555D01*
X0074240Y0057640D01*
X0074182Y0057727D01*
X0074126Y0057816D01*
X0074075Y0057908D01*
X0074027Y0058001D01*
X0073982Y0058096D01*
X0073941Y0058193D01*
X0073904Y0058291D01*
X0073871Y0058390D01*
X0073841Y0058491D01*
X0073816Y0058593D01*
X0073794Y0058695D01*
X0073776Y0058799D01*
X0073762Y0058903D01*
X0073752Y0059007D01*
X0073746Y0059112D01*
X0073744Y0059217D01*
X0073744Y0023783D02*
X0073746Y0023888D01*
X0073752Y0023993D01*
X0073762Y0024097D01*
X0073776Y0024201D01*
X0073794Y0024305D01*
X0073816Y0024407D01*
X0073841Y0024509D01*
X0073871Y0024610D01*
X0073904Y0024709D01*
X0073941Y0024807D01*
X0073982Y0024904D01*
X0074027Y0024999D01*
X0074075Y0025092D01*
X0074126Y0025184D01*
X0074182Y0025273D01*
X0074240Y0025360D01*
X0074302Y0025445D01*
X0074366Y0025528D01*
X0074434Y0025608D01*
X0074505Y0025685D01*
X0074579Y0025759D01*
X0074656Y0025831D01*
X0074735Y0025900D01*
X0074817Y0025965D01*
X0074901Y0026028D01*
X0074988Y0026087D01*
X0075077Y0026143D01*
X0075168Y0026196D01*
X0075261Y0026245D01*
X0075355Y0026290D01*
X0075451Y0026332D01*
X0075549Y0026370D01*
X0075648Y0026404D01*
X0075749Y0026435D01*
X0075850Y0026461D01*
X0075953Y0026484D01*
X0076056Y0026503D01*
X0076160Y0026518D01*
X0076264Y0026529D01*
X0076369Y0026536D01*
X0076474Y0026539D01*
X0076579Y0026538D01*
X0076684Y0026533D01*
X0076788Y0026524D01*
X0076892Y0026511D01*
X0076996Y0026494D01*
X0077099Y0026473D01*
X0077201Y0026448D01*
X0077302Y0026420D01*
X0077401Y0026387D01*
X0077500Y0026351D01*
X0077597Y0026311D01*
X0077692Y0026268D01*
X0077786Y0026220D01*
X0077878Y0026170D01*
X0077968Y0026116D01*
X0078056Y0026058D01*
X0078141Y0025997D01*
X0078224Y0025933D01*
X0078305Y0025866D01*
X0078383Y0025796D01*
X0078458Y0025722D01*
X0078530Y0025647D01*
X0078600Y0025568D01*
X0078666Y0025487D01*
X0078730Y0025403D01*
X0078790Y0025317D01*
X0078846Y0025229D01*
X0078900Y0025138D01*
X0078950Y0025046D01*
X0078996Y0024952D01*
X0079039Y0024856D01*
X0079078Y0024758D01*
X0079113Y0024660D01*
X0079144Y0024559D01*
X0079172Y0024458D01*
X0079196Y0024356D01*
X0079216Y0024253D01*
X0079232Y0024149D01*
X0079244Y0024045D01*
X0079252Y0023940D01*
X0079256Y0023835D01*
X0079256Y0023731D01*
X0079252Y0023626D01*
X0079244Y0023521D01*
X0079232Y0023417D01*
X0079216Y0023313D01*
X0079196Y0023210D01*
X0079172Y0023108D01*
X0079144Y0023007D01*
X0079113Y0022906D01*
X0079078Y0022808D01*
X0079039Y0022710D01*
X0078996Y0022614D01*
X0078950Y0022520D01*
X0078900Y0022428D01*
X0078846Y0022337D01*
X0078790Y0022249D01*
X0078730Y0022163D01*
X0078666Y0022079D01*
X0078600Y0021998D01*
X0078530Y0021919D01*
X0078458Y0021844D01*
X0078383Y0021770D01*
X0078305Y0021700D01*
X0078224Y0021633D01*
X0078141Y0021569D01*
X0078056Y0021508D01*
X0077968Y0021450D01*
X0077878Y0021396D01*
X0077786Y0021346D01*
X0077692Y0021298D01*
X0077597Y0021255D01*
X0077500Y0021215D01*
X0077401Y0021179D01*
X0077302Y0021146D01*
X0077201Y0021118D01*
X0077099Y0021093D01*
X0076996Y0021072D01*
X0076892Y0021055D01*
X0076788Y0021042D01*
X0076684Y0021033D01*
X0076579Y0021028D01*
X0076474Y0021027D01*
X0076369Y0021030D01*
X0076264Y0021037D01*
X0076160Y0021048D01*
X0076056Y0021063D01*
X0075953Y0021082D01*
X0075850Y0021105D01*
X0075749Y0021131D01*
X0075648Y0021162D01*
X0075549Y0021196D01*
X0075451Y0021234D01*
X0075355Y0021276D01*
X0075261Y0021321D01*
X0075168Y0021370D01*
X0075077Y0021423D01*
X0074988Y0021479D01*
X0074901Y0021538D01*
X0074817Y0021601D01*
X0074735Y0021666D01*
X0074656Y0021735D01*
X0074579Y0021807D01*
X0074505Y0021881D01*
X0074434Y0021958D01*
X0074366Y0022038D01*
X0074302Y0022121D01*
X0074240Y0022206D01*
X0074182Y0022293D01*
X0074126Y0022382D01*
X0074075Y0022474D01*
X0074027Y0022567D01*
X0073982Y0022662D01*
X0073941Y0022759D01*
X0073904Y0022857D01*
X0073871Y0022956D01*
X0073841Y0023057D01*
X0073816Y0023159D01*
X0073794Y0023261D01*
X0073776Y0023365D01*
X0073762Y0023469D01*
X0073752Y0023573D01*
X0073746Y0023678D01*
X0073744Y0023783D01*
D16*
X0136736Y0046500D02*
X0143114Y0046500D01*
X0143114Y0051618D02*
X0143114Y0041382D01*
X0147563Y0041382D01*
X0147563Y0051618D02*
X0143114Y0051618D01*
X0165437Y0051618D02*
X0169886Y0051618D01*
X0169886Y0041382D01*
X0165437Y0041382D01*
X0169886Y0046500D02*
X0176264Y0046500D01*
M02*
