G75*
%MOIN*%
%OFA0B0*%
%FSLAX25Y25*%
%IPPOS*%
%LPD*%
%AMOC8*
5,1,8,0,0,1.08239X$1,22.5*
%
%ADD10C,0.14580*%
%ADD11OC8,0.07400*%
%ADD12R,0.08477X0.08477*%
%ADD13C,0.08477*%
%ADD14C,0.06312*%
%ADD15C,0.00039*%
D10*
X0051264Y0090890D03*
X0039846Y0109394D03*
X0063075Y0109394D03*
D11*
X0131500Y0111500D03*
X0141500Y0111500D03*
D12*
X0052878Y0051343D03*
D13*
X0052878Y0031657D03*
X0100122Y0031657D03*
X0100122Y0051343D03*
D14*
X0076500Y0059217D03*
X0076500Y0023783D03*
D15*
X0131464Y0045699D02*
X0131637Y0045329D01*
X0135694Y0045329D01*
X0135867Y0045699D01*
X0135972Y0046093D01*
X0136008Y0046500D01*
X0135972Y0046907D01*
X0135867Y0047301D01*
X0135694Y0047671D01*
X0135460Y0048006D01*
X0135171Y0048294D01*
X0134837Y0048529D01*
X0134467Y0048701D01*
X0134072Y0048807D01*
X0133665Y0048843D01*
X0133259Y0048807D01*
X0132864Y0048701D01*
X0132494Y0048529D01*
X0132159Y0048294D01*
X0131871Y0048006D01*
X0131637Y0047671D01*
X0131464Y0047301D01*
X0131358Y0046907D01*
X0131323Y0046500D01*
X0131358Y0046093D01*
X0131464Y0045699D01*
X0131462Y0045708D02*
X0135869Y0045708D01*
X0135879Y0045745D02*
X0131452Y0045745D01*
X0131441Y0045783D02*
X0135889Y0045783D01*
X0135899Y0045821D02*
X0131431Y0045821D01*
X0131421Y0045859D02*
X0135910Y0045859D01*
X0135920Y0045897D02*
X0131411Y0045897D01*
X0131401Y0045935D02*
X0135930Y0045935D01*
X0135940Y0045973D02*
X0131391Y0045973D01*
X0131380Y0046011D02*
X0135950Y0046011D01*
X0135960Y0046049D02*
X0131370Y0046049D01*
X0131360Y0046086D02*
X0135971Y0046086D01*
X0135975Y0046124D02*
X0131356Y0046124D01*
X0131352Y0046162D02*
X0135978Y0046162D01*
X0135982Y0046200D02*
X0131349Y0046200D01*
X0131346Y0046238D02*
X0135985Y0046238D01*
X0135988Y0046276D02*
X0131342Y0046276D01*
X0131339Y0046314D02*
X0135992Y0046314D01*
X0135995Y0046352D02*
X0131336Y0046352D01*
X0131332Y0046389D02*
X0135998Y0046389D01*
X0136002Y0046427D02*
X0131329Y0046427D01*
X0131326Y0046465D02*
X0136005Y0046465D01*
X0136008Y0046503D02*
X0131323Y0046503D01*
X0131326Y0046541D02*
X0136004Y0046541D01*
X0136001Y0046579D02*
X0131330Y0046579D01*
X0131333Y0046617D02*
X0135998Y0046617D01*
X0135994Y0046655D02*
X0131336Y0046655D01*
X0131340Y0046693D02*
X0135991Y0046693D01*
X0135988Y0046730D02*
X0131343Y0046730D01*
X0131346Y0046768D02*
X0135985Y0046768D01*
X0135981Y0046806D02*
X0131350Y0046806D01*
X0131353Y0046844D02*
X0135978Y0046844D01*
X0135975Y0046882D02*
X0131356Y0046882D01*
X0131362Y0046920D02*
X0135969Y0046920D01*
X0135959Y0046958D02*
X0131372Y0046958D01*
X0131382Y0046996D02*
X0135949Y0046996D01*
X0135938Y0047033D02*
X0131392Y0047033D01*
X0131402Y0047071D02*
X0135928Y0047071D01*
X0135918Y0047109D02*
X0131413Y0047109D01*
X0131423Y0047147D02*
X0135908Y0047147D01*
X0135898Y0047185D02*
X0131433Y0047185D01*
X0131443Y0047223D02*
X0135888Y0047223D01*
X0135877Y0047261D02*
X0131453Y0047261D01*
X0131463Y0047299D02*
X0135867Y0047299D01*
X0135850Y0047336D02*
X0131481Y0047336D01*
X0131498Y0047374D02*
X0135832Y0047374D01*
X0135815Y0047412D02*
X0131516Y0047412D01*
X0131534Y0047450D02*
X0135797Y0047450D01*
X0135779Y0047488D02*
X0131551Y0047488D01*
X0131569Y0047526D02*
X0135762Y0047526D01*
X0135744Y0047564D02*
X0131587Y0047564D01*
X0131604Y0047602D02*
X0135727Y0047602D01*
X0135709Y0047640D02*
X0131622Y0047640D01*
X0131641Y0047677D02*
X0135690Y0047677D01*
X0135663Y0047715D02*
X0131667Y0047715D01*
X0131694Y0047753D02*
X0135637Y0047753D01*
X0135610Y0047791D02*
X0131720Y0047791D01*
X0131747Y0047829D02*
X0135584Y0047829D01*
X0135557Y0047867D02*
X0131774Y0047867D01*
X0131800Y0047905D02*
X0135531Y0047905D01*
X0135504Y0047943D02*
X0131827Y0047943D01*
X0131853Y0047980D02*
X0135478Y0047980D01*
X0135447Y0048018D02*
X0131883Y0048018D01*
X0131921Y0048056D02*
X0135410Y0048056D01*
X0135372Y0048094D02*
X0131959Y0048094D01*
X0131997Y0048132D02*
X0135334Y0048132D01*
X0135296Y0048170D02*
X0132035Y0048170D01*
X0132073Y0048208D02*
X0135258Y0048208D01*
X0135220Y0048246D02*
X0132111Y0048246D01*
X0132148Y0048284D02*
X0135182Y0048284D01*
X0135133Y0048321D02*
X0132198Y0048321D01*
X0132252Y0048359D02*
X0135079Y0048359D01*
X0135025Y0048397D02*
X0132306Y0048397D01*
X0132360Y0048435D02*
X0134970Y0048435D01*
X0134916Y0048473D02*
X0132414Y0048473D01*
X0132468Y0048511D02*
X0134862Y0048511D01*
X0134794Y0048549D02*
X0132537Y0048549D01*
X0132618Y0048587D02*
X0134713Y0048587D01*
X0134631Y0048624D02*
X0132700Y0048624D01*
X0132781Y0048662D02*
X0134550Y0048662D01*
X0134469Y0048700D02*
X0132862Y0048700D01*
X0133002Y0048738D02*
X0134329Y0048738D01*
X0134188Y0048776D02*
X0133143Y0048776D01*
X0133336Y0048814D02*
X0133994Y0048814D01*
X0135853Y0045670D02*
X0131478Y0045670D01*
X0131495Y0045632D02*
X0135835Y0045632D01*
X0135818Y0045594D02*
X0131513Y0045594D01*
X0131531Y0045556D02*
X0135800Y0045556D01*
X0135782Y0045518D02*
X0131548Y0045518D01*
X0131566Y0045480D02*
X0135765Y0045480D01*
X0135747Y0045442D02*
X0131584Y0045442D01*
X0131601Y0045405D02*
X0135729Y0045405D01*
X0135712Y0045367D02*
X0131619Y0045367D01*
X0131637Y0045329D02*
X0131871Y0044994D01*
X0132159Y0044706D01*
X0132494Y0044471D01*
X0132864Y0044299D01*
X0133259Y0044193D01*
X0133665Y0044157D01*
X0134072Y0044193D01*
X0134467Y0044299D01*
X0134837Y0044471D01*
X0135171Y0044706D01*
X0135460Y0044994D01*
X0135694Y0045329D01*
X0135668Y0045291D02*
X0131663Y0045291D01*
X0131690Y0045253D02*
X0135641Y0045253D01*
X0135615Y0045215D02*
X0131716Y0045215D01*
X0131743Y0045177D02*
X0135588Y0045177D01*
X0135562Y0045139D02*
X0131769Y0045139D01*
X0131796Y0045101D02*
X0135535Y0045101D01*
X0135509Y0045064D02*
X0131822Y0045064D01*
X0131849Y0045026D02*
X0135482Y0045026D01*
X0135454Y0044988D02*
X0131877Y0044988D01*
X0131915Y0044950D02*
X0135416Y0044950D01*
X0135378Y0044912D02*
X0131953Y0044912D01*
X0131991Y0044874D02*
X0135340Y0044874D01*
X0135302Y0044836D02*
X0132029Y0044836D01*
X0132067Y0044798D02*
X0135264Y0044798D01*
X0135226Y0044761D02*
X0132104Y0044761D01*
X0132142Y0044723D02*
X0135188Y0044723D01*
X0135142Y0044685D02*
X0132189Y0044685D01*
X0132243Y0044647D02*
X0135088Y0044647D01*
X0135033Y0044609D02*
X0132297Y0044609D01*
X0132351Y0044571D02*
X0134979Y0044571D01*
X0134925Y0044533D02*
X0132406Y0044533D01*
X0132460Y0044495D02*
X0134871Y0044495D01*
X0134807Y0044458D02*
X0132524Y0044458D01*
X0132605Y0044420D02*
X0134726Y0044420D01*
X0134644Y0044382D02*
X0132686Y0044382D01*
X0132768Y0044344D02*
X0134563Y0044344D01*
X0134482Y0044306D02*
X0132849Y0044306D01*
X0132979Y0044268D02*
X0134352Y0044268D01*
X0134211Y0044230D02*
X0133120Y0044230D01*
X0133265Y0044192D02*
X0134065Y0044192D01*
X0176992Y0046500D02*
X0177028Y0046093D01*
X0177133Y0045699D01*
X0177306Y0045329D01*
X0181363Y0045329D01*
X0181536Y0045699D01*
X0181642Y0046093D01*
X0181677Y0046500D01*
X0181642Y0046907D01*
X0181536Y0047301D01*
X0181363Y0047671D01*
X0181129Y0048006D01*
X0180841Y0048294D01*
X0180506Y0048529D01*
X0180136Y0048701D01*
X0179741Y0048807D01*
X0179335Y0048843D01*
X0178928Y0048807D01*
X0178533Y0048701D01*
X0178163Y0048529D01*
X0177829Y0048294D01*
X0177540Y0048006D01*
X0177306Y0047671D01*
X0177133Y0047301D01*
X0177028Y0046907D01*
X0176992Y0046500D01*
X0176992Y0046503D02*
X0181677Y0046503D01*
X0181674Y0046465D02*
X0176995Y0046465D01*
X0176998Y0046427D02*
X0181671Y0046427D01*
X0181668Y0046389D02*
X0177002Y0046389D01*
X0177005Y0046352D02*
X0181664Y0046352D01*
X0181661Y0046314D02*
X0177008Y0046314D01*
X0177012Y0046276D02*
X0181658Y0046276D01*
X0181654Y0046238D02*
X0177015Y0046238D01*
X0177018Y0046200D02*
X0181651Y0046200D01*
X0181648Y0046162D02*
X0177022Y0046162D01*
X0177025Y0046124D02*
X0181644Y0046124D01*
X0181640Y0046086D02*
X0177029Y0046086D01*
X0177040Y0046049D02*
X0181630Y0046049D01*
X0181620Y0046011D02*
X0177050Y0046011D01*
X0177060Y0045973D02*
X0181609Y0045973D01*
X0181599Y0045935D02*
X0177070Y0045935D01*
X0177080Y0045897D02*
X0181589Y0045897D01*
X0181579Y0045859D02*
X0177090Y0045859D01*
X0177101Y0045821D02*
X0181569Y0045821D01*
X0181559Y0045783D02*
X0177111Y0045783D01*
X0177121Y0045745D02*
X0181548Y0045745D01*
X0181538Y0045708D02*
X0177131Y0045708D01*
X0177147Y0045670D02*
X0181522Y0045670D01*
X0181505Y0045632D02*
X0177165Y0045632D01*
X0177182Y0045594D02*
X0181487Y0045594D01*
X0181469Y0045556D02*
X0177200Y0045556D01*
X0177218Y0045518D02*
X0181452Y0045518D01*
X0181434Y0045480D02*
X0177235Y0045480D01*
X0177253Y0045442D02*
X0181416Y0045442D01*
X0181399Y0045405D02*
X0177271Y0045405D01*
X0177288Y0045367D02*
X0181381Y0045367D01*
X0181363Y0045329D02*
X0181129Y0044994D01*
X0180841Y0044706D01*
X0180506Y0044471D01*
X0180136Y0044299D01*
X0179741Y0044193D01*
X0179335Y0044157D01*
X0178928Y0044193D01*
X0178533Y0044299D01*
X0178163Y0044471D01*
X0177829Y0044706D01*
X0177540Y0044994D01*
X0177306Y0045329D01*
X0177332Y0045291D02*
X0181337Y0045291D01*
X0181310Y0045253D02*
X0177359Y0045253D01*
X0177385Y0045215D02*
X0181284Y0045215D01*
X0181257Y0045177D02*
X0177412Y0045177D01*
X0177438Y0045139D02*
X0181231Y0045139D01*
X0181204Y0045101D02*
X0177465Y0045101D01*
X0177491Y0045064D02*
X0181178Y0045064D01*
X0181151Y0045026D02*
X0177518Y0045026D01*
X0177546Y0044988D02*
X0181123Y0044988D01*
X0181085Y0044950D02*
X0177584Y0044950D01*
X0177622Y0044912D02*
X0181047Y0044912D01*
X0181009Y0044874D02*
X0177660Y0044874D01*
X0177698Y0044836D02*
X0180971Y0044836D01*
X0180933Y0044798D02*
X0177736Y0044798D01*
X0177774Y0044761D02*
X0180896Y0044761D01*
X0180858Y0044723D02*
X0177812Y0044723D01*
X0177858Y0044685D02*
X0180811Y0044685D01*
X0180757Y0044647D02*
X0177912Y0044647D01*
X0177967Y0044609D02*
X0180703Y0044609D01*
X0180649Y0044571D02*
X0178021Y0044571D01*
X0178075Y0044533D02*
X0180594Y0044533D01*
X0180540Y0044495D02*
X0178129Y0044495D01*
X0178193Y0044458D02*
X0180476Y0044458D01*
X0180395Y0044420D02*
X0178274Y0044420D01*
X0178355Y0044382D02*
X0180314Y0044382D01*
X0180232Y0044344D02*
X0178437Y0044344D01*
X0178518Y0044306D02*
X0180151Y0044306D01*
X0180021Y0044268D02*
X0178648Y0044268D01*
X0178789Y0044230D02*
X0179880Y0044230D01*
X0179735Y0044192D02*
X0178935Y0044192D01*
X0176996Y0046541D02*
X0181674Y0046541D01*
X0181670Y0046579D02*
X0176999Y0046579D01*
X0177002Y0046617D02*
X0181667Y0046617D01*
X0181664Y0046655D02*
X0177006Y0046655D01*
X0177009Y0046693D02*
X0181660Y0046693D01*
X0181657Y0046730D02*
X0177012Y0046730D01*
X0177016Y0046768D02*
X0181654Y0046768D01*
X0181650Y0046806D02*
X0177019Y0046806D01*
X0177022Y0046844D02*
X0181647Y0046844D01*
X0181644Y0046882D02*
X0177025Y0046882D01*
X0177031Y0046920D02*
X0181638Y0046920D01*
X0181628Y0046958D02*
X0177041Y0046958D01*
X0177051Y0046996D02*
X0181618Y0046996D01*
X0181608Y0047033D02*
X0177062Y0047033D01*
X0177072Y0047071D02*
X0181598Y0047071D01*
X0181587Y0047109D02*
X0177082Y0047109D01*
X0177092Y0047147D02*
X0181577Y0047147D01*
X0181567Y0047185D02*
X0177102Y0047185D01*
X0177112Y0047223D02*
X0181557Y0047223D01*
X0181547Y0047261D02*
X0177123Y0047261D01*
X0177133Y0047299D02*
X0181537Y0047299D01*
X0181519Y0047336D02*
X0177150Y0047336D01*
X0177168Y0047374D02*
X0181502Y0047374D01*
X0181484Y0047412D02*
X0177185Y0047412D01*
X0177203Y0047450D02*
X0181466Y0047450D01*
X0181449Y0047488D02*
X0177221Y0047488D01*
X0177238Y0047526D02*
X0181431Y0047526D01*
X0181413Y0047564D02*
X0177256Y0047564D01*
X0177273Y0047602D02*
X0181396Y0047602D01*
X0181378Y0047640D02*
X0177291Y0047640D01*
X0177310Y0047677D02*
X0181359Y0047677D01*
X0181333Y0047715D02*
X0177337Y0047715D01*
X0177363Y0047753D02*
X0181306Y0047753D01*
X0181280Y0047791D02*
X0177390Y0047791D01*
X0177416Y0047829D02*
X0181253Y0047829D01*
X0181226Y0047867D02*
X0177443Y0047867D01*
X0177469Y0047905D02*
X0181200Y0047905D01*
X0181173Y0047943D02*
X0177496Y0047943D01*
X0177522Y0047980D02*
X0181147Y0047980D01*
X0181117Y0048018D02*
X0177553Y0048018D01*
X0177590Y0048056D02*
X0181079Y0048056D01*
X0181041Y0048094D02*
X0177628Y0048094D01*
X0177666Y0048132D02*
X0181003Y0048132D01*
X0180965Y0048170D02*
X0177704Y0048170D01*
X0177742Y0048208D02*
X0180927Y0048208D01*
X0180889Y0048246D02*
X0177780Y0048246D01*
X0177818Y0048284D02*
X0180852Y0048284D01*
X0180802Y0048321D02*
X0177867Y0048321D01*
X0177921Y0048359D02*
X0180748Y0048359D01*
X0180694Y0048397D02*
X0177975Y0048397D01*
X0178030Y0048435D02*
X0180640Y0048435D01*
X0180586Y0048473D02*
X0178084Y0048473D01*
X0178138Y0048511D02*
X0180532Y0048511D01*
X0180463Y0048549D02*
X0178206Y0048549D01*
X0178288Y0048587D02*
X0180382Y0048587D01*
X0180300Y0048624D02*
X0178369Y0048624D01*
X0178450Y0048662D02*
X0180219Y0048662D01*
X0180138Y0048700D02*
X0178531Y0048700D01*
X0178671Y0048738D02*
X0179998Y0048738D01*
X0179857Y0048776D02*
X0178812Y0048776D01*
X0179006Y0048814D02*
X0179664Y0048814D01*
M02*
