G75*
%MOIN*%
%OFA0B0*%
%FSLAX25Y25*%
%IPPOS*%
%LPD*%
%AMOC8*
5,1,8,0,0,1.08239X$1,22.5*
%
%ADD10C,0.00000*%
%ADD11C,0.00500*%
%ADD12C,0.00800*%
%ADD13C,0.00100*%
%ADD14C,0.00600*%
%ADD15C,0.00472*%
%ADD16C,0.00400*%
%ADD17R,0.00250X0.00050*%
%ADD18R,0.00550X0.00050*%
%ADD19R,0.00800X0.00050*%
%ADD20R,0.01050X0.00050*%
%ADD21R,0.01250X0.00050*%
%ADD22R,0.01400X0.00050*%
%ADD23R,0.01600X0.00050*%
%ADD24R,0.01750X0.00050*%
%ADD25R,0.01850X0.00050*%
%ADD26R,0.02000X0.00050*%
%ADD27R,0.02100X0.00050*%
%ADD28R,0.02150X0.00050*%
%ADD29R,0.02300X0.00050*%
%ADD30R,0.02350X0.00050*%
%ADD31R,0.02400X0.00050*%
%ADD32R,0.00100X0.00050*%
%ADD33R,0.02500X0.00050*%
%ADD34R,0.02550X0.00050*%
%ADD35R,0.01900X0.00050*%
%ADD36R,0.02050X0.00050*%
%ADD37R,0.02600X0.00050*%
%ADD38R,0.02250X0.00050*%
%ADD39R,0.02650X0.00050*%
%ADD40R,0.02450X0.00050*%
%ADD41R,0.02700X0.00050*%
%ADD42R,0.02750X0.00050*%
%ADD43R,0.02800X0.00050*%
%ADD44R,0.01100X0.00050*%
%ADD45R,0.00900X0.00050*%
%ADD46R,0.01200X0.00050*%
%ADD47R,0.02950X0.00050*%
%ADD48R,0.00950X0.00050*%
%ADD49R,0.00700X0.00050*%
%ADD50R,0.00400X0.00050*%
%ADD51R,0.01000X0.00050*%
%ADD52R,0.00650X0.00050*%
%ADD53R,0.01150X0.00050*%
%ADD54R,0.00850X0.00050*%
%ADD55R,0.00600X0.00050*%
%ADD56R,0.02850X0.00050*%
%ADD57R,0.02900X0.00050*%
%ADD58R,0.00750X0.00050*%
%ADD59R,0.00500X0.00050*%
%ADD60R,0.01700X0.00050*%
%ADD61R,0.00200X0.00050*%
%ADD62R,0.00450X0.00050*%
%ADD63R,0.01500X0.00050*%
%ADD64R,0.01350X0.00050*%
%ADD65R,0.01550X0.00050*%
%ADD66R,0.01800X0.00050*%
%ADD67R,0.02200X0.00050*%
%ADD68R,0.03200X0.00050*%
%ADD69R,0.03500X0.00050*%
%ADD70R,0.01300X0.00050*%
%ADD71R,0.03750X0.00050*%
%ADD72R,0.04050X0.00050*%
%ADD73R,0.01450X0.00050*%
%ADD74R,0.04300X0.00050*%
%ADD75R,0.04600X0.00050*%
%ADD76R,0.04900X0.00050*%
%ADD77R,0.01650X0.00050*%
%ADD78R,0.05250X0.00050*%
%ADD79R,0.05550X0.00050*%
%ADD80R,0.05900X0.00050*%
%ADD81R,0.00350X0.00050*%
%ADD82R,0.06250X0.00050*%
%ADD83R,0.06650X0.00050*%
%ADD84R,0.00300X0.00050*%
%ADD85R,0.07050X0.00050*%
%ADD86R,0.07500X0.00050*%
%ADD87R,0.08000X0.00050*%
%ADD88R,0.00150X0.00050*%
%ADD89R,0.08650X0.00050*%
%ADD90R,0.09550X0.00050*%
%ADD91R,0.09750X0.00050*%
%ADD92R,0.09900X0.00050*%
%ADD93R,0.10100X0.00050*%
%ADD94R,0.10250X0.00050*%
%ADD95R,0.10450X0.00050*%
%ADD96R,0.10650X0.00050*%
%ADD97R,0.10850X0.00050*%
%ADD98R,0.11000X0.00050*%
%ADD99R,0.11200X0.00050*%
%ADD100R,0.11350X0.00050*%
%ADD101R,0.11450X0.00050*%
%ADD102R,0.03700X0.00050*%
%ADD103R,0.03650X0.00050*%
%ADD104R,0.03600X0.00050*%
%ADD105R,0.09700X0.00050*%
%ADD106R,0.03100X0.00050*%
%ADD107R,0.03050X0.00050*%
%ADD108R,0.03300X0.00050*%
%ADD109R,0.01950X0.00050*%
%ADD110R,0.06600X0.00050*%
D10*
X0001000Y0001000D02*
X0001000Y0090961D01*
X0149701Y0090961D01*
X0149701Y0001000D01*
X0001000Y0001000D01*
D11*
X0003616Y0015291D02*
X0003684Y0050795D01*
X0003677Y0050823D02*
X0061157Y0050823D01*
X0061157Y0015390D01*
X0003677Y0015390D01*
X0086197Y0018402D02*
X0086197Y0043598D01*
X0135803Y0043598D01*
X0135803Y0018402D01*
X0086197Y0018402D01*
X0085564Y0073350D02*
X0082562Y0073350D01*
X0084063Y0073350D02*
X0084063Y0077854D01*
X0082562Y0076353D01*
X0080960Y0077103D02*
X0080210Y0077854D01*
X0077958Y0077854D01*
X0077958Y0073350D01*
X0080210Y0073350D01*
X0080960Y0074101D01*
X0080960Y0077103D01*
X0076356Y0077854D02*
X0073354Y0077854D01*
X0073354Y0073350D01*
X0076356Y0073350D01*
X0074855Y0075602D02*
X0073354Y0075602D01*
X0071753Y0073350D02*
X0068750Y0073350D01*
X0068750Y0077854D01*
X0116250Y0076955D02*
X0116955Y0076250D01*
X0118364Y0076250D01*
X0119069Y0076955D01*
X0119069Y0080478D01*
X0120600Y0079773D02*
X0121305Y0080478D01*
X0122714Y0080478D01*
X0123419Y0079773D01*
X0122714Y0078364D02*
X0121305Y0078364D01*
X0120600Y0079069D01*
X0120600Y0079773D01*
X0122714Y0078364D02*
X0123419Y0077659D01*
X0123419Y0076955D01*
X0122714Y0076250D01*
X0121305Y0076250D01*
X0120600Y0076955D01*
X0122010Y0075545D02*
X0122010Y0081183D01*
X0124950Y0079069D02*
X0126360Y0080478D01*
X0126360Y0076250D01*
X0127769Y0076250D02*
X0124950Y0076250D01*
X0116250Y0076955D02*
X0116250Y0080478D01*
D12*
X0066000Y0078500D02*
X0066000Y0063500D01*
D13*
X0066329Y0078809D02*
X0065609Y0078269D01*
X0065610Y0078270D02*
X0065429Y0078503D01*
X0065243Y0078731D01*
X0065051Y0078955D01*
X0064854Y0079174D01*
X0064652Y0079388D01*
X0064444Y0079597D01*
X0064231Y0079800D01*
X0064014Y0079999D01*
X0063791Y0080192D01*
X0063564Y0080380D01*
X0063333Y0080562D01*
X0063097Y0080739D01*
X0062856Y0080909D01*
X0062612Y0081074D01*
X0062364Y0081232D01*
X0062112Y0081385D01*
X0061856Y0081531D01*
X0061597Y0081671D01*
X0061334Y0081805D01*
X0061069Y0081932D01*
X0060800Y0082053D01*
X0060528Y0082167D01*
X0060254Y0082274D01*
X0059977Y0082375D01*
X0059698Y0082469D01*
X0059416Y0082556D01*
X0059133Y0082636D01*
X0058847Y0082709D01*
X0058560Y0082775D01*
X0058271Y0082834D01*
X0057981Y0082886D01*
X0057690Y0082931D01*
X0057398Y0082969D01*
X0057105Y0082999D01*
X0056811Y0083023D01*
X0056517Y0083039D01*
X0056223Y0083048D01*
X0055928Y0083050D01*
X0055633Y0083044D01*
X0055339Y0083032D01*
X0055045Y0083012D01*
X0054752Y0082985D01*
X0054459Y0082951D01*
X0054167Y0082910D01*
X0053877Y0082861D01*
X0053587Y0082806D01*
X0053300Y0082744D01*
X0053013Y0082674D01*
X0052729Y0082597D01*
X0052446Y0082514D01*
X0052166Y0082424D01*
X0051888Y0082327D01*
X0051612Y0082223D01*
X0051339Y0082112D01*
X0051069Y0081995D01*
X0050801Y0081871D01*
X0050537Y0081741D01*
X0050276Y0081604D01*
X0050019Y0081461D01*
X0049765Y0081311D01*
X0049514Y0081156D01*
X0049268Y0080994D01*
X0049026Y0080827D01*
X0048788Y0080653D01*
X0048554Y0080474D01*
X0048324Y0080289D01*
X0048100Y0080099D01*
X0047879Y0079903D01*
X0047664Y0079702D01*
X0047454Y0079495D01*
X0047249Y0079284D01*
X0047049Y0079067D01*
X0046854Y0078846D01*
X0046665Y0078620D01*
X0046482Y0078390D01*
X0046304Y0078155D01*
X0046132Y0077915D01*
X0045966Y0077672D01*
X0045806Y0077425D01*
X0045652Y0077174D01*
X0045504Y0076919D01*
X0045362Y0076660D01*
X0045227Y0076399D01*
X0045098Y0076134D01*
X0044976Y0075866D01*
X0044860Y0075595D01*
X0044751Y0075321D01*
X0044649Y0075045D01*
X0044554Y0074766D01*
X0044465Y0074485D01*
X0044383Y0074202D01*
X0044308Y0073917D01*
X0044241Y0073630D01*
X0044180Y0073342D01*
X0044126Y0073052D01*
X0044079Y0072761D01*
X0044040Y0072469D01*
X0044008Y0072177D01*
X0043982Y0071883D01*
X0043964Y0071589D01*
X0043954Y0071295D01*
X0043950Y0071000D01*
X0043954Y0070705D01*
X0043964Y0070411D01*
X0043982Y0070117D01*
X0044008Y0069823D01*
X0044040Y0069531D01*
X0044079Y0069239D01*
X0044126Y0068948D01*
X0044180Y0068658D01*
X0044241Y0068370D01*
X0044308Y0068083D01*
X0044383Y0067798D01*
X0044465Y0067515D01*
X0044554Y0067234D01*
X0044649Y0066955D01*
X0044751Y0066679D01*
X0044860Y0066405D01*
X0044976Y0066134D01*
X0045098Y0065866D01*
X0045227Y0065601D01*
X0045362Y0065340D01*
X0045504Y0065081D01*
X0045652Y0064826D01*
X0045806Y0064575D01*
X0045966Y0064328D01*
X0046132Y0064085D01*
X0046304Y0063845D01*
X0046482Y0063610D01*
X0046665Y0063380D01*
X0046854Y0063154D01*
X0047049Y0062933D01*
X0047249Y0062716D01*
X0047454Y0062505D01*
X0047664Y0062298D01*
X0047879Y0062097D01*
X0048100Y0061901D01*
X0048324Y0061711D01*
X0048554Y0061526D01*
X0048788Y0061347D01*
X0049026Y0061173D01*
X0049268Y0061006D01*
X0049514Y0060844D01*
X0049765Y0060689D01*
X0050019Y0060539D01*
X0050276Y0060396D01*
X0050537Y0060259D01*
X0050801Y0060129D01*
X0051069Y0060005D01*
X0051339Y0059888D01*
X0051612Y0059777D01*
X0051888Y0059673D01*
X0052166Y0059576D01*
X0052446Y0059486D01*
X0052729Y0059403D01*
X0053013Y0059326D01*
X0053300Y0059256D01*
X0053587Y0059194D01*
X0053877Y0059139D01*
X0054167Y0059090D01*
X0054459Y0059049D01*
X0054752Y0059015D01*
X0055045Y0058988D01*
X0055339Y0058968D01*
X0055633Y0058956D01*
X0055928Y0058950D01*
X0056223Y0058952D01*
X0056517Y0058961D01*
X0056811Y0058977D01*
X0057105Y0059001D01*
X0057398Y0059031D01*
X0057690Y0059069D01*
X0057981Y0059114D01*
X0058271Y0059166D01*
X0058560Y0059225D01*
X0058847Y0059291D01*
X0059133Y0059364D01*
X0059416Y0059444D01*
X0059698Y0059531D01*
X0059977Y0059625D01*
X0060254Y0059726D01*
X0060528Y0059833D01*
X0060800Y0059947D01*
X0061069Y0060068D01*
X0061334Y0060195D01*
X0061597Y0060329D01*
X0061856Y0060469D01*
X0062112Y0060615D01*
X0062364Y0060768D01*
X0062612Y0060926D01*
X0062856Y0061091D01*
X0063097Y0061261D01*
X0063333Y0061438D01*
X0063564Y0061620D01*
X0063791Y0061808D01*
X0064014Y0062001D01*
X0064231Y0062200D01*
X0064444Y0062403D01*
X0064652Y0062612D01*
X0064854Y0062826D01*
X0065051Y0063045D01*
X0065243Y0063269D01*
X0065429Y0063497D01*
X0065610Y0063730D01*
X0066329Y0063191D01*
X0066330Y0063190D01*
X0066136Y0062940D01*
X0065936Y0062694D01*
X0065730Y0062454D01*
X0065518Y0062219D01*
X0065300Y0061989D01*
X0065077Y0061764D01*
X0064849Y0061545D01*
X0064615Y0061331D01*
X0064376Y0061123D01*
X0064132Y0060921D01*
X0063883Y0060726D01*
X0063629Y0060536D01*
X0063371Y0060353D01*
X0063109Y0060176D01*
X0062842Y0060005D01*
X0062571Y0059841D01*
X0062296Y0059684D01*
X0062018Y0059533D01*
X0061735Y0059389D01*
X0061450Y0059253D01*
X0061161Y0059123D01*
X0060869Y0059000D01*
X0060574Y0058885D01*
X0060277Y0058777D01*
X0059976Y0058676D01*
X0059674Y0058582D01*
X0059369Y0058496D01*
X0059062Y0058417D01*
X0058754Y0058346D01*
X0058444Y0058283D01*
X0058132Y0058227D01*
X0057819Y0058178D01*
X0057505Y0058138D01*
X0057190Y0058105D01*
X0056874Y0058080D01*
X0056558Y0058062D01*
X0056242Y0058052D01*
X0055925Y0058050D01*
X0055608Y0058056D01*
X0055292Y0058069D01*
X0054976Y0058091D01*
X0054661Y0058119D01*
X0054346Y0058156D01*
X0054033Y0058200D01*
X0053720Y0058252D01*
X0053409Y0058312D01*
X0053100Y0058379D01*
X0052792Y0058454D01*
X0052486Y0058536D01*
X0052183Y0058625D01*
X0051881Y0058722D01*
X0051582Y0058827D01*
X0051286Y0058939D01*
X0050992Y0059057D01*
X0050702Y0059183D01*
X0050415Y0059316D01*
X0050130Y0059457D01*
X0049850Y0059604D01*
X0049573Y0059757D01*
X0049300Y0059918D01*
X0049031Y0060085D01*
X0048766Y0060259D01*
X0048506Y0060439D01*
X0048250Y0060625D01*
X0047999Y0060818D01*
X0047752Y0061016D01*
X0047510Y0061221D01*
X0047274Y0061431D01*
X0047042Y0061648D01*
X0046817Y0061870D01*
X0046596Y0062097D01*
X0046381Y0062329D01*
X0046172Y0062567D01*
X0045969Y0062810D01*
X0045771Y0063058D01*
X0045580Y0063310D01*
X0045395Y0063567D01*
X0045217Y0063829D01*
X0045045Y0064095D01*
X0044879Y0064364D01*
X0044720Y0064638D01*
X0044568Y0064916D01*
X0044423Y0065197D01*
X0044284Y0065482D01*
X0044153Y0065770D01*
X0044029Y0066062D01*
X0043911Y0066356D01*
X0043801Y0066653D01*
X0043699Y0066952D01*
X0043604Y0067254D01*
X0043516Y0067558D01*
X0043435Y0067865D01*
X0043362Y0068173D01*
X0043297Y0068483D01*
X0043239Y0068794D01*
X0043189Y0069107D01*
X0043147Y0069421D01*
X0043112Y0069735D01*
X0043085Y0070051D01*
X0043065Y0070367D01*
X0043054Y0070683D01*
X0043050Y0071000D01*
X0043054Y0071317D01*
X0043065Y0071633D01*
X0043085Y0071949D01*
X0043112Y0072265D01*
X0043147Y0072579D01*
X0043189Y0072893D01*
X0043239Y0073206D01*
X0043297Y0073517D01*
X0043362Y0073827D01*
X0043435Y0074135D01*
X0043516Y0074442D01*
X0043604Y0074746D01*
X0043699Y0075048D01*
X0043801Y0075347D01*
X0043911Y0075644D01*
X0044029Y0075938D01*
X0044153Y0076230D01*
X0044284Y0076518D01*
X0044423Y0076803D01*
X0044568Y0077084D01*
X0044720Y0077362D01*
X0044879Y0077636D01*
X0045045Y0077905D01*
X0045217Y0078171D01*
X0045395Y0078433D01*
X0045580Y0078690D01*
X0045771Y0078942D01*
X0045969Y0079190D01*
X0046172Y0079433D01*
X0046381Y0079671D01*
X0046596Y0079903D01*
X0046817Y0080130D01*
X0047042Y0080352D01*
X0047274Y0080569D01*
X0047510Y0080779D01*
X0047752Y0080984D01*
X0047999Y0081182D01*
X0048250Y0081375D01*
X0048506Y0081561D01*
X0048766Y0081741D01*
X0049031Y0081915D01*
X0049300Y0082082D01*
X0049573Y0082243D01*
X0049850Y0082396D01*
X0050130Y0082543D01*
X0050415Y0082684D01*
X0050702Y0082817D01*
X0050992Y0082943D01*
X0051286Y0083061D01*
X0051582Y0083173D01*
X0051881Y0083278D01*
X0052183Y0083375D01*
X0052486Y0083464D01*
X0052792Y0083546D01*
X0053100Y0083621D01*
X0053409Y0083688D01*
X0053720Y0083748D01*
X0054033Y0083800D01*
X0054346Y0083844D01*
X0054661Y0083881D01*
X0054976Y0083909D01*
X0055292Y0083931D01*
X0055608Y0083944D01*
X0055925Y0083950D01*
X0056242Y0083948D01*
X0056558Y0083938D01*
X0056874Y0083920D01*
X0057190Y0083895D01*
X0057505Y0083862D01*
X0057819Y0083822D01*
X0058132Y0083773D01*
X0058444Y0083717D01*
X0058754Y0083654D01*
X0059062Y0083583D01*
X0059369Y0083504D01*
X0059674Y0083418D01*
X0059976Y0083324D01*
X0060277Y0083223D01*
X0060574Y0083115D01*
X0060869Y0083000D01*
X0061161Y0082877D01*
X0061450Y0082747D01*
X0061735Y0082611D01*
X0062018Y0082467D01*
X0062296Y0082316D01*
X0062571Y0082159D01*
X0062842Y0081995D01*
X0063109Y0081824D01*
X0063371Y0081647D01*
X0063629Y0081464D01*
X0063883Y0081274D01*
X0064132Y0081079D01*
X0064376Y0080877D01*
X0064615Y0080669D01*
X0064849Y0080455D01*
X0065077Y0080236D01*
X0065300Y0080011D01*
X0065518Y0079781D01*
X0065730Y0079546D01*
X0065936Y0079306D01*
X0066136Y0079060D01*
X0066330Y0078810D01*
X0066255Y0078754D01*
X0066062Y0079002D01*
X0065863Y0079246D01*
X0065659Y0079484D01*
X0065449Y0079718D01*
X0065233Y0079946D01*
X0065011Y0080169D01*
X0064784Y0080387D01*
X0064552Y0080599D01*
X0064315Y0080805D01*
X0064073Y0081006D01*
X0063825Y0081200D01*
X0063574Y0081388D01*
X0063317Y0081570D01*
X0063057Y0081746D01*
X0062792Y0081915D01*
X0062523Y0082078D01*
X0062250Y0082234D01*
X0061974Y0082384D01*
X0061694Y0082526D01*
X0061410Y0082662D01*
X0061123Y0082791D01*
X0060833Y0082913D01*
X0060541Y0083027D01*
X0060245Y0083135D01*
X0059947Y0083235D01*
X0059647Y0083328D01*
X0059344Y0083413D01*
X0059040Y0083491D01*
X0058734Y0083562D01*
X0058426Y0083625D01*
X0058116Y0083681D01*
X0057806Y0083729D01*
X0057494Y0083769D01*
X0057181Y0083802D01*
X0056868Y0083827D01*
X0056554Y0083844D01*
X0056240Y0083854D01*
X0055925Y0083856D01*
X0055611Y0083850D01*
X0055297Y0083837D01*
X0054983Y0083816D01*
X0054670Y0083787D01*
X0054358Y0083751D01*
X0054047Y0083707D01*
X0053737Y0083655D01*
X0053428Y0083596D01*
X0053121Y0083529D01*
X0052815Y0083455D01*
X0052512Y0083374D01*
X0052210Y0083285D01*
X0051911Y0083188D01*
X0051614Y0083085D01*
X0051320Y0082974D01*
X0051029Y0082856D01*
X0050740Y0082731D01*
X0050455Y0082599D01*
X0050173Y0082460D01*
X0049895Y0082314D01*
X0049620Y0082161D01*
X0049349Y0082002D01*
X0049082Y0081836D01*
X0048819Y0081663D01*
X0048560Y0081485D01*
X0048306Y0081300D01*
X0048057Y0081108D01*
X0047812Y0080911D01*
X0047572Y0080708D01*
X0047337Y0080499D01*
X0047107Y0080284D01*
X0046883Y0080064D01*
X0046664Y0079839D01*
X0046451Y0079608D01*
X0046243Y0079372D01*
X0046041Y0079130D01*
X0045846Y0078885D01*
X0045656Y0078634D01*
X0045472Y0078379D01*
X0045295Y0078119D01*
X0045124Y0077855D01*
X0044960Y0077587D01*
X0044802Y0077315D01*
X0044651Y0077040D01*
X0044507Y0076760D01*
X0044369Y0076478D01*
X0044239Y0076192D01*
X0044115Y0075903D01*
X0043999Y0075610D01*
X0043890Y0075316D01*
X0043788Y0075018D01*
X0043694Y0074719D01*
X0043606Y0074416D01*
X0043526Y0074112D01*
X0043454Y0073807D01*
X0043389Y0073499D01*
X0043332Y0073190D01*
X0043282Y0072879D01*
X0043240Y0072568D01*
X0043205Y0072255D01*
X0043179Y0071942D01*
X0043159Y0071628D01*
X0043148Y0071314D01*
X0043144Y0071000D01*
X0043148Y0070686D01*
X0043159Y0070372D01*
X0043179Y0070058D01*
X0043205Y0069745D01*
X0043240Y0069432D01*
X0043282Y0069121D01*
X0043332Y0068810D01*
X0043389Y0068501D01*
X0043454Y0068193D01*
X0043526Y0067888D01*
X0043606Y0067584D01*
X0043694Y0067281D01*
X0043788Y0066982D01*
X0043890Y0066684D01*
X0043999Y0066390D01*
X0044115Y0066097D01*
X0044239Y0065808D01*
X0044369Y0065522D01*
X0044507Y0065240D01*
X0044651Y0064960D01*
X0044802Y0064685D01*
X0044960Y0064413D01*
X0045124Y0064145D01*
X0045295Y0063881D01*
X0045472Y0063621D01*
X0045656Y0063366D01*
X0045846Y0063115D01*
X0046041Y0062870D01*
X0046243Y0062628D01*
X0046451Y0062392D01*
X0046664Y0062161D01*
X0046883Y0061936D01*
X0047107Y0061716D01*
X0047337Y0061501D01*
X0047572Y0061292D01*
X0047812Y0061089D01*
X0048057Y0060892D01*
X0048306Y0060700D01*
X0048560Y0060515D01*
X0048819Y0060337D01*
X0049082Y0060164D01*
X0049349Y0059998D01*
X0049620Y0059839D01*
X0049895Y0059686D01*
X0050173Y0059540D01*
X0050455Y0059401D01*
X0050740Y0059269D01*
X0051029Y0059144D01*
X0051320Y0059026D01*
X0051614Y0058915D01*
X0051911Y0058812D01*
X0052210Y0058715D01*
X0052512Y0058626D01*
X0052815Y0058545D01*
X0053121Y0058471D01*
X0053428Y0058404D01*
X0053737Y0058345D01*
X0054047Y0058293D01*
X0054358Y0058249D01*
X0054670Y0058213D01*
X0054983Y0058184D01*
X0055297Y0058163D01*
X0055611Y0058150D01*
X0055925Y0058144D01*
X0056240Y0058146D01*
X0056554Y0058156D01*
X0056868Y0058173D01*
X0057181Y0058198D01*
X0057494Y0058231D01*
X0057806Y0058271D01*
X0058116Y0058319D01*
X0058426Y0058375D01*
X0058734Y0058438D01*
X0059040Y0058509D01*
X0059344Y0058587D01*
X0059647Y0058672D01*
X0059947Y0058765D01*
X0060245Y0058865D01*
X0060541Y0058973D01*
X0060833Y0059087D01*
X0061123Y0059209D01*
X0061410Y0059338D01*
X0061694Y0059474D01*
X0061974Y0059616D01*
X0062250Y0059766D01*
X0062523Y0059922D01*
X0062792Y0060085D01*
X0063057Y0060254D01*
X0063317Y0060430D01*
X0063574Y0060612D01*
X0063825Y0060800D01*
X0064073Y0060994D01*
X0064315Y0061195D01*
X0064552Y0061401D01*
X0064784Y0061613D01*
X0065011Y0061831D01*
X0065233Y0062054D01*
X0065449Y0062282D01*
X0065659Y0062516D01*
X0065863Y0062754D01*
X0066062Y0062998D01*
X0066255Y0063246D01*
X0066180Y0063303D01*
X0065988Y0063056D01*
X0065791Y0062814D01*
X0065588Y0062577D01*
X0065379Y0062346D01*
X0065165Y0062119D01*
X0064945Y0061897D01*
X0064720Y0061681D01*
X0064489Y0061471D01*
X0064254Y0061266D01*
X0064013Y0061067D01*
X0063768Y0060874D01*
X0063518Y0060688D01*
X0063264Y0060507D01*
X0063005Y0060332D01*
X0062742Y0060164D01*
X0062475Y0060003D01*
X0062204Y0059848D01*
X0061930Y0059699D01*
X0061652Y0059558D01*
X0061370Y0059423D01*
X0061086Y0059295D01*
X0060798Y0059174D01*
X0060507Y0059060D01*
X0060214Y0058954D01*
X0059918Y0058854D01*
X0059620Y0058762D01*
X0059320Y0058677D01*
X0059017Y0058600D01*
X0058713Y0058530D01*
X0058408Y0058467D01*
X0058101Y0058412D01*
X0057792Y0058364D01*
X0057483Y0058324D01*
X0057172Y0058292D01*
X0056861Y0058267D01*
X0056550Y0058250D01*
X0056238Y0058240D01*
X0055926Y0058238D01*
X0055614Y0058244D01*
X0055302Y0058257D01*
X0054991Y0058278D01*
X0054680Y0058306D01*
X0054370Y0058343D01*
X0054061Y0058386D01*
X0053753Y0058437D01*
X0053446Y0058496D01*
X0053142Y0058562D01*
X0052838Y0058636D01*
X0052537Y0058717D01*
X0052238Y0058805D01*
X0051941Y0058901D01*
X0051646Y0059004D01*
X0051354Y0059114D01*
X0051065Y0059231D01*
X0050778Y0059355D01*
X0050495Y0059486D01*
X0050215Y0059624D01*
X0049939Y0059769D01*
X0049666Y0059921D01*
X0049397Y0060079D01*
X0049132Y0060244D01*
X0048871Y0060415D01*
X0048615Y0060592D01*
X0048362Y0060776D01*
X0048115Y0060966D01*
X0047872Y0061161D01*
X0047633Y0061363D01*
X0047400Y0061571D01*
X0047172Y0061784D01*
X0046950Y0062002D01*
X0046732Y0062226D01*
X0046521Y0062455D01*
X0046315Y0062690D01*
X0046114Y0062929D01*
X0045920Y0063173D01*
X0045732Y0063422D01*
X0045549Y0063675D01*
X0045373Y0063933D01*
X0045204Y0064195D01*
X0045041Y0064461D01*
X0044884Y0064731D01*
X0044734Y0065005D01*
X0044591Y0065282D01*
X0044454Y0065562D01*
X0044325Y0065846D01*
X0044202Y0066133D01*
X0044087Y0066423D01*
X0043979Y0066716D01*
X0043877Y0067011D01*
X0043783Y0067309D01*
X0043697Y0067609D01*
X0043618Y0067910D01*
X0043546Y0068214D01*
X0043481Y0068519D01*
X0043424Y0068826D01*
X0043375Y0069134D01*
X0043333Y0069444D01*
X0043299Y0069754D01*
X0043272Y0070065D01*
X0043253Y0070376D01*
X0043242Y0070688D01*
X0043238Y0071000D01*
X0043242Y0071312D01*
X0043253Y0071624D01*
X0043272Y0071935D01*
X0043299Y0072246D01*
X0043333Y0072556D01*
X0043375Y0072866D01*
X0043424Y0073174D01*
X0043481Y0073481D01*
X0043546Y0073786D01*
X0043618Y0074090D01*
X0043697Y0074391D01*
X0043783Y0074691D01*
X0043877Y0074989D01*
X0043979Y0075284D01*
X0044087Y0075577D01*
X0044202Y0075867D01*
X0044325Y0076154D01*
X0044454Y0076438D01*
X0044591Y0076718D01*
X0044734Y0076995D01*
X0044884Y0077269D01*
X0045041Y0077539D01*
X0045204Y0077805D01*
X0045373Y0078067D01*
X0045549Y0078325D01*
X0045732Y0078578D01*
X0045920Y0078827D01*
X0046114Y0079071D01*
X0046315Y0079310D01*
X0046521Y0079545D01*
X0046732Y0079774D01*
X0046950Y0079998D01*
X0047172Y0080216D01*
X0047400Y0080429D01*
X0047633Y0080637D01*
X0047872Y0080839D01*
X0048115Y0081034D01*
X0048362Y0081224D01*
X0048615Y0081408D01*
X0048871Y0081585D01*
X0049132Y0081756D01*
X0049397Y0081921D01*
X0049666Y0082079D01*
X0049939Y0082231D01*
X0050215Y0082376D01*
X0050495Y0082514D01*
X0050778Y0082645D01*
X0051065Y0082769D01*
X0051354Y0082886D01*
X0051646Y0082996D01*
X0051941Y0083099D01*
X0052238Y0083195D01*
X0052537Y0083283D01*
X0052838Y0083364D01*
X0053142Y0083438D01*
X0053446Y0083504D01*
X0053753Y0083563D01*
X0054061Y0083614D01*
X0054370Y0083657D01*
X0054680Y0083694D01*
X0054991Y0083722D01*
X0055302Y0083743D01*
X0055614Y0083756D01*
X0055926Y0083762D01*
X0056238Y0083760D01*
X0056550Y0083750D01*
X0056861Y0083733D01*
X0057172Y0083708D01*
X0057483Y0083676D01*
X0057792Y0083636D01*
X0058101Y0083588D01*
X0058408Y0083533D01*
X0058713Y0083470D01*
X0059017Y0083400D01*
X0059320Y0083323D01*
X0059620Y0083238D01*
X0059918Y0083146D01*
X0060214Y0083046D01*
X0060507Y0082940D01*
X0060798Y0082826D01*
X0061086Y0082705D01*
X0061370Y0082577D01*
X0061652Y0082442D01*
X0061930Y0082301D01*
X0062204Y0082152D01*
X0062475Y0081997D01*
X0062742Y0081836D01*
X0063005Y0081668D01*
X0063264Y0081493D01*
X0063518Y0081312D01*
X0063768Y0081126D01*
X0064013Y0080933D01*
X0064254Y0080734D01*
X0064489Y0080529D01*
X0064720Y0080319D01*
X0064945Y0080103D01*
X0065165Y0079881D01*
X0065379Y0079654D01*
X0065588Y0079423D01*
X0065791Y0079186D01*
X0065988Y0078944D01*
X0066180Y0078697D01*
X0066104Y0078641D01*
X0065914Y0078886D01*
X0065719Y0079126D01*
X0065517Y0079361D01*
X0065310Y0079591D01*
X0065097Y0079816D01*
X0064879Y0080036D01*
X0064655Y0080250D01*
X0064426Y0080459D01*
X0064193Y0080662D01*
X0063954Y0080860D01*
X0063711Y0081051D01*
X0063462Y0081237D01*
X0063210Y0081416D01*
X0062953Y0081589D01*
X0062692Y0081756D01*
X0062427Y0081917D01*
X0062158Y0082070D01*
X0061886Y0082218D01*
X0061610Y0082358D01*
X0061330Y0082492D01*
X0061048Y0082619D01*
X0060762Y0082739D01*
X0060474Y0082852D01*
X0060183Y0082958D01*
X0059889Y0083056D01*
X0059593Y0083148D01*
X0059295Y0083232D01*
X0058995Y0083309D01*
X0058693Y0083378D01*
X0058390Y0083441D01*
X0058085Y0083495D01*
X0057779Y0083543D01*
X0057471Y0083582D01*
X0057163Y0083614D01*
X0056855Y0083639D01*
X0056545Y0083656D01*
X0056236Y0083666D01*
X0055926Y0083668D01*
X0055616Y0083662D01*
X0055307Y0083649D01*
X0054998Y0083628D01*
X0054689Y0083600D01*
X0054382Y0083564D01*
X0054075Y0083521D01*
X0053769Y0083470D01*
X0053465Y0083412D01*
X0053162Y0083346D01*
X0052861Y0083273D01*
X0052562Y0083193D01*
X0052265Y0083105D01*
X0051970Y0083010D01*
X0051678Y0082908D01*
X0051388Y0082799D01*
X0051101Y0082682D01*
X0050817Y0082559D01*
X0050536Y0082429D01*
X0050258Y0082292D01*
X0049984Y0082148D01*
X0049713Y0081998D01*
X0049446Y0081841D01*
X0049183Y0081677D01*
X0048924Y0081507D01*
X0048669Y0081331D01*
X0048418Y0081149D01*
X0048173Y0080960D01*
X0047931Y0080766D01*
X0047695Y0080566D01*
X0047464Y0080360D01*
X0047237Y0080148D01*
X0047016Y0079931D01*
X0046801Y0079709D01*
X0046590Y0079482D01*
X0046386Y0079249D01*
X0046187Y0079011D01*
X0045994Y0078769D01*
X0045807Y0078522D01*
X0045626Y0078271D01*
X0045452Y0078015D01*
X0045283Y0077755D01*
X0045121Y0077491D01*
X0044966Y0077223D01*
X0044817Y0076951D01*
X0044675Y0076676D01*
X0044539Y0076397D01*
X0044411Y0076116D01*
X0044289Y0075831D01*
X0044175Y0075543D01*
X0044067Y0075252D01*
X0043967Y0074959D01*
X0043873Y0074664D01*
X0043787Y0074366D01*
X0043709Y0074067D01*
X0043638Y0073765D01*
X0043574Y0073462D01*
X0043517Y0073158D01*
X0043468Y0072852D01*
X0043427Y0072545D01*
X0043393Y0072237D01*
X0043366Y0071928D01*
X0043347Y0071619D01*
X0043336Y0071310D01*
X0043332Y0071000D01*
X0043336Y0070690D01*
X0043347Y0070381D01*
X0043366Y0070072D01*
X0043393Y0069763D01*
X0043427Y0069455D01*
X0043468Y0069148D01*
X0043517Y0068842D01*
X0043574Y0068538D01*
X0043638Y0068235D01*
X0043709Y0067933D01*
X0043787Y0067634D01*
X0043873Y0067336D01*
X0043967Y0067041D01*
X0044067Y0066748D01*
X0044175Y0066457D01*
X0044289Y0066169D01*
X0044411Y0065884D01*
X0044539Y0065603D01*
X0044675Y0065324D01*
X0044817Y0065049D01*
X0044966Y0064777D01*
X0045121Y0064509D01*
X0045283Y0064245D01*
X0045452Y0063985D01*
X0045626Y0063729D01*
X0045807Y0063478D01*
X0045994Y0063231D01*
X0046187Y0062989D01*
X0046386Y0062751D01*
X0046590Y0062518D01*
X0046801Y0062291D01*
X0047016Y0062069D01*
X0047237Y0061852D01*
X0047464Y0061640D01*
X0047695Y0061434D01*
X0047931Y0061234D01*
X0048173Y0061040D01*
X0048418Y0060851D01*
X0048669Y0060669D01*
X0048924Y0060493D01*
X0049183Y0060323D01*
X0049446Y0060159D01*
X0049713Y0060002D01*
X0049984Y0059852D01*
X0050258Y0059708D01*
X0050536Y0059571D01*
X0050817Y0059441D01*
X0051101Y0059318D01*
X0051388Y0059201D01*
X0051678Y0059092D01*
X0051970Y0058990D01*
X0052265Y0058895D01*
X0052562Y0058807D01*
X0052861Y0058727D01*
X0053162Y0058654D01*
X0053465Y0058588D01*
X0053769Y0058530D01*
X0054075Y0058479D01*
X0054382Y0058436D01*
X0054689Y0058400D01*
X0054998Y0058372D01*
X0055307Y0058351D01*
X0055616Y0058338D01*
X0055926Y0058332D01*
X0056236Y0058334D01*
X0056545Y0058344D01*
X0056855Y0058361D01*
X0057163Y0058386D01*
X0057471Y0058418D01*
X0057779Y0058457D01*
X0058085Y0058505D01*
X0058390Y0058559D01*
X0058693Y0058622D01*
X0058995Y0058691D01*
X0059295Y0058768D01*
X0059593Y0058852D01*
X0059889Y0058944D01*
X0060183Y0059042D01*
X0060474Y0059148D01*
X0060762Y0059261D01*
X0061048Y0059381D01*
X0061330Y0059508D01*
X0061610Y0059642D01*
X0061886Y0059782D01*
X0062158Y0059930D01*
X0062427Y0060083D01*
X0062692Y0060244D01*
X0062953Y0060411D01*
X0063210Y0060584D01*
X0063462Y0060763D01*
X0063711Y0060949D01*
X0063954Y0061140D01*
X0064193Y0061338D01*
X0064426Y0061541D01*
X0064655Y0061750D01*
X0064879Y0061964D01*
X0065097Y0062184D01*
X0065310Y0062409D01*
X0065517Y0062639D01*
X0065719Y0062874D01*
X0065914Y0063114D01*
X0066104Y0063359D01*
X0066029Y0063416D01*
X0065841Y0063173D01*
X0065646Y0062934D01*
X0065446Y0062701D01*
X0065241Y0062473D01*
X0065029Y0062249D01*
X0064813Y0062031D01*
X0064591Y0061818D01*
X0064364Y0061611D01*
X0064132Y0061409D01*
X0063895Y0061213D01*
X0063653Y0061023D01*
X0063407Y0060839D01*
X0063156Y0060661D01*
X0062901Y0060489D01*
X0062642Y0060324D01*
X0062379Y0060164D01*
X0062112Y0060012D01*
X0061842Y0059865D01*
X0061568Y0059726D01*
X0061291Y0059593D01*
X0061010Y0059467D01*
X0060727Y0059348D01*
X0060440Y0059236D01*
X0060151Y0059131D01*
X0059860Y0059033D01*
X0059566Y0058942D01*
X0059270Y0058859D01*
X0058973Y0058782D01*
X0058673Y0058713D01*
X0058372Y0058652D01*
X0058069Y0058597D01*
X0057765Y0058551D01*
X0057460Y0058511D01*
X0057155Y0058479D01*
X0056848Y0058455D01*
X0056541Y0058438D01*
X0056234Y0058428D01*
X0055926Y0058426D01*
X0055619Y0058432D01*
X0055312Y0058445D01*
X0055005Y0058465D01*
X0054699Y0058494D01*
X0054393Y0058529D01*
X0054089Y0058572D01*
X0053786Y0058623D01*
X0053484Y0058680D01*
X0053183Y0058746D01*
X0052884Y0058818D01*
X0052588Y0058898D01*
X0052293Y0058985D01*
X0052000Y0059079D01*
X0051710Y0059181D01*
X0051422Y0059289D01*
X0051137Y0059404D01*
X0050855Y0059527D01*
X0050576Y0059656D01*
X0050300Y0059792D01*
X0050028Y0059935D01*
X0049759Y0060084D01*
X0049494Y0060240D01*
X0049233Y0060402D01*
X0048976Y0060571D01*
X0048723Y0060746D01*
X0048475Y0060927D01*
X0048231Y0061114D01*
X0047991Y0061307D01*
X0047757Y0061505D01*
X0047527Y0061710D01*
X0047302Y0061920D01*
X0047083Y0062135D01*
X0046869Y0062356D01*
X0046660Y0062581D01*
X0046457Y0062812D01*
X0046260Y0063048D01*
X0046068Y0063289D01*
X0045883Y0063534D01*
X0045703Y0063783D01*
X0045530Y0064037D01*
X0045363Y0064295D01*
X0045202Y0064557D01*
X0045048Y0064823D01*
X0044900Y0065093D01*
X0044759Y0065366D01*
X0044624Y0065643D01*
X0044497Y0065922D01*
X0044376Y0066205D01*
X0044262Y0066491D01*
X0044156Y0066779D01*
X0044056Y0067070D01*
X0043963Y0067363D01*
X0043878Y0067659D01*
X0043800Y0067956D01*
X0043729Y0068255D01*
X0043666Y0068556D01*
X0043610Y0068858D01*
X0043561Y0069162D01*
X0043520Y0069467D01*
X0043486Y0069772D01*
X0043460Y0070078D01*
X0043441Y0070385D01*
X0043430Y0070693D01*
X0043426Y0071000D01*
X0043430Y0071307D01*
X0043441Y0071615D01*
X0043460Y0071922D01*
X0043486Y0072228D01*
X0043520Y0072533D01*
X0043561Y0072838D01*
X0043610Y0073142D01*
X0043666Y0073444D01*
X0043729Y0073745D01*
X0043800Y0074044D01*
X0043878Y0074341D01*
X0043963Y0074637D01*
X0044056Y0074930D01*
X0044156Y0075221D01*
X0044262Y0075509D01*
X0044376Y0075795D01*
X0044497Y0076078D01*
X0044624Y0076357D01*
X0044759Y0076634D01*
X0044900Y0076907D01*
X0045048Y0077177D01*
X0045202Y0077443D01*
X0045363Y0077705D01*
X0045530Y0077963D01*
X0045703Y0078217D01*
X0045883Y0078466D01*
X0046068Y0078711D01*
X0046260Y0078952D01*
X0046457Y0079188D01*
X0046660Y0079419D01*
X0046869Y0079644D01*
X0047083Y0079865D01*
X0047302Y0080080D01*
X0047527Y0080290D01*
X0047757Y0080495D01*
X0047991Y0080693D01*
X0048231Y0080886D01*
X0048475Y0081073D01*
X0048723Y0081254D01*
X0048976Y0081429D01*
X0049233Y0081598D01*
X0049494Y0081760D01*
X0049759Y0081916D01*
X0050028Y0082065D01*
X0050300Y0082208D01*
X0050576Y0082344D01*
X0050855Y0082473D01*
X0051137Y0082596D01*
X0051422Y0082711D01*
X0051710Y0082819D01*
X0052000Y0082921D01*
X0052293Y0083015D01*
X0052588Y0083102D01*
X0052884Y0083182D01*
X0053183Y0083254D01*
X0053484Y0083320D01*
X0053786Y0083377D01*
X0054089Y0083428D01*
X0054393Y0083471D01*
X0054699Y0083506D01*
X0055005Y0083535D01*
X0055312Y0083555D01*
X0055619Y0083568D01*
X0055926Y0083574D01*
X0056234Y0083572D01*
X0056541Y0083562D01*
X0056848Y0083545D01*
X0057155Y0083521D01*
X0057460Y0083489D01*
X0057765Y0083449D01*
X0058069Y0083403D01*
X0058372Y0083348D01*
X0058673Y0083287D01*
X0058973Y0083218D01*
X0059270Y0083141D01*
X0059566Y0083058D01*
X0059860Y0082967D01*
X0060151Y0082869D01*
X0060440Y0082764D01*
X0060727Y0082652D01*
X0061010Y0082533D01*
X0061291Y0082407D01*
X0061568Y0082274D01*
X0061842Y0082135D01*
X0062112Y0081988D01*
X0062379Y0081836D01*
X0062642Y0081676D01*
X0062901Y0081511D01*
X0063156Y0081339D01*
X0063407Y0081161D01*
X0063653Y0080977D01*
X0063895Y0080787D01*
X0064132Y0080591D01*
X0064364Y0080389D01*
X0064591Y0080182D01*
X0064813Y0079969D01*
X0065029Y0079751D01*
X0065241Y0079527D01*
X0065446Y0079299D01*
X0065646Y0079066D01*
X0065841Y0078827D01*
X0066029Y0078584D01*
X0065954Y0078528D01*
X0065767Y0078769D01*
X0065574Y0079006D01*
X0065375Y0079237D01*
X0065171Y0079464D01*
X0064962Y0079686D01*
X0064747Y0079902D01*
X0064526Y0080113D01*
X0064301Y0080319D01*
X0064071Y0080519D01*
X0063835Y0080714D01*
X0063596Y0080902D01*
X0063351Y0081085D01*
X0063102Y0081262D01*
X0062849Y0081432D01*
X0062592Y0081597D01*
X0062331Y0081755D01*
X0062066Y0081906D01*
X0061798Y0082051D01*
X0061526Y0082190D01*
X0061251Y0082322D01*
X0060972Y0082447D01*
X0060691Y0082565D01*
X0060407Y0082676D01*
X0060120Y0082780D01*
X0059831Y0082878D01*
X0059539Y0082968D01*
X0059246Y0083051D01*
X0058950Y0083126D01*
X0058653Y0083195D01*
X0058354Y0083256D01*
X0058053Y0083310D01*
X0057752Y0083356D01*
X0057449Y0083396D01*
X0057146Y0083427D01*
X0056841Y0083452D01*
X0056537Y0083468D01*
X0056232Y0083478D01*
X0055927Y0083480D01*
X0055622Y0083474D01*
X0055317Y0083461D01*
X0055012Y0083441D01*
X0054708Y0083413D01*
X0054405Y0083378D01*
X0054103Y0083335D01*
X0053802Y0083285D01*
X0053502Y0083228D01*
X0053204Y0083163D01*
X0052908Y0083091D01*
X0052613Y0083012D01*
X0052320Y0082925D01*
X0052030Y0082832D01*
X0051742Y0082731D01*
X0051456Y0082623D01*
X0051173Y0082509D01*
X0050893Y0082387D01*
X0050616Y0082259D01*
X0050343Y0082124D01*
X0050073Y0081983D01*
X0049806Y0081834D01*
X0049543Y0081680D01*
X0049284Y0081519D01*
X0049028Y0081351D01*
X0048777Y0081178D01*
X0048531Y0080998D01*
X0048289Y0080812D01*
X0048051Y0080621D01*
X0047818Y0080424D01*
X0047590Y0080221D01*
X0047367Y0080012D01*
X0047149Y0079799D01*
X0046937Y0079580D01*
X0046730Y0079356D01*
X0046528Y0079126D01*
X0046332Y0078892D01*
X0046142Y0078654D01*
X0045958Y0078410D01*
X0045780Y0078163D01*
X0045608Y0077911D01*
X0045442Y0077654D01*
X0045283Y0077394D01*
X0045129Y0077130D01*
X0044983Y0076863D01*
X0044843Y0076592D01*
X0044709Y0076317D01*
X0044583Y0076040D01*
X0044463Y0075759D01*
X0044350Y0075475D01*
X0044244Y0075189D01*
X0044145Y0074901D01*
X0044053Y0074610D01*
X0043969Y0074316D01*
X0043891Y0074021D01*
X0043821Y0073724D01*
X0043758Y0073426D01*
X0043702Y0073126D01*
X0043654Y0072824D01*
X0043613Y0072522D01*
X0043580Y0072219D01*
X0043554Y0071915D01*
X0043535Y0071610D01*
X0043524Y0071305D01*
X0043520Y0071000D01*
X0043524Y0070695D01*
X0043535Y0070390D01*
X0043554Y0070085D01*
X0043580Y0069781D01*
X0043613Y0069478D01*
X0043654Y0069176D01*
X0043702Y0068874D01*
X0043758Y0068574D01*
X0043821Y0068276D01*
X0043891Y0067979D01*
X0043969Y0067684D01*
X0044053Y0067390D01*
X0044145Y0067099D01*
X0044244Y0066811D01*
X0044350Y0066525D01*
X0044463Y0066241D01*
X0044583Y0065960D01*
X0044709Y0065683D01*
X0044843Y0065408D01*
X0044983Y0065137D01*
X0045129Y0064870D01*
X0045283Y0064606D01*
X0045442Y0064346D01*
X0045608Y0064089D01*
X0045780Y0063837D01*
X0045958Y0063590D01*
X0046142Y0063346D01*
X0046332Y0063108D01*
X0046528Y0062874D01*
X0046730Y0062644D01*
X0046937Y0062420D01*
X0047149Y0062201D01*
X0047367Y0061988D01*
X0047590Y0061779D01*
X0047818Y0061576D01*
X0048051Y0061379D01*
X0048289Y0061188D01*
X0048531Y0061002D01*
X0048777Y0060822D01*
X0049028Y0060649D01*
X0049284Y0060481D01*
X0049543Y0060320D01*
X0049806Y0060166D01*
X0050073Y0060017D01*
X0050343Y0059876D01*
X0050616Y0059741D01*
X0050893Y0059613D01*
X0051173Y0059491D01*
X0051456Y0059377D01*
X0051742Y0059269D01*
X0052030Y0059168D01*
X0052320Y0059075D01*
X0052613Y0058988D01*
X0052908Y0058909D01*
X0053204Y0058837D01*
X0053502Y0058772D01*
X0053802Y0058715D01*
X0054103Y0058665D01*
X0054405Y0058622D01*
X0054708Y0058587D01*
X0055012Y0058559D01*
X0055317Y0058539D01*
X0055622Y0058526D01*
X0055927Y0058520D01*
X0056232Y0058522D01*
X0056537Y0058532D01*
X0056841Y0058548D01*
X0057146Y0058573D01*
X0057449Y0058604D01*
X0057752Y0058644D01*
X0058053Y0058690D01*
X0058354Y0058744D01*
X0058653Y0058805D01*
X0058950Y0058874D01*
X0059246Y0058949D01*
X0059539Y0059032D01*
X0059831Y0059122D01*
X0060120Y0059220D01*
X0060407Y0059324D01*
X0060691Y0059435D01*
X0060972Y0059553D01*
X0061251Y0059678D01*
X0061526Y0059810D01*
X0061798Y0059949D01*
X0062066Y0060094D01*
X0062331Y0060245D01*
X0062592Y0060403D01*
X0062849Y0060568D01*
X0063102Y0060738D01*
X0063351Y0060915D01*
X0063596Y0061098D01*
X0063835Y0061286D01*
X0064071Y0061481D01*
X0064301Y0061681D01*
X0064526Y0061887D01*
X0064747Y0062098D01*
X0064962Y0062314D01*
X0065171Y0062536D01*
X0065375Y0062763D01*
X0065574Y0062994D01*
X0065767Y0063231D01*
X0065954Y0063472D01*
X0065879Y0063528D01*
X0065693Y0063289D01*
X0065502Y0063054D01*
X0065305Y0062825D01*
X0065102Y0062600D01*
X0064894Y0062379D01*
X0064680Y0062165D01*
X0064462Y0061955D01*
X0064238Y0061751D01*
X0064010Y0061552D01*
X0063776Y0061359D01*
X0063538Y0061172D01*
X0063296Y0060991D01*
X0063049Y0060815D01*
X0062798Y0060646D01*
X0062542Y0060483D01*
X0062283Y0060326D01*
X0062020Y0060176D01*
X0061754Y0060032D01*
X0061484Y0059894D01*
X0061211Y0059763D01*
X0060935Y0059639D01*
X0060655Y0059522D01*
X0060373Y0059412D01*
X0060089Y0059308D01*
X0059802Y0059212D01*
X0059512Y0059122D01*
X0059221Y0059040D01*
X0058928Y0058965D01*
X0058632Y0058897D01*
X0058336Y0058836D01*
X0058038Y0058783D01*
X0057738Y0058737D01*
X0057438Y0058698D01*
X0057137Y0058666D01*
X0056835Y0058642D01*
X0056532Y0058625D01*
X0056230Y0058616D01*
X0055927Y0058614D01*
X0055624Y0058620D01*
X0055322Y0058633D01*
X0055019Y0058653D01*
X0054718Y0058681D01*
X0054417Y0058716D01*
X0054117Y0058758D01*
X0053818Y0058808D01*
X0053521Y0058865D01*
X0053225Y0058929D01*
X0052931Y0059000D01*
X0052638Y0059079D01*
X0052348Y0059165D01*
X0052059Y0059258D01*
X0051774Y0059357D01*
X0051490Y0059464D01*
X0051210Y0059578D01*
X0050932Y0059698D01*
X0050657Y0059826D01*
X0050385Y0059960D01*
X0050117Y0060100D01*
X0049852Y0060247D01*
X0049591Y0060401D01*
X0049334Y0060561D01*
X0049081Y0060727D01*
X0048832Y0060899D01*
X0048587Y0061077D01*
X0048346Y0061262D01*
X0048111Y0061452D01*
X0047880Y0061647D01*
X0047653Y0061849D01*
X0047432Y0062055D01*
X0047216Y0062268D01*
X0047005Y0062485D01*
X0046800Y0062707D01*
X0046600Y0062935D01*
X0046405Y0063167D01*
X0046217Y0063404D01*
X0046034Y0063646D01*
X0045857Y0063891D01*
X0045686Y0064142D01*
X0045522Y0064396D01*
X0045363Y0064654D01*
X0045211Y0064916D01*
X0045066Y0065181D01*
X0044927Y0065450D01*
X0044794Y0065723D01*
X0044669Y0065998D01*
X0044550Y0066277D01*
X0044438Y0066558D01*
X0044333Y0066842D01*
X0044234Y0067129D01*
X0044143Y0067418D01*
X0044059Y0067709D01*
X0043982Y0068002D01*
X0043913Y0068296D01*
X0043850Y0068593D01*
X0043795Y0068890D01*
X0043747Y0069189D01*
X0043706Y0069489D01*
X0043673Y0069791D01*
X0043647Y0070092D01*
X0043629Y0070395D01*
X0043618Y0070697D01*
X0043614Y0071000D01*
X0043618Y0071303D01*
X0043629Y0071605D01*
X0043647Y0071908D01*
X0043673Y0072209D01*
X0043706Y0072511D01*
X0043747Y0072811D01*
X0043795Y0073110D01*
X0043850Y0073407D01*
X0043913Y0073704D01*
X0043982Y0073998D01*
X0044059Y0074291D01*
X0044143Y0074582D01*
X0044234Y0074871D01*
X0044333Y0075158D01*
X0044438Y0075442D01*
X0044550Y0075723D01*
X0044669Y0076002D01*
X0044794Y0076277D01*
X0044927Y0076550D01*
X0045066Y0076819D01*
X0045211Y0077084D01*
X0045363Y0077346D01*
X0045522Y0077604D01*
X0045686Y0077858D01*
X0045857Y0078109D01*
X0046034Y0078354D01*
X0046217Y0078596D01*
X0046405Y0078833D01*
X0046600Y0079065D01*
X0046800Y0079293D01*
X0047005Y0079515D01*
X0047216Y0079732D01*
X0047432Y0079945D01*
X0047653Y0080151D01*
X0047880Y0080353D01*
X0048111Y0080548D01*
X0048346Y0080738D01*
X0048587Y0080923D01*
X0048832Y0081101D01*
X0049081Y0081273D01*
X0049334Y0081439D01*
X0049591Y0081599D01*
X0049852Y0081753D01*
X0050117Y0081900D01*
X0050385Y0082040D01*
X0050657Y0082174D01*
X0050932Y0082302D01*
X0051210Y0082422D01*
X0051490Y0082536D01*
X0051774Y0082643D01*
X0052059Y0082742D01*
X0052348Y0082835D01*
X0052638Y0082921D01*
X0052931Y0083000D01*
X0053225Y0083071D01*
X0053521Y0083135D01*
X0053818Y0083192D01*
X0054117Y0083242D01*
X0054417Y0083284D01*
X0054718Y0083319D01*
X0055019Y0083347D01*
X0055322Y0083367D01*
X0055624Y0083380D01*
X0055927Y0083386D01*
X0056230Y0083384D01*
X0056532Y0083375D01*
X0056835Y0083358D01*
X0057137Y0083334D01*
X0057438Y0083302D01*
X0057738Y0083263D01*
X0058038Y0083217D01*
X0058336Y0083164D01*
X0058632Y0083103D01*
X0058928Y0083035D01*
X0059221Y0082960D01*
X0059512Y0082878D01*
X0059802Y0082788D01*
X0060089Y0082692D01*
X0060373Y0082588D01*
X0060655Y0082478D01*
X0060935Y0082361D01*
X0061211Y0082237D01*
X0061484Y0082106D01*
X0061754Y0081968D01*
X0062020Y0081824D01*
X0062283Y0081674D01*
X0062542Y0081517D01*
X0062798Y0081354D01*
X0063049Y0081185D01*
X0063296Y0081009D01*
X0063538Y0080828D01*
X0063776Y0080641D01*
X0064010Y0080448D01*
X0064238Y0080249D01*
X0064462Y0080045D01*
X0064680Y0079835D01*
X0064894Y0079621D01*
X0065102Y0079400D01*
X0065305Y0079175D01*
X0065502Y0078946D01*
X0065693Y0078711D01*
X0065879Y0078472D01*
X0065804Y0078415D01*
X0065619Y0078653D01*
X0065429Y0078885D01*
X0065234Y0079114D01*
X0065033Y0079337D01*
X0064826Y0079555D01*
X0064614Y0079769D01*
X0064397Y0079977D01*
X0064175Y0080179D01*
X0063948Y0080376D01*
X0063717Y0080568D01*
X0063481Y0080754D01*
X0063240Y0080934D01*
X0062995Y0081108D01*
X0062746Y0081276D01*
X0062492Y0081438D01*
X0062235Y0081593D01*
X0061974Y0081742D01*
X0061710Y0081885D01*
X0061442Y0082022D01*
X0061171Y0082151D01*
X0060897Y0082274D01*
X0060620Y0082391D01*
X0060340Y0082500D01*
X0060057Y0082603D01*
X0059773Y0082699D01*
X0059485Y0082787D01*
X0059196Y0082869D01*
X0058905Y0082944D01*
X0058612Y0083011D01*
X0058318Y0083072D01*
X0058022Y0083125D01*
X0057725Y0083170D01*
X0057427Y0083209D01*
X0057128Y0083240D01*
X0056828Y0083264D01*
X0056528Y0083281D01*
X0056228Y0083290D01*
X0055927Y0083292D01*
X0055627Y0083286D01*
X0055326Y0083274D01*
X0055027Y0083253D01*
X0054727Y0083226D01*
X0054429Y0083191D01*
X0054131Y0083149D01*
X0053835Y0083100D01*
X0053540Y0083043D01*
X0053246Y0082979D01*
X0052954Y0082909D01*
X0052664Y0082831D01*
X0052375Y0082745D01*
X0052089Y0082653D01*
X0051805Y0082554D01*
X0051524Y0082448D01*
X0051246Y0082335D01*
X0050970Y0082216D01*
X0050697Y0082089D01*
X0050428Y0081956D01*
X0050162Y0081817D01*
X0049899Y0081671D01*
X0049640Y0081519D01*
X0049384Y0081360D01*
X0049133Y0081195D01*
X0048886Y0081024D01*
X0048643Y0080847D01*
X0048404Y0080664D01*
X0048170Y0080476D01*
X0047941Y0080282D01*
X0047717Y0080082D01*
X0047497Y0079877D01*
X0047283Y0079666D01*
X0047073Y0079450D01*
X0046869Y0079230D01*
X0046671Y0079004D01*
X0046478Y0078773D01*
X0046291Y0078538D01*
X0046109Y0078299D01*
X0045934Y0078055D01*
X0045764Y0077806D01*
X0045601Y0077554D01*
X0045444Y0077298D01*
X0045293Y0077038D01*
X0045149Y0076774D01*
X0045011Y0076507D01*
X0044879Y0076237D01*
X0044755Y0075964D01*
X0044637Y0075687D01*
X0044526Y0075408D01*
X0044421Y0075126D01*
X0044324Y0074842D01*
X0044233Y0074555D01*
X0044150Y0074266D01*
X0044074Y0073976D01*
X0044004Y0073683D01*
X0043942Y0073389D01*
X0043888Y0073094D01*
X0043840Y0072797D01*
X0043800Y0072499D01*
X0043767Y0072200D01*
X0043741Y0071901D01*
X0043723Y0071601D01*
X0043712Y0071301D01*
X0043708Y0071000D01*
X0043712Y0070699D01*
X0043723Y0070399D01*
X0043741Y0070099D01*
X0043767Y0069800D01*
X0043800Y0069501D01*
X0043840Y0069203D01*
X0043888Y0068906D01*
X0043942Y0068611D01*
X0044004Y0068317D01*
X0044074Y0068024D01*
X0044150Y0067734D01*
X0044233Y0067445D01*
X0044324Y0067158D01*
X0044421Y0066874D01*
X0044526Y0066592D01*
X0044637Y0066313D01*
X0044755Y0066036D01*
X0044879Y0065763D01*
X0045011Y0065493D01*
X0045149Y0065226D01*
X0045293Y0064962D01*
X0045444Y0064702D01*
X0045601Y0064446D01*
X0045764Y0064194D01*
X0045934Y0063945D01*
X0046109Y0063701D01*
X0046291Y0063462D01*
X0046478Y0063227D01*
X0046671Y0062996D01*
X0046869Y0062770D01*
X0047073Y0062550D01*
X0047283Y0062334D01*
X0047497Y0062123D01*
X0047717Y0061918D01*
X0047941Y0061718D01*
X0048170Y0061524D01*
X0048404Y0061336D01*
X0048643Y0061153D01*
X0048886Y0060976D01*
X0049133Y0060805D01*
X0049384Y0060640D01*
X0049640Y0060481D01*
X0049899Y0060329D01*
X0050162Y0060183D01*
X0050428Y0060044D01*
X0050697Y0059911D01*
X0050970Y0059784D01*
X0051246Y0059665D01*
X0051524Y0059552D01*
X0051805Y0059446D01*
X0052089Y0059347D01*
X0052375Y0059255D01*
X0052664Y0059169D01*
X0052954Y0059091D01*
X0053246Y0059021D01*
X0053540Y0058957D01*
X0053835Y0058900D01*
X0054131Y0058851D01*
X0054429Y0058809D01*
X0054727Y0058774D01*
X0055027Y0058747D01*
X0055326Y0058726D01*
X0055627Y0058714D01*
X0055927Y0058708D01*
X0056228Y0058710D01*
X0056528Y0058719D01*
X0056828Y0058736D01*
X0057128Y0058760D01*
X0057427Y0058791D01*
X0057725Y0058830D01*
X0058022Y0058875D01*
X0058318Y0058928D01*
X0058612Y0058989D01*
X0058905Y0059056D01*
X0059196Y0059131D01*
X0059485Y0059213D01*
X0059773Y0059301D01*
X0060057Y0059397D01*
X0060340Y0059500D01*
X0060620Y0059609D01*
X0060897Y0059726D01*
X0061171Y0059849D01*
X0061442Y0059978D01*
X0061710Y0060115D01*
X0061974Y0060258D01*
X0062235Y0060407D01*
X0062492Y0060562D01*
X0062746Y0060724D01*
X0062995Y0060892D01*
X0063240Y0061066D01*
X0063481Y0061246D01*
X0063717Y0061432D01*
X0063948Y0061624D01*
X0064175Y0061821D01*
X0064397Y0062023D01*
X0064614Y0062231D01*
X0064826Y0062445D01*
X0065033Y0062663D01*
X0065234Y0062886D01*
X0065429Y0063115D01*
X0065619Y0063347D01*
X0065804Y0063585D01*
X0065728Y0063641D01*
X0065546Y0063406D01*
X0065357Y0063175D01*
X0065163Y0062948D01*
X0064963Y0062726D01*
X0064758Y0062510D01*
X0064548Y0062298D01*
X0064333Y0062092D01*
X0064113Y0061891D01*
X0063887Y0061695D01*
X0063658Y0061505D01*
X0063423Y0061321D01*
X0063184Y0061142D01*
X0062941Y0060969D01*
X0062694Y0060803D01*
X0062442Y0060642D01*
X0062187Y0060488D01*
X0061928Y0060340D01*
X0061666Y0060198D01*
X0061400Y0060063D01*
X0061131Y0059934D01*
X0060859Y0059812D01*
X0060584Y0059696D01*
X0060306Y0059587D01*
X0060026Y0059486D01*
X0059743Y0059391D01*
X0059458Y0059303D01*
X0059171Y0059222D01*
X0058883Y0059147D01*
X0058592Y0059081D01*
X0058300Y0059021D01*
X0058006Y0058968D01*
X0057711Y0058923D01*
X0057416Y0058884D01*
X0057119Y0058853D01*
X0056822Y0058830D01*
X0056524Y0058813D01*
X0056226Y0058804D01*
X0055928Y0058802D01*
X0055629Y0058808D01*
X0055331Y0058820D01*
X0055034Y0058840D01*
X0054737Y0058868D01*
X0054441Y0058902D01*
X0054145Y0058944D01*
X0053851Y0058993D01*
X0053558Y0059049D01*
X0053267Y0059112D01*
X0052977Y0059183D01*
X0052689Y0059260D01*
X0052403Y0059344D01*
X0052119Y0059436D01*
X0051837Y0059534D01*
X0051558Y0059639D01*
X0051282Y0059751D01*
X0051008Y0059870D01*
X0050738Y0059995D01*
X0050470Y0060127D01*
X0050206Y0060266D01*
X0049945Y0060411D01*
X0049688Y0060562D01*
X0049435Y0060719D01*
X0049186Y0060883D01*
X0048940Y0061053D01*
X0048699Y0061228D01*
X0048462Y0061410D01*
X0048230Y0061597D01*
X0048003Y0061789D01*
X0047780Y0061988D01*
X0047562Y0062191D01*
X0047349Y0062400D01*
X0047141Y0062614D01*
X0046939Y0062834D01*
X0046742Y0063057D01*
X0046551Y0063286D01*
X0046365Y0063520D01*
X0046185Y0063757D01*
X0046011Y0063999D01*
X0045843Y0064246D01*
X0045681Y0064496D01*
X0045525Y0064750D01*
X0045375Y0065008D01*
X0045232Y0065270D01*
X0045095Y0065535D01*
X0044964Y0065803D01*
X0044841Y0066074D01*
X0044724Y0066349D01*
X0044613Y0066626D01*
X0044510Y0066906D01*
X0044413Y0067188D01*
X0044323Y0067472D01*
X0044241Y0067759D01*
X0044165Y0068047D01*
X0044096Y0068337D01*
X0044035Y0068629D01*
X0043980Y0068922D01*
X0043933Y0069217D01*
X0043893Y0069512D01*
X0043860Y0069809D01*
X0043835Y0070106D01*
X0043817Y0070404D01*
X0043806Y0070702D01*
X0043802Y0071000D01*
X0043806Y0071298D01*
X0043817Y0071596D01*
X0043835Y0071894D01*
X0043860Y0072191D01*
X0043893Y0072488D01*
X0043933Y0072783D01*
X0043980Y0073078D01*
X0044035Y0073371D01*
X0044096Y0073663D01*
X0044165Y0073953D01*
X0044241Y0074241D01*
X0044323Y0074528D01*
X0044413Y0074812D01*
X0044510Y0075094D01*
X0044613Y0075374D01*
X0044724Y0075651D01*
X0044841Y0075926D01*
X0044964Y0076197D01*
X0045095Y0076465D01*
X0045232Y0076730D01*
X0045375Y0076992D01*
X0045525Y0077250D01*
X0045681Y0077504D01*
X0045843Y0077754D01*
X0046011Y0078001D01*
X0046185Y0078243D01*
X0046365Y0078480D01*
X0046551Y0078714D01*
X0046742Y0078943D01*
X0046939Y0079166D01*
X0047141Y0079386D01*
X0047349Y0079600D01*
X0047562Y0079809D01*
X0047780Y0080012D01*
X0048003Y0080211D01*
X0048230Y0080403D01*
X0048462Y0080590D01*
X0048699Y0080772D01*
X0048940Y0080947D01*
X0049186Y0081117D01*
X0049435Y0081281D01*
X0049688Y0081438D01*
X0049945Y0081589D01*
X0050206Y0081734D01*
X0050470Y0081873D01*
X0050738Y0082005D01*
X0051008Y0082130D01*
X0051282Y0082249D01*
X0051558Y0082361D01*
X0051837Y0082466D01*
X0052119Y0082564D01*
X0052403Y0082656D01*
X0052689Y0082740D01*
X0052977Y0082817D01*
X0053267Y0082888D01*
X0053558Y0082951D01*
X0053851Y0083007D01*
X0054145Y0083056D01*
X0054441Y0083098D01*
X0054737Y0083132D01*
X0055034Y0083160D01*
X0055331Y0083180D01*
X0055629Y0083192D01*
X0055928Y0083198D01*
X0056226Y0083196D01*
X0056524Y0083187D01*
X0056822Y0083170D01*
X0057119Y0083147D01*
X0057416Y0083116D01*
X0057711Y0083077D01*
X0058006Y0083032D01*
X0058300Y0082979D01*
X0058592Y0082919D01*
X0058883Y0082853D01*
X0059171Y0082778D01*
X0059458Y0082697D01*
X0059743Y0082609D01*
X0060026Y0082514D01*
X0060306Y0082413D01*
X0060584Y0082304D01*
X0060859Y0082188D01*
X0061131Y0082066D01*
X0061400Y0081937D01*
X0061666Y0081802D01*
X0061928Y0081660D01*
X0062187Y0081512D01*
X0062442Y0081358D01*
X0062694Y0081197D01*
X0062941Y0081031D01*
X0063184Y0080858D01*
X0063423Y0080679D01*
X0063658Y0080495D01*
X0063887Y0080305D01*
X0064113Y0080109D01*
X0064333Y0079908D01*
X0064548Y0079702D01*
X0064758Y0079490D01*
X0064963Y0079274D01*
X0065163Y0079052D01*
X0065357Y0078825D01*
X0065546Y0078594D01*
X0065728Y0078359D01*
X0065653Y0078302D01*
X0065472Y0078536D01*
X0065285Y0078765D01*
X0065092Y0078990D01*
X0064894Y0079210D01*
X0064691Y0079425D01*
X0064482Y0079635D01*
X0064268Y0079840D01*
X0064050Y0080039D01*
X0063826Y0080233D01*
X0063598Y0080422D01*
X0063366Y0080605D01*
X0063129Y0080782D01*
X0062887Y0080953D01*
X0062642Y0081119D01*
X0062393Y0081278D01*
X0062139Y0081431D01*
X0061883Y0081578D01*
X0061622Y0081719D01*
X0061358Y0081853D01*
X0061091Y0081981D01*
X0060821Y0082102D01*
X0060549Y0082217D01*
X0060273Y0082325D01*
X0059995Y0082426D01*
X0059714Y0082520D01*
X0059432Y0082607D01*
X0059147Y0082688D01*
X0058860Y0082761D01*
X0058572Y0082828D01*
X0058282Y0082887D01*
X0057990Y0082939D01*
X0057698Y0082984D01*
X0057404Y0083022D01*
X0057110Y0083053D01*
X0056815Y0083077D01*
X0056520Y0083093D01*
X0056224Y0083102D01*
X0055928Y0083104D01*
X0055632Y0083098D01*
X0055336Y0083086D01*
X0055041Y0083066D01*
X0054746Y0083039D01*
X0054452Y0083005D01*
X0054159Y0082963D01*
X0053867Y0082915D01*
X0053577Y0082859D01*
X0053288Y0082796D01*
X0053000Y0082726D01*
X0052714Y0082649D01*
X0052430Y0082566D01*
X0052149Y0082475D01*
X0051869Y0082377D01*
X0051592Y0082273D01*
X0051318Y0082162D01*
X0051047Y0082044D01*
X0050778Y0081920D01*
X0050513Y0081789D01*
X0050251Y0081651D01*
X0049992Y0081508D01*
X0049737Y0081358D01*
X0049485Y0081201D01*
X0049238Y0081039D01*
X0048995Y0080871D01*
X0048755Y0080696D01*
X0048520Y0080516D01*
X0048290Y0080331D01*
X0048064Y0080139D01*
X0047843Y0079943D01*
X0047627Y0079741D01*
X0047416Y0079533D01*
X0047210Y0079321D01*
X0047009Y0079103D01*
X0046813Y0078881D01*
X0046623Y0078654D01*
X0046439Y0078423D01*
X0046261Y0078187D01*
X0046088Y0077947D01*
X0045921Y0077702D01*
X0045760Y0077454D01*
X0045605Y0077201D01*
X0045457Y0076945D01*
X0045315Y0076686D01*
X0045179Y0076423D01*
X0045049Y0076157D01*
X0044927Y0075888D01*
X0044810Y0075615D01*
X0044701Y0075340D01*
X0044598Y0075063D01*
X0044502Y0074783D01*
X0044413Y0074501D01*
X0044331Y0074216D01*
X0044256Y0073930D01*
X0044188Y0073642D01*
X0044127Y0073353D01*
X0044073Y0073062D01*
X0044026Y0072769D01*
X0043986Y0072476D01*
X0043954Y0072182D01*
X0043929Y0071887D01*
X0043910Y0071592D01*
X0043900Y0071296D01*
X0043896Y0071000D01*
X0043900Y0070704D01*
X0043910Y0070408D01*
X0043929Y0070113D01*
X0043954Y0069818D01*
X0043986Y0069524D01*
X0044026Y0069231D01*
X0044073Y0068938D01*
X0044127Y0068647D01*
X0044188Y0068358D01*
X0044256Y0068070D01*
X0044331Y0067784D01*
X0044413Y0067499D01*
X0044502Y0067217D01*
X0044598Y0066937D01*
X0044701Y0066660D01*
X0044810Y0066385D01*
X0044927Y0066112D01*
X0045049Y0065843D01*
X0045179Y0065577D01*
X0045315Y0065314D01*
X0045457Y0065055D01*
X0045605Y0064799D01*
X0045760Y0064546D01*
X0045921Y0064298D01*
X0046088Y0064053D01*
X0046261Y0063813D01*
X0046439Y0063577D01*
X0046623Y0063346D01*
X0046813Y0063119D01*
X0047009Y0062897D01*
X0047210Y0062679D01*
X0047416Y0062467D01*
X0047627Y0062259D01*
X0047843Y0062057D01*
X0048064Y0061861D01*
X0048290Y0061669D01*
X0048520Y0061484D01*
X0048755Y0061304D01*
X0048995Y0061129D01*
X0049238Y0060961D01*
X0049485Y0060799D01*
X0049737Y0060642D01*
X0049992Y0060492D01*
X0050251Y0060349D01*
X0050513Y0060211D01*
X0050778Y0060080D01*
X0051047Y0059956D01*
X0051318Y0059838D01*
X0051592Y0059727D01*
X0051869Y0059623D01*
X0052149Y0059525D01*
X0052430Y0059434D01*
X0052714Y0059351D01*
X0053000Y0059274D01*
X0053288Y0059204D01*
X0053577Y0059141D01*
X0053867Y0059085D01*
X0054159Y0059037D01*
X0054452Y0058995D01*
X0054746Y0058961D01*
X0055041Y0058934D01*
X0055336Y0058914D01*
X0055632Y0058902D01*
X0055928Y0058896D01*
X0056224Y0058898D01*
X0056520Y0058907D01*
X0056815Y0058923D01*
X0057110Y0058947D01*
X0057404Y0058978D01*
X0057698Y0059016D01*
X0057990Y0059061D01*
X0058282Y0059113D01*
X0058572Y0059172D01*
X0058860Y0059239D01*
X0059147Y0059312D01*
X0059432Y0059393D01*
X0059714Y0059480D01*
X0059995Y0059574D01*
X0060273Y0059675D01*
X0060549Y0059783D01*
X0060821Y0059898D01*
X0061091Y0060019D01*
X0061358Y0060147D01*
X0061622Y0060281D01*
X0061883Y0060422D01*
X0062139Y0060569D01*
X0062393Y0060722D01*
X0062642Y0060881D01*
X0062887Y0061047D01*
X0063129Y0061218D01*
X0063366Y0061395D01*
X0063598Y0061578D01*
X0063826Y0061767D01*
X0064050Y0061961D01*
X0064268Y0062160D01*
X0064482Y0062365D01*
X0064691Y0062575D01*
X0064894Y0062790D01*
X0065092Y0063010D01*
X0065285Y0063235D01*
X0065472Y0063464D01*
X0065653Y0063698D01*
D14*
X0046000Y0071000D02*
X0046003Y0071245D01*
X0046012Y0071491D01*
X0046027Y0071736D01*
X0046048Y0071980D01*
X0046075Y0072224D01*
X0046108Y0072467D01*
X0046147Y0072710D01*
X0046192Y0072951D01*
X0046243Y0073191D01*
X0046300Y0073430D01*
X0046362Y0073667D01*
X0046431Y0073903D01*
X0046505Y0074137D01*
X0046585Y0074369D01*
X0046670Y0074599D01*
X0046761Y0074827D01*
X0046858Y0075052D01*
X0046960Y0075276D01*
X0047068Y0075496D01*
X0047181Y0075714D01*
X0047299Y0075929D01*
X0047423Y0076141D01*
X0047551Y0076350D01*
X0047685Y0076556D01*
X0047824Y0076758D01*
X0047968Y0076957D01*
X0048117Y0077152D01*
X0048270Y0077344D01*
X0048428Y0077532D01*
X0048590Y0077716D01*
X0048758Y0077895D01*
X0048929Y0078071D01*
X0049105Y0078242D01*
X0049284Y0078410D01*
X0049468Y0078572D01*
X0049656Y0078730D01*
X0049848Y0078883D01*
X0050043Y0079032D01*
X0050242Y0079176D01*
X0050444Y0079315D01*
X0050650Y0079449D01*
X0050859Y0079577D01*
X0051071Y0079701D01*
X0051286Y0079819D01*
X0051504Y0079932D01*
X0051724Y0080040D01*
X0051948Y0080142D01*
X0052173Y0080239D01*
X0052401Y0080330D01*
X0052631Y0080415D01*
X0052863Y0080495D01*
X0053097Y0080569D01*
X0053333Y0080638D01*
X0053570Y0080700D01*
X0053809Y0080757D01*
X0054049Y0080808D01*
X0054290Y0080853D01*
X0054533Y0080892D01*
X0054776Y0080925D01*
X0055020Y0080952D01*
X0055264Y0080973D01*
X0055509Y0080988D01*
X0055755Y0080997D01*
X0056000Y0081000D01*
X0056245Y0080997D01*
X0056491Y0080988D01*
X0056736Y0080973D01*
X0056980Y0080952D01*
X0057224Y0080925D01*
X0057467Y0080892D01*
X0057710Y0080853D01*
X0057951Y0080808D01*
X0058191Y0080757D01*
X0058430Y0080700D01*
X0058667Y0080638D01*
X0058903Y0080569D01*
X0059137Y0080495D01*
X0059369Y0080415D01*
X0059599Y0080330D01*
X0059827Y0080239D01*
X0060052Y0080142D01*
X0060276Y0080040D01*
X0060496Y0079932D01*
X0060714Y0079819D01*
X0060929Y0079701D01*
X0061141Y0079577D01*
X0061350Y0079449D01*
X0061556Y0079315D01*
X0061758Y0079176D01*
X0061957Y0079032D01*
X0062152Y0078883D01*
X0062344Y0078730D01*
X0062532Y0078572D01*
X0062716Y0078410D01*
X0062895Y0078242D01*
X0063071Y0078071D01*
X0063242Y0077895D01*
X0063410Y0077716D01*
X0063572Y0077532D01*
X0063730Y0077344D01*
X0063883Y0077152D01*
X0064032Y0076957D01*
X0064176Y0076758D01*
X0064315Y0076556D01*
X0064449Y0076350D01*
X0064577Y0076141D01*
X0064701Y0075929D01*
X0064819Y0075714D01*
X0064932Y0075496D01*
X0065040Y0075276D01*
X0065142Y0075052D01*
X0065239Y0074827D01*
X0065330Y0074599D01*
X0065415Y0074369D01*
X0065495Y0074137D01*
X0065569Y0073903D01*
X0065638Y0073667D01*
X0065700Y0073430D01*
X0065757Y0073191D01*
X0065808Y0072951D01*
X0065853Y0072710D01*
X0065892Y0072467D01*
X0065925Y0072224D01*
X0065952Y0071980D01*
X0065973Y0071736D01*
X0065988Y0071491D01*
X0065997Y0071245D01*
X0066000Y0071000D01*
X0065997Y0070755D01*
X0065988Y0070509D01*
X0065973Y0070264D01*
X0065952Y0070020D01*
X0065925Y0069776D01*
X0065892Y0069533D01*
X0065853Y0069290D01*
X0065808Y0069049D01*
X0065757Y0068809D01*
X0065700Y0068570D01*
X0065638Y0068333D01*
X0065569Y0068097D01*
X0065495Y0067863D01*
X0065415Y0067631D01*
X0065330Y0067401D01*
X0065239Y0067173D01*
X0065142Y0066948D01*
X0065040Y0066724D01*
X0064932Y0066504D01*
X0064819Y0066286D01*
X0064701Y0066071D01*
X0064577Y0065859D01*
X0064449Y0065650D01*
X0064315Y0065444D01*
X0064176Y0065242D01*
X0064032Y0065043D01*
X0063883Y0064848D01*
X0063730Y0064656D01*
X0063572Y0064468D01*
X0063410Y0064284D01*
X0063242Y0064105D01*
X0063071Y0063929D01*
X0062895Y0063758D01*
X0062716Y0063590D01*
X0062532Y0063428D01*
X0062344Y0063270D01*
X0062152Y0063117D01*
X0061957Y0062968D01*
X0061758Y0062824D01*
X0061556Y0062685D01*
X0061350Y0062551D01*
X0061141Y0062423D01*
X0060929Y0062299D01*
X0060714Y0062181D01*
X0060496Y0062068D01*
X0060276Y0061960D01*
X0060052Y0061858D01*
X0059827Y0061761D01*
X0059599Y0061670D01*
X0059369Y0061585D01*
X0059137Y0061505D01*
X0058903Y0061431D01*
X0058667Y0061362D01*
X0058430Y0061300D01*
X0058191Y0061243D01*
X0057951Y0061192D01*
X0057710Y0061147D01*
X0057467Y0061108D01*
X0057224Y0061075D01*
X0056980Y0061048D01*
X0056736Y0061027D01*
X0056491Y0061012D01*
X0056245Y0061003D01*
X0056000Y0061000D01*
X0055755Y0061003D01*
X0055509Y0061012D01*
X0055264Y0061027D01*
X0055020Y0061048D01*
X0054776Y0061075D01*
X0054533Y0061108D01*
X0054290Y0061147D01*
X0054049Y0061192D01*
X0053809Y0061243D01*
X0053570Y0061300D01*
X0053333Y0061362D01*
X0053097Y0061431D01*
X0052863Y0061505D01*
X0052631Y0061585D01*
X0052401Y0061670D01*
X0052173Y0061761D01*
X0051948Y0061858D01*
X0051724Y0061960D01*
X0051504Y0062068D01*
X0051286Y0062181D01*
X0051071Y0062299D01*
X0050859Y0062423D01*
X0050650Y0062551D01*
X0050444Y0062685D01*
X0050242Y0062824D01*
X0050043Y0062968D01*
X0049848Y0063117D01*
X0049656Y0063270D01*
X0049468Y0063428D01*
X0049284Y0063590D01*
X0049105Y0063758D01*
X0048929Y0063929D01*
X0048758Y0064105D01*
X0048590Y0064284D01*
X0048428Y0064468D01*
X0048270Y0064656D01*
X0048117Y0064848D01*
X0047968Y0065043D01*
X0047824Y0065242D01*
X0047685Y0065444D01*
X0047551Y0065650D01*
X0047423Y0065859D01*
X0047299Y0066071D01*
X0047181Y0066286D01*
X0047068Y0066504D01*
X0046960Y0066724D01*
X0046858Y0066948D01*
X0046761Y0067173D01*
X0046670Y0067401D01*
X0046585Y0067631D01*
X0046505Y0067863D01*
X0046431Y0068097D01*
X0046362Y0068333D01*
X0046300Y0068570D01*
X0046243Y0068809D01*
X0046192Y0069049D01*
X0046147Y0069290D01*
X0046108Y0069533D01*
X0046075Y0069776D01*
X0046048Y0070020D01*
X0046027Y0070264D01*
X0046012Y0070509D01*
X0046003Y0070755D01*
X0046000Y0071000D01*
D15*
X0096236Y0076000D02*
X0102614Y0076000D01*
X0102614Y0081118D02*
X0102614Y0070882D01*
X0107063Y0070882D01*
X0107063Y0081118D02*
X0102614Y0081118D01*
X0124937Y0081118D02*
X0129386Y0081118D01*
X0129386Y0070882D01*
X0124937Y0070882D01*
X0129386Y0076000D02*
X0135764Y0076000D01*
D16*
X0143323Y0040508D02*
X0143323Y0034370D01*
X0144090Y0035137D02*
X0142555Y0035137D01*
X0141788Y0035904D01*
X0140254Y0035904D02*
X0140254Y0039741D01*
X0141788Y0038974D02*
X0142555Y0039741D01*
X0144090Y0039741D01*
X0144857Y0038974D01*
X0146392Y0038974D02*
X0147159Y0039741D01*
X0148694Y0039741D01*
X0149461Y0038974D01*
X0149461Y0038206D01*
X0146392Y0035137D01*
X0149461Y0035137D01*
X0144857Y0035904D02*
X0144857Y0036672D01*
X0144090Y0037439D01*
X0142555Y0037439D01*
X0141788Y0038206D01*
X0141788Y0038974D01*
X0140254Y0035904D02*
X0139486Y0035137D01*
X0137952Y0035137D01*
X0137184Y0035904D01*
X0137184Y0039741D01*
X0144090Y0035137D02*
X0144857Y0035904D01*
D17*
X0030800Y0079850D03*
X0030800Y0079900D03*
X0030750Y0080000D03*
X0027100Y0079800D03*
X0027100Y0079750D03*
X0027100Y0079700D03*
X0014800Y0076000D03*
X0006950Y0079000D03*
X0006750Y0079050D03*
D18*
X0008200Y0078650D03*
X0008400Y0078600D03*
X0014800Y0076050D03*
X0022400Y0077250D03*
X0022450Y0077300D03*
X0022450Y0077350D03*
X0022500Y0077400D03*
X0022550Y0077550D03*
X0022600Y0080300D03*
X0022600Y0080350D03*
X0026950Y0080150D03*
X0026700Y0077000D03*
D19*
X0023925Y0077900D03*
X0023825Y0078150D03*
X0023825Y0078200D03*
X0023775Y0078400D03*
X0023775Y0079300D03*
X0023775Y0079350D03*
X0023775Y0079400D03*
X0023775Y0079450D03*
X0023825Y0079550D03*
X0023825Y0079600D03*
X0023825Y0079650D03*
X0023875Y0079700D03*
X0023875Y0079750D03*
X0023925Y0079800D03*
X0023925Y0079850D03*
X0023975Y0079900D03*
X0023975Y0079950D03*
X0024025Y0080000D03*
X0024075Y0080050D03*
X0026775Y0080350D03*
X0028125Y0079550D03*
X0028475Y0080400D03*
X0030775Y0077800D03*
X0030775Y0077750D03*
X0030775Y0077700D03*
X0030725Y0077550D03*
X0030725Y0077500D03*
X0030675Y0077450D03*
X0030675Y0077400D03*
X0030625Y0077350D03*
X0030575Y0077300D03*
X0030525Y0077250D03*
X0032325Y0077250D03*
X0032325Y0077300D03*
X0032325Y0077350D03*
X0032325Y0077400D03*
X0032325Y0077200D03*
X0032325Y0077150D03*
X0035175Y0077500D03*
X0035225Y0077550D03*
X0035325Y0077700D03*
X0035375Y0077800D03*
X0035425Y0077900D03*
X0035475Y0078000D03*
X0035475Y0078050D03*
X0035525Y0078200D03*
X0035525Y0078250D03*
X0035525Y0079200D03*
X0035525Y0079250D03*
X0035475Y0079400D03*
X0035475Y0079450D03*
X0035425Y0079550D03*
X0035375Y0079650D03*
X0035325Y0079750D03*
X0035275Y0079850D03*
X0035225Y0079900D03*
X0032325Y0080050D03*
X0032325Y0080100D03*
X0032325Y0080150D03*
X0032325Y0080200D03*
X0032325Y0080250D03*
X0032325Y0080300D03*
X0019375Y0080300D03*
X0019375Y0080250D03*
X0019375Y0080200D03*
X0019425Y0077700D03*
X0019425Y0077650D03*
X0019475Y0077550D03*
X0019475Y0077500D03*
X0019525Y0077400D03*
X0019575Y0077350D03*
X0014775Y0076100D03*
D20*
X0014700Y0076150D03*
X0010050Y0078100D03*
X0009900Y0078150D03*
X0019250Y0080500D03*
X0024650Y0080450D03*
X0028300Y0079350D03*
X0030350Y0080450D03*
X0030550Y0078200D03*
X0034550Y0077100D03*
X0024650Y0077150D03*
D21*
X0024900Y0077050D03*
X0030350Y0078350D03*
X0029650Y0080700D03*
X0034350Y0077050D03*
X0014650Y0076200D03*
X0010500Y0077950D03*
D22*
X0010775Y0077850D03*
X0014575Y0076250D03*
X0020975Y0076750D03*
X0025875Y0076750D03*
X0029125Y0076750D03*
X0030175Y0078450D03*
X0028725Y0079100D03*
X0028625Y0079150D03*
D23*
X0028925Y0079000D03*
X0029875Y0078600D03*
X0025175Y0077000D03*
X0014475Y0076300D03*
X0011025Y0077750D03*
X0013425Y0081600D03*
D24*
X0014400Y0076350D03*
X0029400Y0078800D03*
D25*
X0014300Y0076400D03*
X0011250Y0077650D03*
D26*
X0012525Y0078100D03*
X0014175Y0076450D03*
X0025925Y0076800D03*
X0025725Y0080650D03*
X0032925Y0076800D03*
D27*
X0014075Y0076500D03*
X0011275Y0077600D03*
D28*
X0013950Y0076550D03*
D29*
X0013825Y0076600D03*
D30*
X0013700Y0076650D03*
X0029100Y0076850D03*
X0033100Y0076850D03*
X0029700Y0080600D03*
D31*
X0025775Y0076900D03*
X0013575Y0076700D03*
D32*
X0026925Y0077050D03*
X0027975Y0077100D03*
X0029125Y0076700D03*
D33*
X0025725Y0076950D03*
X0025775Y0080600D03*
X0029625Y0080550D03*
X0014325Y0080950D03*
X0013425Y0076750D03*
D34*
X0013300Y0076800D03*
X0014300Y0080850D03*
X0014300Y0080900D03*
X0020950Y0076900D03*
D35*
X0020975Y0076800D03*
D36*
X0029050Y0076800D03*
D37*
X0029225Y0076950D03*
X0033225Y0076900D03*
X0029575Y0080500D03*
X0014275Y0080800D03*
X0013175Y0076850D03*
D38*
X0020950Y0076850D03*
X0025850Y0076850D03*
D39*
X0032550Y0080650D03*
X0014250Y0080750D03*
X0013000Y0076900D03*
D40*
X0012400Y0078200D03*
X0029150Y0076900D03*
D41*
X0012875Y0076950D03*
X0012725Y0077000D03*
X0012375Y0078250D03*
D42*
X0020950Y0076950D03*
D43*
X0025775Y0080550D03*
X0033325Y0076950D03*
X0012575Y0077050D03*
X0012425Y0077100D03*
X0012275Y0077150D03*
D44*
X0012775Y0077900D03*
X0010225Y0078050D03*
X0020025Y0077000D03*
X0028375Y0079300D03*
X0030475Y0078250D03*
X0034525Y0080350D03*
D45*
X0034875Y0080200D03*
X0035025Y0080100D03*
X0032325Y0080350D03*
X0030675Y0078050D03*
X0030725Y0077950D03*
X0030325Y0077100D03*
X0028375Y0077000D03*
X0024275Y0077400D03*
X0024225Y0077450D03*
X0024175Y0077500D03*
X0024075Y0077650D03*
X0021975Y0077000D03*
X0019825Y0077100D03*
X0024425Y0080350D03*
X0028625Y0080450D03*
X0034875Y0077250D03*
X0035025Y0077350D03*
X0012825Y0077850D03*
X0009575Y0078250D03*
X0009425Y0078300D03*
D46*
X0010375Y0078000D03*
X0022275Y0080550D03*
X0022275Y0080600D03*
X0022275Y0080650D03*
X0030425Y0078300D03*
X0030025Y0077000D03*
D47*
X0033400Y0077000D03*
X0025700Y0080500D03*
X0012300Y0078300D03*
X0011500Y0077400D03*
X0011350Y0077450D03*
X0011200Y0077500D03*
X0011000Y0077550D03*
D48*
X0009750Y0078200D03*
X0019300Y0080450D03*
X0024500Y0080400D03*
X0026700Y0080400D03*
X0028250Y0079400D03*
X0030650Y0078100D03*
X0032400Y0077050D03*
X0034800Y0077200D03*
X0034800Y0080250D03*
X0024400Y0077300D03*
X0024350Y0077350D03*
X0019900Y0077050D03*
D49*
X0022125Y0077050D03*
X0026825Y0080300D03*
X0028125Y0080100D03*
X0028275Y0080250D03*
X0028325Y0080300D03*
X0028075Y0079700D03*
X0028075Y0079650D03*
X0030525Y0080350D03*
X0008925Y0078450D03*
D50*
X0007675Y0078800D03*
X0027025Y0080000D03*
X0030675Y0080150D03*
X0028125Y0077050D03*
D51*
X0030225Y0077050D03*
X0030575Y0078150D03*
X0032325Y0080400D03*
X0034675Y0080300D03*
X0034675Y0077150D03*
X0024575Y0077200D03*
X0024475Y0077250D03*
D52*
X0022200Y0077100D03*
X0022550Y0080450D03*
X0026850Y0080250D03*
X0028050Y0079950D03*
X0028050Y0079900D03*
X0028050Y0079850D03*
X0028050Y0079800D03*
X0028050Y0079750D03*
X0028100Y0080000D03*
X0028100Y0080050D03*
X0028150Y0080150D03*
X0028200Y0080200D03*
X0012900Y0077800D03*
X0008750Y0078500D03*
D53*
X0024750Y0077100D03*
X0028450Y0079250D03*
X0026600Y0080450D03*
D54*
X0028150Y0079500D03*
X0028200Y0079450D03*
X0030450Y0080400D03*
X0030700Y0078000D03*
X0030750Y0077900D03*
X0030750Y0077850D03*
X0030450Y0077200D03*
X0030400Y0077150D03*
X0032350Y0077100D03*
X0034950Y0077300D03*
X0035100Y0077400D03*
X0035150Y0077450D03*
X0035250Y0077600D03*
X0035300Y0077650D03*
X0035350Y0077750D03*
X0035400Y0077850D03*
X0035450Y0077950D03*
X0035500Y0078100D03*
X0035500Y0078150D03*
X0035550Y0078300D03*
X0035550Y0078350D03*
X0035550Y0078400D03*
X0035550Y0078450D03*
X0035550Y0078500D03*
X0035550Y0078550D03*
X0035550Y0078600D03*
X0035550Y0078650D03*
X0035550Y0078700D03*
X0035550Y0078750D03*
X0035550Y0078800D03*
X0035550Y0078850D03*
X0035550Y0078900D03*
X0035550Y0078950D03*
X0035550Y0079000D03*
X0035550Y0079050D03*
X0035550Y0079100D03*
X0035550Y0079150D03*
X0035500Y0079300D03*
X0035500Y0079350D03*
X0035450Y0079500D03*
X0035400Y0079600D03*
X0035350Y0079700D03*
X0035300Y0079800D03*
X0035200Y0079950D03*
X0035150Y0080000D03*
X0035100Y0080050D03*
X0034950Y0080150D03*
X0024350Y0080300D03*
X0024250Y0080250D03*
X0024200Y0080200D03*
X0024150Y0080150D03*
X0024100Y0080100D03*
X0023800Y0079500D03*
X0023750Y0079250D03*
X0023750Y0079200D03*
X0023750Y0079150D03*
X0023750Y0079100D03*
X0023750Y0079050D03*
X0023750Y0079000D03*
X0023750Y0078950D03*
X0023750Y0078900D03*
X0023750Y0078850D03*
X0023750Y0078800D03*
X0023750Y0078750D03*
X0023750Y0078700D03*
X0023750Y0078650D03*
X0023750Y0078600D03*
X0023750Y0078550D03*
X0023750Y0078500D03*
X0023750Y0078450D03*
X0023800Y0078350D03*
X0023800Y0078300D03*
X0023800Y0078250D03*
X0023850Y0078100D03*
X0023850Y0078050D03*
X0023900Y0078000D03*
X0023900Y0077950D03*
X0023950Y0077850D03*
X0024000Y0077800D03*
X0024000Y0077750D03*
X0024050Y0077700D03*
X0024100Y0077600D03*
X0024150Y0077550D03*
X0019750Y0077150D03*
X0019700Y0077200D03*
X0019650Y0077250D03*
X0019600Y0077300D03*
X0019350Y0080350D03*
X0019350Y0080400D03*
X0009250Y0078350D03*
D55*
X0008575Y0078550D03*
X0022275Y0077150D03*
X0022325Y0077200D03*
X0022575Y0080400D03*
X0026925Y0080200D03*
X0030575Y0080300D03*
D56*
X0012150Y0077200D03*
D57*
X0011975Y0077250D03*
X0011825Y0077300D03*
X0011675Y0077350D03*
D58*
X0009100Y0078400D03*
X0019400Y0078400D03*
X0019400Y0078450D03*
X0019400Y0078500D03*
X0019400Y0078550D03*
X0019400Y0078600D03*
X0019400Y0078650D03*
X0019400Y0078700D03*
X0019400Y0078750D03*
X0019400Y0078800D03*
X0019400Y0078850D03*
X0019400Y0078900D03*
X0019400Y0078950D03*
X0019400Y0079000D03*
X0019400Y0079050D03*
X0019400Y0079100D03*
X0019400Y0079150D03*
X0019400Y0079200D03*
X0019400Y0079250D03*
X0019400Y0079300D03*
X0019400Y0079350D03*
X0019400Y0079400D03*
X0019400Y0079450D03*
X0019400Y0079500D03*
X0019400Y0079550D03*
X0019400Y0079600D03*
X0019400Y0079650D03*
X0019400Y0079700D03*
X0019400Y0079750D03*
X0019400Y0079800D03*
X0019400Y0079850D03*
X0019400Y0079900D03*
X0019400Y0079950D03*
X0019400Y0080000D03*
X0019400Y0080050D03*
X0019400Y0080100D03*
X0019400Y0080150D03*
X0019400Y0078350D03*
X0019400Y0078300D03*
X0019400Y0078250D03*
X0019400Y0078200D03*
X0019400Y0078150D03*
X0019400Y0078100D03*
X0019400Y0078050D03*
X0019400Y0078000D03*
X0019400Y0077950D03*
X0019400Y0077900D03*
X0019400Y0077850D03*
X0019400Y0077800D03*
X0019400Y0077750D03*
X0019450Y0077600D03*
X0019500Y0077450D03*
X0022500Y0080500D03*
X0028100Y0079600D03*
X0028400Y0080350D03*
X0030750Y0077650D03*
X0030750Y0077600D03*
X0032300Y0077600D03*
X0032300Y0077650D03*
X0032300Y0077700D03*
X0032300Y0077750D03*
X0032300Y0077800D03*
X0032300Y0077850D03*
X0032300Y0077900D03*
X0032300Y0077950D03*
X0032300Y0078000D03*
X0032300Y0078050D03*
X0032300Y0078100D03*
X0032300Y0078150D03*
X0032300Y0078200D03*
X0032300Y0078250D03*
X0032300Y0078300D03*
X0032300Y0078350D03*
X0032300Y0078400D03*
X0032300Y0078450D03*
X0032300Y0078500D03*
X0032300Y0078550D03*
X0032300Y0078600D03*
X0032300Y0078650D03*
X0032300Y0078700D03*
X0032300Y0078750D03*
X0032300Y0078800D03*
X0032300Y0078850D03*
X0032300Y0078900D03*
X0032300Y0078950D03*
X0032300Y0079000D03*
X0032300Y0079050D03*
X0032300Y0079100D03*
X0032300Y0079150D03*
X0032300Y0079200D03*
X0032300Y0079250D03*
X0032300Y0079300D03*
X0032300Y0079350D03*
X0032300Y0079400D03*
X0032300Y0079450D03*
X0032300Y0079500D03*
X0032300Y0079550D03*
X0032300Y0079600D03*
X0032300Y0079650D03*
X0032300Y0079700D03*
X0032300Y0079750D03*
X0032300Y0079800D03*
X0032300Y0079850D03*
X0032300Y0079900D03*
X0032300Y0079950D03*
X0032300Y0080000D03*
X0032300Y0077550D03*
X0032300Y0077500D03*
X0032300Y0077450D03*
D59*
X0030625Y0080250D03*
X0026975Y0080100D03*
X0022625Y0080100D03*
X0022625Y0080150D03*
X0022625Y0080200D03*
X0022625Y0080250D03*
X0022625Y0080050D03*
X0022625Y0080000D03*
X0022625Y0079950D03*
X0022625Y0079900D03*
X0022625Y0079850D03*
X0022625Y0079800D03*
X0022625Y0079750D03*
X0022625Y0079700D03*
X0022625Y0079650D03*
X0022625Y0079600D03*
X0022625Y0079550D03*
X0022625Y0079500D03*
X0022625Y0079450D03*
X0022625Y0079400D03*
X0022625Y0079350D03*
X0022625Y0079300D03*
X0022625Y0079250D03*
X0022625Y0079200D03*
X0022625Y0079150D03*
X0022625Y0079100D03*
X0022625Y0079050D03*
X0022625Y0079000D03*
X0022625Y0078950D03*
X0022625Y0078900D03*
X0022625Y0078850D03*
X0022625Y0078800D03*
X0022625Y0078750D03*
X0022625Y0078700D03*
X0022625Y0078650D03*
X0022625Y0078600D03*
X0022625Y0078550D03*
X0022625Y0078500D03*
X0022625Y0078450D03*
X0022625Y0078400D03*
X0022625Y0078350D03*
X0022625Y0078300D03*
X0022625Y0078250D03*
X0022625Y0078200D03*
X0022625Y0078150D03*
X0022625Y0078100D03*
X0022625Y0078050D03*
X0022625Y0078000D03*
X0022625Y0077950D03*
X0022625Y0077900D03*
X0022625Y0077850D03*
X0022625Y0077800D03*
X0022575Y0077750D03*
X0022575Y0077700D03*
X0022575Y0077650D03*
X0022575Y0077600D03*
X0022525Y0077500D03*
X0022525Y0077450D03*
X0008025Y0078700D03*
D60*
X0011125Y0077700D03*
X0029175Y0078900D03*
X0029275Y0078850D03*
X0029525Y0078750D03*
X0029625Y0078700D03*
D61*
X0027125Y0079650D03*
X0013025Y0077700D03*
D62*
X0012950Y0077750D03*
X0007850Y0078750D03*
X0027000Y0080050D03*
X0030650Y0080200D03*
D63*
X0029975Y0078550D03*
X0028825Y0079050D03*
X0019025Y0080550D03*
X0019025Y0080600D03*
X0019025Y0080650D03*
X0013475Y0081750D03*
X0010925Y0077800D03*
D64*
X0010650Y0077900D03*
X0012700Y0077950D03*
X0025650Y0080700D03*
D65*
X0013450Y0081650D03*
X0013450Y0081700D03*
X0012650Y0078000D03*
D66*
X0012575Y0078050D03*
D67*
X0012475Y0078150D03*
D68*
X0012275Y0078350D03*
D69*
X0012225Y0078400D03*
D70*
X0028525Y0079200D03*
X0030275Y0078400D03*
X0034325Y0080400D03*
D71*
X0015150Y0079950D03*
X0012200Y0078450D03*
D72*
X0012150Y0078500D03*
X0012200Y0081850D03*
X0012200Y0081900D03*
X0012200Y0081950D03*
X0012200Y0082000D03*
X0012200Y0082050D03*
X0012200Y0082100D03*
X0012200Y0082150D03*
D73*
X0013500Y0081800D03*
X0030050Y0078500D03*
D74*
X0012125Y0078550D03*
D75*
X0012075Y0078600D03*
D76*
X0012075Y0078650D03*
D77*
X0029050Y0078950D03*
X0029750Y0078650D03*
D78*
X0012050Y0078700D03*
D79*
X0012050Y0078750D03*
D80*
X0012025Y0078800D03*
D81*
X0007500Y0078850D03*
X0007300Y0078900D03*
X0027050Y0079900D03*
X0027050Y0079950D03*
X0030700Y0080100D03*
D82*
X0012050Y0078850D03*
D83*
X0012050Y0078900D03*
X0012250Y0081150D03*
X0012250Y0081200D03*
X0012250Y0081250D03*
X0012250Y0081300D03*
D84*
X0007125Y0078950D03*
X0027075Y0079850D03*
X0030725Y0080050D03*
X0030775Y0079950D03*
D85*
X0012100Y0078950D03*
D86*
X0012125Y0079000D03*
D87*
X0012225Y0079050D03*
D88*
X0006550Y0079100D03*
X0006350Y0079150D03*
D89*
X0012350Y0079100D03*
D90*
X0012650Y0079150D03*
D91*
X0012550Y0079200D03*
D92*
X0012475Y0079250D03*
D93*
X0012375Y0079300D03*
D94*
X0012300Y0079350D03*
D95*
X0012200Y0079400D03*
D96*
X0012150Y0079450D03*
D97*
X0012050Y0079500D03*
D98*
X0011975Y0079550D03*
D99*
X0011875Y0079600D03*
D100*
X0011800Y0079650D03*
D101*
X0011750Y0079700D03*
D102*
X0015175Y0080000D03*
X0015175Y0080050D03*
D103*
X0015200Y0080100D03*
D104*
X0015225Y0080150D03*
D105*
X0012175Y0080200D03*
X0012175Y0080250D03*
X0012175Y0080300D03*
X0012175Y0080350D03*
X0012175Y0080400D03*
X0012175Y0080450D03*
X0012175Y0080500D03*
D106*
X0033325Y0080450D03*
D107*
X0033200Y0080500D03*
X0032750Y0080600D03*
D108*
X0032875Y0080550D03*
D109*
X0029700Y0080650D03*
D110*
X0012275Y0081000D03*
X0012275Y0081050D03*
X0012275Y0081100D03*
X0012275Y0081350D03*
M02*
